STARTFONT 2.1
COMMENT
COMMENT Converted from OpenType font "NimbusSans-Regular.otf" by "otf2bdf 3.0".
COMMENT
FONT -FreeType-Nimbus Sans-Medium-R-Normal--17-120-100-100-P-90-ISO10646-1
SIZE 12 100 100
FONTBOUNDINGBOX 21 24 -4 -5
STARTPROPERTIES 19
FOUNDRY "FreeType"
FAMILY_NAME "Nimbus Sans"
WEIGHT_NAME "Medium"
SLANT "R"
SETWIDTH_NAME "Normal"
ADD_STYLE_NAME ""
PIXEL_SIZE 17
POINT_SIZE 120
RESOLUTION_X 100
RESOLUTION_Y 100
SPACING "P"
AVERAGE_WIDTH 90
CHARSET_REGISTRY "ISO10646"
CHARSET_ENCODING "1"
FONT_ASCENT 12
FONT_DESCENT 4
COPYRIGHT "(URW)++,Copyright 2014 by (URW)++ Design & Development"
_OTF_FONTFILE "NimbusSans-Regular.otf"
_OTF_PSNAME "NimbusSans-Regular"
ENDPROPERTIES
CHARS 854
STARTCHAR 0020
ENCODING 32
SWIDTH 300 0
DWIDTH 5 0
BBX 0 0 0 0
BITMAP
ENDCHAR
STARTCHAR 0021
ENCODING 33
SWIDTH 300 0
DWIDTH 5 0
BBX 1 13 2 0
BITMAP
80
80
80
80
80
80
80
80
80
80
00
80
80
ENDCHAR
STARTCHAR 0022
ENCODING 34
SWIDTH 360 0
DWIDTH 6 0
BBX 4 4 1 8
BITMAP
90
90
90
90
ENDCHAR
STARTCHAR 0023
ENCODING 35
SWIDTH 540 0
DWIDTH 9 0
BBX 9 12 0 0
BITMAP
1900
1300
1300
7F80
1200
3200
2200
FF80
2400
2400
2400
6400
ENDCHAR
STARTCHAR 0024
ENCODING 36
SWIDTH 540 0
DWIDTH 9 0
BBX 8 15 1 -2
BITMAP
10
3C
D6
92
90
D0
78
1E
13
13
93
D2
7E
10
10
ENDCHAR
STARTCHAR 0025
ENCODING 37
SWIDTH 900 0
DWIDTH 15 0
BBX 13 12 1 0
BITMAP
7040
9880
8880
8900
9900
7200
0600
0470
0C88
0888
1088
1070
ENDCHAR
STARTCHAR 0026
ENCODING 38
SWIDTH 660 0
DWIDTH 11 0
BBX 9 12 1 0
BITMAP
3C00
6600
6600
6600
3C00
3800
6980
CD00
8700
8300
EF00
7980
ENDCHAR
STARTCHAR 0027
ENCODING 39
SWIDTH 180 0
DWIDTH 3 0
BBX 1 4 1 8
BITMAP
80
80
80
80
ENDCHAR
STARTCHAR 0028
ENCODING 40
SWIDTH 360 0
DWIDTH 6 0
BBX 4 16 1 -3
BITMAP
10
20
60
40
40
C0
C0
C0
C0
C0
40
40
40
20
20
10
ENDCHAR
STARTCHAR 0029
ENCODING 41
SWIDTH 360 0
DWIDTH 6 0
BBX 3 16 1 -3
BITMAP
80
C0
40
40
60
20
20
20
20
20
20
60
40
40
80
80
ENDCHAR
STARTCHAR 002A
ENCODING 42
SWIDTH 360 0
DWIDTH 6 0
BBX 4 5 1 8
BITMAP
20
A0
70
70
10
ENDCHAR
STARTCHAR 002B
ENCODING 43
SWIDTH 600 0
DWIDTH 10 0
BBX 8 8 1 0
BITMAP
10
10
10
FF
10
10
10
10
ENDCHAR
STARTCHAR 002C
ENCODING 44
SWIDTH 300 0
DWIDTH 5 0
BBX 2 4 1 -2
BITMAP
C0
C0
40
40
ENDCHAR
STARTCHAR 002D
ENCODING 45
SWIDTH 360 0
DWIDTH 6 0
BBX 4 1 1 4
BITMAP
F0
ENDCHAR
STARTCHAR 002E
ENCODING 46
SWIDTH 300 0
DWIDTH 5 0
BBX 2 2 1 0
BITMAP
C0
C0
ENDCHAR
STARTCHAR 002F
ENCODING 47
SWIDTH 300 0
DWIDTH 5 0
BBX 5 13 0 0
BITMAP
08
10
10
10
20
20
20
40
40
40
40
80
80
ENDCHAR
STARTCHAR 0030
ENCODING 48
SWIDTH 540 0
DWIDTH 9 0
BBX 7 12 1 0
BITMAP
38
6C
C6
82
82
82
82
82
82
C6
64
38
ENDCHAR
STARTCHAR 0031
ENCODING 49
SWIDTH 540 0
DWIDTH 9 0
BBX 4 12 2 0
BITMAP
10
30
F0
30
30
30
30
30
30
30
30
30
ENDCHAR
STARTCHAR 0032
ENCODING 50
SWIDTH 540 0
DWIDTH 9 0
BBX 8 12 1 0
BITMAP
3C
66
C2
83
02
06
1C
30
60
C0
80
FE
ENDCHAR
STARTCHAR 0033
ENCODING 51
SWIDTH 540 0
DWIDTH 9 0
BBX 7 12 1 0
BITMAP
7C
C6
86
82
06
1C
06
02
82
82
C6
7C
ENDCHAR
STARTCHAR 0034
ENCODING 52
SWIDTH 540 0
DWIDTH 9 0
BBX 9 12 0 0
BITMAP
0600
0600
0E00
1E00
1600
2600
6600
C600
FF80
0600
0600
0600
ENDCHAR
STARTCHAR 0035
ENCODING 53
SWIDTH 540 0
DWIDTH 9 0
BBX 8 12 1 0
BITMAP
7E
40
C0
C0
FC
C6
02
03
03
82
C6
7C
ENDCHAR
STARTCHAR 0036
ENCODING 54
SWIDTH 540 0
DWIDTH 9 0
BBX 8 12 1 0
BITMAP
3C
66
C2
C0
80
BC
C6
82
83
C2
66
3C
ENDCHAR
STARTCHAR 0037
ENCODING 55
SWIDTH 540 0
DWIDTH 9 0
BBX 8 12 1 0
BITMAP
FF
02
06
04
0C
08
18
10
30
20
20
60
ENDCHAR
STARTCHAR 0038
ENCODING 56
SWIDTH 540 0
DWIDTH 9 0
BBX 8 12 1 0
BITMAP
3C
66
C2
C2
C6
3C
C6
82
83
82
C6
7C
ENDCHAR
STARTCHAR 0039
ENCODING 57
SWIDTH 540 0
DWIDTH 9 0
BBX 7 12 1 0
BITMAP
38
CC
82
82
82
C6
7A
02
02
C6
CC
78
ENDCHAR
STARTCHAR 003A
ENCODING 58
SWIDTH 300 0
DWIDTH 5 0
BBX 2 9 2 0
BITMAP
C0
C0
00
00
00
00
00
C0
C0
ENDCHAR
STARTCHAR 003B
ENCODING 59
SWIDTH 300 0
DWIDTH 5 0
BBX 2 11 2 -2
BITMAP
C0
C0
00
00
00
00
00
C0
C0
40
80
ENDCHAR
STARTCHAR 003C
ENCODING 60
SWIDTH 600 0
DWIDTH 10 0
BBX 8 8 1 0
BITMAP
01
0E
38
C0
E0
38
0E
01
ENDCHAR
STARTCHAR 003D
ENCODING 61
SWIDTH 600 0
DWIDTH 10 0
BBX 8 4 1 2
BITMAP
FF
00
00
FF
ENDCHAR
STARTCHAR 003E
ENCODING 62
SWIDTH 600 0
DWIDTH 10 0
BBX 8 8 1 0
BITMAP
80
E0
1C
07
07
1C
E0
80
ENDCHAR
STARTCHAR 003F
ENCODING 63
SWIDTH 540 0
DWIDTH 9 0
BBX 7 13 1 0
BITMAP
3C
66
C2
C2
02
06
0C
18
18
18
00
18
18
ENDCHAR
STARTCHAR 0040
ENCODING 64
SWIDTH 1020 0
DWIDTH 17 0
BBX 15 15 1 -2
BITMAP
07C0
1C70
3018
600C
43A4
C466
8C66
8846
9846
98C4
8CC8
C770
6000
3800
0FE0
ENDCHAR
STARTCHAR 0041
ENCODING 65
SWIDTH 660 0
DWIDTH 11 0
BBX 11 13 0 0
BITMAP
0E00
0E00
0A00
1B00
1B00
1100
3180
3180
3F80
60C0
60C0
4040
C060
ENDCHAR
STARTCHAR 0042
ENCODING 66
SWIDTH 660 0
DWIDTH 11 0
BBX 9 13 1 0
BITMAP
FE00
C300
C180
C180
C180
C300
FF00
C180
C080
C080
C080
C180
FF00
ENDCHAR
STARTCHAR 0043
ENCODING 67
SWIDTH 720 0
DWIDTH 12 0
BBX 10 13 1 0
BITMAP
1F00
3380
60C0
C0C0
C000
8000
8000
8000
C040
C0C0
60C0
7380
1F00
ENDCHAR
STARTCHAR 0044
ENCODING 68
SWIDTH 720 0
DWIDTH 12 0
BBX 10 13 1 0
BITMAP
FE00
C380
C180
C0C0
C0C0
C040
C040
C040
C0C0
C0C0
C080
C380
FE00
ENDCHAR
STARTCHAR 0045
ENCODING 69
SWIDTH 660 0
DWIDTH 11 0
BBX 8 13 2 0
BITMAP
FF
80
80
80
80
80
FF
80
80
80
80
80
FF
ENDCHAR
STARTCHAR 0046
ENCODING 70
SWIDTH 600 0
DWIDTH 10 0
BBX 8 13 2 0
BITMAP
FF
80
80
80
80
80
FE
80
80
80
80
80
80
ENDCHAR
STARTCHAR 0047
ENCODING 71
SWIDTH 780 0
DWIDTH 13 0
BBX 11 13 1 0
BITMAP
1F00
31C0
60C0
C060
C000
8000
83E0
8060
C060
C060
60E0
31A0
1F20
ENDCHAR
STARTCHAR 0048
ENCODING 72
SWIDTH 720 0
DWIDTH 12 0
BBX 10 13 1 0
BITMAP
C0C0
C0C0
C0C0
C0C0
C0C0
C0C0
FFC0
C0C0
C0C0
C0C0
C0C0
C0C0
C0C0
ENDCHAR
STARTCHAR 0049
ENCODING 73
SWIDTH 300 0
DWIDTH 5 0
BBX 1 13 2 0
BITMAP
80
80
80
80
80
80
80
80
80
80
80
80
80
ENDCHAR
STARTCHAR 004A
ENCODING 74
SWIDTH 480 0
DWIDTH 8 0
BBX 7 13 0 0
BITMAP
02
02
02
02
02
02
02
02
02
C2
C6
66
3C
ENDCHAR
STARTCHAR 004B
ENCODING 75
SWIDTH 660 0
DWIDTH 11 0
BBX 10 13 1 0
BITMAP
C180
C180
C300
C600
CC00
D800
FC00
E400
C600
C300
C100
C180
C0C0
ENDCHAR
STARTCHAR 004C
ENCODING 76
SWIDTH 540 0
DWIDTH 9 0
BBX 8 13 1 0
BITMAP
C0
C0
C0
C0
C0
C0
C0
C0
C0
C0
C0
C0
FF
ENDCHAR
STARTCHAR 004D
ENCODING 77
SWIDTH 840 0
DWIDTH 14 0
BBX 12 13 1 0
BITMAP
E070
E070
E070
F0F0
F0B0
D0B0
D0B0
D9B0
C930
C930
CF30
C630
C630
ENDCHAR
STARTCHAR 004E
ENCODING 78
SWIDTH 720 0
DWIDTH 12 0
BBX 10 13 1 0
BITMAP
C0C0
E0C0
E0C0
F0C0
D8C0
C8C0
CCC0
C4C0
C6C0
C3C0
C1C0
C1C0
C0C0
ENDCHAR
STARTCHAR 004F
ENCODING 79
SWIDTH 780 0
DWIDTH 13 0
BBX 11 13 1 0
BITMAP
1F00
3180
60C0
C060
8020
8020
8020
8020
8020
C060
60C0
31C0
1F00
ENDCHAR
STARTCHAR 0050
ENCODING 80
SWIDTH 660 0
DWIDTH 11 0
BBX 8 13 2 0
BITMAP
FE
87
83
81
81
83
FE
80
80
80
80
80
80
ENDCHAR
STARTCHAR 0051
ENCODING 81
SWIDTH 780 0
DWIDTH 13 0
BBX 11 14 1 -1
BITMAP
1F00
3180
60C0
C060
8020
8020
8020
8020
8020
C060
61C0
31C0
1F60
0020
ENDCHAR
STARTCHAR 0052
ENCODING 82
SWIDTH 720 0
DWIDTH 12 0
BBX 9 13 2 0
BITMAP
FE00
8300
8180
8180
8180
8100
FE00
8300
8100
8180
8180
8180
8180
ENDCHAR
STARTCHAR 0053
ENCODING 83
SWIDTH 660 0
DWIDTH 11 0
BBX 9 13 1 0
BITMAP
3E00
6300
C180
C180
C000
7800
3F00
0380
0080
8080
C180
6380
3E00
ENDCHAR
STARTCHAR 0054
ENCODING 84
SWIDTH 600 0
DWIDTH 10 0
BBX 10 13 0 0
BITMAP
FFC0
0C00
0C00
0C00
0C00
0C00
0C00
0C00
0C00
0C00
0C00
0C00
0C00
ENDCHAR
STARTCHAR 0055
ENCODING 85
SWIDTH 720 0
DWIDTH 12 0
BBX 10 13 1 0
BITMAP
C0C0
C0C0
C0C0
C0C0
C0C0
C0C0
C0C0
C0C0
C0C0
C0C0
4080
7380
1F00
ENDCHAR
STARTCHAR 0056
ENCODING 86
SWIDTH 660 0
DWIDTH 11 0
BBX 10 13 1 0
BITMAP
80C0
C080
C180
4180
6100
6300
2300
3200
3200
1600
1C00
1C00
0C00
ENDCHAR
STARTCHAR 0057
ENCODING 87
SWIDTH 960 0
DWIDTH 16 0
BBX 15 13 0 0
BITMAP
C182
4186
6386
63C6
62C4
2244
264C
366C
3428
1428
1C28
1C38
1818
ENDCHAR
STARTCHAR 0058
ENCODING 88
SWIDTH 660 0
DWIDTH 11 0
BBX 9 13 1 0
BITMAP
C180
4180
6300
3200
3600
1C00
0C00
1C00
3600
2300
6300
C180
C080
ENDCHAR
STARTCHAR 0059
ENCODING 89
SWIDTH 660 0
DWIDTH 11 0
BBX 11 13 0 0
BITMAP
C060
60C0
30C0
3180
1900
1B00
0E00
0600
0400
0400
0400
0400
0400
ENDCHAR
STARTCHAR 005A
ENCODING 90
SWIDTH 600 0
DWIDTH 10 0
BBX 10 13 0 0
BITMAP
7FC0
00C0
0180
0300
0200
0600
0C00
1800
1800
3000
6000
6000
FFC0
ENDCHAR
STARTCHAR 005B
ENCODING 91
SWIDTH 300 0
DWIDTH 5 0
BBX 3 16 1 -3
BITMAP
E0
80
80
80
80
80
80
80
80
80
80
80
80
80
80
E0
ENDCHAR
STARTCHAR 005C
ENCODING 92
SWIDTH 300 0
DWIDTH 5 0
BBX 5 13 0 0
BITMAP
80
80
40
40
40
40
20
20
20
10
10
10
08
ENDCHAR
STARTCHAR 005D
ENCODING 93
SWIDTH 300 0
DWIDTH 5 0
BBX 3 16 0 -3
BITMAP
E0
20
20
20
20
20
20
20
20
20
20
20
20
20
20
E0
ENDCHAR
STARTCHAR 005E
ENCODING 94
SWIDTH 480 0
DWIDTH 8 0
BBX 6 7 1 5
BITMAP
30
30
50
48
48
84
84
ENDCHAR
STARTCHAR 005F
ENCODING 95
SWIDTH 540 0
DWIDTH 9 0
BBX 10 1 0 -3
BITMAP
FFC0
ENDCHAR
STARTCHAR 0060
ENCODING 96
SWIDTH 360 0
DWIDTH 6 0
BBX 2 2 1 11
BITMAP
C0
40
ENDCHAR
STARTCHAR 0061
ENCODING 97
SWIDTH 540 0
DWIDTH 9 0
BBX 8 9 1 0
BITMAP
7C
C6
C6
06
7E
C6
86
CE
73
ENDCHAR
STARTCHAR 0062
ENCODING 98
SWIDTH 540 0
DWIDTH 9 0
BBX 8 13 1 0
BITMAP
80
80
80
80
BC
E6
C2
83
83
83
C2
E6
BC
ENDCHAR
STARTCHAR 0063
ENCODING 99
SWIDTH 480 0
DWIDTH 8 0
BBX 7 9 1 0
BITMAP
78
CC
86
80
80
80
86
CC
78
ENDCHAR
STARTCHAR 0064
ENCODING 100
SWIDTH 540 0
DWIDTH 9 0
BBX 8 13 0 0
BITMAP
01
01
01
01
3D
67
43
C1
C1
C1
43
67
3D
ENDCHAR
STARTCHAR 0065
ENCODING 101
SWIDTH 540 0
DWIDTH 9 0
BBX 8 9 1 0
BITMAP
3C
66
C2
82
FF
80
82
E6
3C
ENDCHAR
STARTCHAR 0066
ENCODING 102
SWIDTH 300 0
DWIDTH 5 0
BBX 4 13 0 0
BITMAP
30
20
60
60
F0
60
60
60
60
60
60
60
60
ENDCHAR
STARTCHAR 0067
ENCODING 103
SWIDTH 540 0
DWIDTH 9 0
BBX 7 12 1 -3
BITMAP
7A
CE
86
82
82
82
86
CE
7A
06
C4
7C
ENDCHAR
STARTCHAR 0068
ENCODING 104
SWIDTH 540 0
DWIDTH 9 0
BBX 7 13 1 0
BITMAP
C0
C0
C0
C0
DC
E6
C2
C2
C2
C2
C2
C2
C2
ENDCHAR
STARTCHAR 0069
ENCODING 105
SWIDTH 240 0
DWIDTH 4 0
BBX 2 13 1 0
BITMAP
C0
C0
00
00
C0
C0
C0
C0
C0
C0
C0
C0
C0
ENDCHAR
STARTCHAR 006A
ENCODING 106
SWIDTH 240 0
DWIDTH 4 0
BBX 3 17 0 -4
BITMAP
60
60
00
00
60
60
60
60
60
60
60
60
60
60
60
60
C0
ENDCHAR
STARTCHAR 006B
ENCODING 107
SWIDTH 480 0
DWIDTH 8 0
BBX 7 13 1 0
BITMAP
80
80
80
80
84
88
90
B0
D8
88
8C
84
86
ENDCHAR
STARTCHAR 006C
ENCODING 108
SWIDTH 240 0
DWIDTH 4 0
BBX 2 13 1 0
BITMAP
C0
C0
C0
C0
C0
C0
C0
C0
C0
C0
C0
C0
C0
ENDCHAR
STARTCHAR 006D
ENCODING 109
SWIDTH 840 0
DWIDTH 14 0
BBX 12 9 1 0
BITMAP
BDE0
E730
C630
C630
C630
C630
C630
C630
C630
ENDCHAR
STARTCHAR 006E
ENCODING 110
SWIDTH 540 0
DWIDTH 9 0
BBX 7 9 1 0
BITMAP
BC
E6
C2
C2
C2
C2
C2
C2
C2
ENDCHAR
STARTCHAR 006F
ENCODING 111
SWIDTH 540 0
DWIDTH 9 0
BBX 8 9 1 0
BITMAP
3C
E6
82
82
83
82
82
E6
7C
ENDCHAR
STARTCHAR 0070
ENCODING 112
SWIDTH 540 0
DWIDTH 9 0
BBX 8 12 1 -3
BITMAP
BC
E6
C2
83
83
83
C2
E6
BC
80
80
80
ENDCHAR
STARTCHAR 0071
ENCODING 113
SWIDTH 540 0
DWIDTH 9 0
BBX 8 12 0 -3
BITMAP
3D
67
43
41
C1
C1
43
67
3D
01
01
01
ENDCHAR
STARTCHAR 0072
ENCODING 114
SWIDTH 360 0
DWIDTH 6 0
BBX 4 9 1 0
BITMAP
90
A0
C0
C0
C0
C0
C0
C0
C0
ENDCHAR
STARTCHAR 0073
ENCODING 115
SWIDTH 480 0
DWIDTH 8 0
BBX 7 9 1 0
BITMAP
78
CC
84
C0
7C
04
86
CC
78
ENDCHAR
STARTCHAR 0074
ENCODING 116
SWIDTH 300 0
DWIDTH 5 0
BBX 4 11 0 0
BITMAP
60
60
F0
60
60
60
60
60
60
60
30
ENDCHAR
STARTCHAR 0075
ENCODING 117
SWIDTH 540 0
DWIDTH 9 0
BBX 7 9 1 0
BITMAP
82
82
82
82
82
82
86
CE
7A
ENDCHAR
STARTCHAR 0076
ENCODING 118
SWIDTH 480 0
DWIDTH 8 0
BBX 8 9 0 0
BITMAP
C3
43
62
66
24
24
3C
18
18
ENDCHAR
STARTCHAR 0077
ENCODING 119
SWIDTH 720 0
DWIDTH 12 0
BBX 12 9 0 0
BITMAP
C630
4620
4E20
6F60
6960
2940
2940
39C0
3080
ENDCHAR
STARTCHAR 0078
ENCODING 120
SWIDTH 480 0
DWIDTH 8 0
BBX 7 9 1 0
BITMAP
84
CC
68
30
30
38
48
CC
86
ENDCHAR
STARTCHAR 0079
ENCODING 121
SWIDTH 480 0
DWIDTH 8 0
BBX 8 12 0 -3
BITMAP
C3
42
62
26
24
34
1C
18
18
10
10
70
ENDCHAR
STARTCHAR 007A
ENCODING 122
SWIDTH 480 0
DWIDTH 8 0
BBX 7 9 1 0
BITMAP
FC
04
08
18
30
60
40
80
FE
ENDCHAR
STARTCHAR 007B
ENCODING 123
SWIDTH 360 0
DWIDTH 6 0
BBX 4 16 1 -3
BITMAP
30
40
40
40
40
40
40
C0
C0
40
40
40
40
40
60
30
ENDCHAR
STARTCHAR 007C
ENCODING 124
SWIDTH 240 0
DWIDTH 4 0
BBX 1 16 2 -3
BITMAP
80
80
80
80
80
80
80
80
80
80
80
80
80
80
80
80
ENDCHAR
STARTCHAR 007D
ENCODING 125
SWIDTH 360 0
DWIDTH 6 0
BBX 4 16 0 -3
BITMAP
E0
20
20
20
20
20
20
10
30
20
20
20
20
20
60
C0
ENDCHAR
STARTCHAR 007E
ENCODING 126
SWIDTH 600 0
DWIDTH 10 0
BBX 7 3 1 4
BITMAP
60
9A
8E
ENDCHAR
STARTCHAR 00A0
ENCODING 160
SWIDTH 300 0
DWIDTH 5 0
BBX 0 0 0 0
BITMAP
ENDCHAR
STARTCHAR 00A1
ENCODING 161
SWIDTH 360 0
DWIDTH 6 0
BBX 1 12 2 -3
BITMAP
80
80
00
80
80
80
80
80
80
80
80
80
ENDCHAR
STARTCHAR 00A2
ENCODING 162
SWIDTH 540 0
DWIDTH 9 0
BBX 7 12 1 -2
BITMAP
10
3C
76
D2
90
90
90
D2
56
7C
10
10
ENDCHAR
STARTCHAR 00A3
ENCODING 163
SWIDTH 540 0
DWIDTH 9 0
BBX 9 13 0 0
BITMAP
1E00
3300
6100
4180
6000
6000
FC00
3000
1000
3000
2000
7F80
4F00
ENDCHAR
STARTCHAR 00A4
ENCODING 164
SWIDTH 540 0
DWIDTH 9 0
BBX 7 6 1 2
BITMAP
FE
6C
46
C6
44
FE
ENDCHAR
STARTCHAR 00A5
ENCODING 165
SWIDTH 540 0
DWIDTH 9 0
BBX 9 12 0 0
BITMAP
C080
4100
6300
2200
1600
1C00
7F00
0800
7F00
0800
0800
0800
ENDCHAR
STARTCHAR 00A6
ENCODING 166
SWIDTH 240 0
DWIDTH 4 0
BBX 1 16 2 -3
BITMAP
80
80
80
80
80
80
80
00
00
80
80
80
80
80
80
80
ENDCHAR
STARTCHAR 00A7
ENCODING 167
SWIDTH 540 0
DWIDTH 9 0
BBX 7 16 1 -3
BITMAP
3C
6C
46
46
60
78
8C
86
C2
E2
32
1C
04
C6
44
7C
ENDCHAR
STARTCHAR 00A8
ENCODING 168
SWIDTH 360 0
DWIDTH 6 0
BBX 4 2 1 10
BITMAP
B0
B0
ENDCHAR
STARTCHAR 00A9
ENCODING 169
SWIDTH 720 0
DWIDTH 12 0
BBX 13 13 0 0
BITMAP
0F00
30C0
6020
4F30
8990
9010
9018
9090
8990
4F30
6020
30C0
0F00
ENDCHAR
STARTCHAR 00AA
ENCODING 170
SWIDTH 360 0
DWIDTH 6 0
BBX 5 8 1 5
BITMAP
F0
90
30
D0
90
F8
00
F0
ENDCHAR
STARTCHAR 00AB
ENCODING 171
SWIDTH 540 0
DWIDTH 9 0
BBX 6 5 2 2
BITMAP
44
D8
90
D8
44
ENDCHAR
STARTCHAR 00AC
ENCODING 172
SWIDTH 600 0
DWIDTH 10 0
BBX 8 5 1 1
BITMAP
FF
01
01
01
01
ENDCHAR
STARTCHAR 00AD
ENCODING 173
SWIDTH 360 0
DWIDTH 6 0
BBX 4 1 1 4
BITMAP
F0
ENDCHAR
STARTCHAR 00AE
ENCODING 174
SWIDTH 720 0
DWIDTH 12 0
BBX 13 13 0 0
BITMAP
0F80
30C0
6020
5FB0
9890
9890
9F18
9890
9890
5890
6020
30C0
0F80
ENDCHAR
STARTCHAR 00AF
ENCODING 175
SWIDTH 360 0
DWIDTH 6 0
BBX 5 1 0 11
BITMAP
F8
ENDCHAR
STARTCHAR 00B0
ENCODING 176
SWIDTH 420 0
DWIDTH 7 0
BBX 5 5 1 6
BITMAP
70
88
88
98
70
ENDCHAR
STARTCHAR 00B1
ENCODING 177
SWIDTH 600 0
DWIDTH 10 0
BBX 8 11 1 0
BITMAP
10
10
10
10
FF
10
10
10
10
00
FF
ENDCHAR
STARTCHAR 00B2
ENCODING 178
SWIDTH 360 0
DWIDTH 6 0
BBX 5 7 0 5
BITMAP
70
C8
88
18
60
C0
F8
ENDCHAR
STARTCHAR 00B3
ENCODING 179
SWIDTH 360 0
DWIDTH 6 0
BBX 5 7 0 5
BITMAP
70
88
08
38
08
88
70
ENDCHAR
STARTCHAR 00B4
ENCODING 180
SWIDTH 360 0
DWIDTH 6 0
BBX 3 2 2 11
BITMAP
60
C0
ENDCHAR
STARTCHAR 00B5
ENCODING 181
SWIDTH 540 0
DWIDTH 9 0
BBX 8 12 1 -3
BITMAP
82
82
82
82
82
82
86
CE
FB
80
80
80
ENDCHAR
STARTCHAR 00B6
ENCODING 182
SWIDTH 540 0
DWIDTH 9 0
BBX 8 15 1 -2
BITMAP
3F
72
F2
F2
F2
F2
72
32
12
12
12
12
12
12
12
ENDCHAR
STARTCHAR 00B7
ENCODING 183
SWIDTH 300 0
DWIDTH 5 0
BBX 2 2 2 4
BITMAP
C0
C0
ENDCHAR
STARTCHAR 00B8
ENCODING 184
SWIDTH 360 0
DWIDTH 6 0
BBX 4 4 1 -4
BITMAP
40
70
30
E0
ENDCHAR
STARTCHAR 00B9
ENCODING 185
SWIDTH 360 0
DWIDTH 6 0
BBX 3 7 1 5
BITMAP
20
60
A0
20
20
20
20
ENDCHAR
STARTCHAR 00BA
ENCODING 186
SWIDTH 360 0
DWIDTH 6 0
BBX 4 8 1 5
BITMAP
70
90
90
90
90
70
00
F0
ENDCHAR
STARTCHAR 00BB
ENCODING 187
SWIDTH 540 0
DWIDTH 9 0
BBX 6 5 2 2
BITMAP
90
D8
44
D8
90
ENDCHAR
STARTCHAR 00BC
ENCODING 188
SWIDTH 840 0
DWIDTH 14 0
BBX 14 12 0 0
BITMAP
2020
E040
2080
2080
2100
2110
2230
0450
0450
08FC
1010
1010
ENDCHAR
STARTCHAR 00BD
ENCODING 189
SWIDTH 840 0
DWIDTH 14 0
BBX 12 12 1 0
BITMAP
4040
C080
4100
4100
4200
44F0
4490
0810
1030
10C0
2080
41F0
ENDCHAR
STARTCHAR 00BE
ENCODING 190
SWIDTH 840 0
DWIDTH 14 0
BBX 13 12 1 0
BITMAP
F040
9040
1080
7100
1100
9220
F460
04A0
08A0
09F8
1020
2020
ENDCHAR
STARTCHAR 00BF
ENCODING 191
SWIDTH 600 0
DWIDTH 10 0
BBX 7 12 2 -3
BITMAP
10
10
00
10
10
30
60
C0
86
86
C4
7C
ENDCHAR
STARTCHAR 00C0
ENCODING 192
SWIDTH 660 0
DWIDTH 11 0
BBX 11 17 0 0
BITMAP
1800
0C00
0400
0000
0E00
0E00
0A00
1B00
1B00
1100
3180
3180
3F80
60C0
60C0
4040
C060
ENDCHAR
STARTCHAR 00C1
ENCODING 193
SWIDTH 660 0
DWIDTH 11 0
BBX 11 17 0 0
BITMAP
0300
0200
0400
0000
0E00
0E00
0A00
1B00
1B00
1100
3180
3180
3F80
60C0
60C0
4040
C060
ENDCHAR
STARTCHAR 00C2
ENCODING 194
SWIDTH 660 0
DWIDTH 11 0
BBX 11 17 0 0
BITMAP
0400
0A00
1900
0000
0E00
0E00
0A00
1B00
1B00
1100
3180
3180
3F80
60C0
60C0
4040
C060
ENDCHAR
STARTCHAR 00C3
ENCODING 195
SWIDTH 660 0
DWIDTH 11 0
BBX 11 16 0 0
BITMAP
1900
1600
0000
0E00
0E00
0A00
1B00
1B00
1100
3180
3180
3F80
60C0
60C0
4040
C060
ENDCHAR
STARTCHAR 00C4
ENCODING 196
SWIDTH 660 0
DWIDTH 11 0
BBX 11 16 0 0
BITMAP
1B00
1B00
0000
0E00
0E00
0A00
1B00
1B00
1100
3180
3180
3F80
60C0
60C0
4040
C060
ENDCHAR
STARTCHAR 00C5
ENCODING 197
SWIDTH 660 0
DWIDTH 11 0
BBX 11 17 0 0
BITMAP
0400
0A00
0E00
0000
0E00
0E00
0A00
1B00
1B00
1100
3180
3180
3F80
60C0
60C0
4040
C060
ENDCHAR
STARTCHAR 00C6
ENCODING 198
SWIDTH 1020 0
DWIDTH 17 0
BBX 16 13 0 0
BITMAP
07FF
0480
0C80
0880
1880
1880
10FE
3080
3F80
2080
6080
4080
C0FF
ENDCHAR
STARTCHAR 00C7
ENCODING 199
SWIDTH 720 0
DWIDTH 12 0
BBX 10 17 1 -4
BITMAP
1F00
3380
60C0
C0C0
C000
8000
8000
8000
C040
C0C0
40C0
6180
3F00
0800
0E00
0200
1C00
ENDCHAR
STARTCHAR 00C8
ENCODING 200
SWIDTH 660 0
DWIDTH 11 0
BBX 8 17 2 0
BITMAP
60
30
18
00
FF
80
80
80
80
80
FF
80
80
80
80
80
FF
ENDCHAR
STARTCHAR 00C9
ENCODING 201
SWIDTH 660 0
DWIDTH 11 0
BBX 8 17 2 0
BITMAP
0C
18
10
00
FF
80
80
80
80
80
FF
80
80
80
80
80
FF
ENDCHAR
STARTCHAR 00CA
ENCODING 202
SWIDTH 660 0
DWIDTH 11 0
BBX 8 17 2 0
BITMAP
18
38
24
00
FF
80
80
80
80
80
FF
80
80
80
80
80
FF
ENDCHAR
STARTCHAR 00CB
ENCODING 203
SWIDTH 660 0
DWIDTH 11 0
BBX 8 16 2 0
BITMAP
2C
2C
00
FF
80
80
80
80
80
FF
80
80
80
80
80
FF
ENDCHAR
STARTCHAR 00CC
ENCODING 204
SWIDTH 300 0
DWIDTH 5 0
BBX 3 17 0 0
BITMAP
C0
60
20
00
20
20
20
20
20
20
20
20
20
20
20
20
20
ENDCHAR
STARTCHAR 00CD
ENCODING 205
SWIDTH 300 0
DWIDTH 5 0
BBX 4 17 1 0
BITMAP
30
60
C0
00
40
40
40
40
40
40
40
40
40
40
40
40
40
ENDCHAR
STARTCHAR 00CE
ENCODING 206
SWIDTH 300 0
DWIDTH 5 0
BBX 4 17 0 0
BITMAP
20
70
90
00
20
20
20
20
20
20
20
20
20
20
20
20
20
ENDCHAR
STARTCHAR 00CF
ENCODING 207
SWIDTH 300 0
DWIDTH 5 0
BBX 5 16 0 0
BITMAP
D8
D8
00
20
20
20
20
20
20
20
20
20
20
20
20
20
ENDCHAR
STARTCHAR 00D0
ENCODING 208
SWIDTH 720 0
DWIDTH 12 0
BBX 11 13 0 0
BITMAP
7F00
61C0
60C0
6060
6060
6020
FC20
6020
6060
6060
6040
61C0
7F00
ENDCHAR
STARTCHAR 00D1
ENCODING 209
SWIDTH 720 0
DWIDTH 12 0
BBX 10 16 1 0
BITMAP
1900
1600
0000
C0C0
E0C0
E0C0
F0C0
D8C0
C8C0
CCC0
C4C0
C6C0
C3C0
C1C0
C1C0
C0C0
ENDCHAR
STARTCHAR 00D2
ENCODING 210
SWIDTH 780 0
DWIDTH 13 0
BBX 11 16 1 0
BITMAP
0800
0400
0000
1F00
3180
60C0
C060
8020
8020
8020
8020
8020
C060
60C0
31C0
1F00
ENDCHAR
STARTCHAR 00D3
ENCODING 211
SWIDTH 780 0
DWIDTH 13 0
BBX 11 16 1 0
BITMAP
0600
0400
0000
1F00
3180
60C0
C060
8020
8020
8020
8020
8020
C060
60C0
31C0
1F00
ENDCHAR
STARTCHAR 00D4
ENCODING 212
SWIDTH 780 0
DWIDTH 13 0
BBX 11 16 1 0
BITMAP
0E00
0A00
0000
1F00
3180
60C0
C060
8020
8020
8020
8020
8020
C060
60C0
31C0
1F00
ENDCHAR
STARTCHAR 00D5
ENCODING 213
SWIDTH 780 0
DWIDTH 13 0
BBX 11 16 1 0
BITMAP
1900
1700
0000
1F00
3180
60C0
C060
8020
8020
8020
8020
8020
C060
60C0
31C0
1F00
ENDCHAR
STARTCHAR 00D6
ENCODING 214
SWIDTH 780 0
DWIDTH 13 0
BBX 11 16 1 0
BITMAP
1B00
1B00
0000
1F00
3180
60C0
C060
8020
8020
8020
8020
8020
C060
60C0
31C0
1F00
ENDCHAR
STARTCHAR 00D7
ENCODING 215
SWIDTH 600 0
DWIDTH 10 0
BBX 6 6 2 1
BITMAP
84
C8
70
30
58
8C
ENDCHAR
STARTCHAR 00D8
ENCODING 216
SWIDTH 780 0
DWIDTH 13 0
BBX 11 13 1 0
BITMAP
1F20
71C0
60C0
C1E0
8360
8220
8420
8820
9060
E060
60C0
F180
9F00
ENDCHAR
STARTCHAR 00D9
ENCODING 217
SWIDTH 720 0
DWIDTH 12 0
BBX 10 17 1 0
BITMAP
1800
0800
0400
0000
C0C0
C0C0
C0C0
C0C0
C0C0
C0C0
C0C0
C0C0
C0C0
C0C0
4080
7380
1F00
ENDCHAR
STARTCHAR 00DA
ENCODING 218
SWIDTH 720 0
DWIDTH 12 0
BBX 10 17 1 0
BITMAP
0600
0400
0800
0000
C0C0
C0C0
C0C0
C0C0
C0C0
C0C0
C0C0
C0C0
C0C0
C0C0
4080
7380
1F00
ENDCHAR
STARTCHAR 00DB
ENCODING 219
SWIDTH 720 0
DWIDTH 12 0
BBX 10 17 1 0
BITMAP
0C00
0E00
1200
0000
C0C0
C0C0
C0C0
C0C0
C0C0
C0C0
C0C0
C0C0
C0C0
C0C0
4080
7380
1F00
ENDCHAR
STARTCHAR 00DC
ENCODING 220
SWIDTH 720 0
DWIDTH 12 0
BBX 10 16 1 0
BITMAP
1A00
1A00
0000
C0C0
C0C0
C0C0
C0C0
C0C0
C0C0
C0C0
C0C0
C0C0
C0C0
4080
7380
1F00
ENDCHAR
STARTCHAR 00DD
ENCODING 221
SWIDTH 660 0
DWIDTH 11 0
BBX 11 17 0 0
BITMAP
0300
0600
0400
0000
C060
60C0
30C0
3180
1900
1B00
0E00
0600
0400
0400
0400
0400
0400
ENDCHAR
STARTCHAR 00DE
ENCODING 222
SWIDTH 660 0
DWIDTH 11 0
BBX 8 13 2 0
BITMAP
80
80
FE
87
83
81
83
83
FE
80
80
80
80
ENDCHAR
STARTCHAR 00DF
ENCODING 223
SWIDTH 600 0
DWIDTH 10 0
BBX 8 13 1 0
BITMAP
3C
66
C3
C3
C2
CC
CE
C3
C1
C1
C3
C6
DC
ENDCHAR
STARTCHAR 00E0
ENCODING 224
SWIDTH 540 0
DWIDTH 9 0
BBX 8 13 1 0
BITMAP
20
10
18
00
7C
C6
C6
06
7E
C6
86
CE
73
ENDCHAR
STARTCHAR 00E1
ENCODING 225
SWIDTH 540 0
DWIDTH 9 0
BBX 8 13 1 0
BITMAP
0C
18
10
00
7C
C6
C6
06
7E
C6
86
CE
73
ENDCHAR
STARTCHAR 00E2
ENCODING 226
SWIDTH 540 0
DWIDTH 9 0
BBX 8 13 1 0
BITMAP
18
28
64
00
7C
C6
C6
06
7E
C6
86
CE
73
ENDCHAR
STARTCHAR 00E3
ENCODING 227
SWIDTH 540 0
DWIDTH 9 0
BBX 8 12 1 0
BITMAP
64
5C
00
7C
C6
C6
06
7E
C6
86
CE
73
ENDCHAR
STARTCHAR 00E4
ENCODING 228
SWIDTH 540 0
DWIDTH 9 0
BBX 8 12 1 0
BITMAP
6C
6C
00
7C
C6
C6
06
7E
C6
86
CE
73
ENDCHAR
STARTCHAR 00E5
ENCODING 229
SWIDTH 540 0
DWIDTH 9 0
BBX 8 13 1 0
BITMAP
10
28
38
00
7C
C6
C6
06
7E
C6
86
CE
73
ENDCHAR
STARTCHAR 00E6
ENCODING 230
SWIDTH 900 0
DWIDTH 15 0
BBX 13 9 1 0
BITMAP
79E0
C730
8618
0608
7FF8
C600
8618
CF30
71E0
ENDCHAR
STARTCHAR 00E7
ENCODING 231
SWIDTH 480 0
DWIDTH 8 0
BBX 7 13 1 -4
BITMAP
78
CC
86
80
80
80
86
C6
7C
20
38
08
70
ENDCHAR
STARTCHAR 00E8
ENCODING 232
SWIDTH 540 0
DWIDTH 9 0
BBX 8 13 1 0
BITMAP
20
10
18
00
3C
66
C2
82
FF
80
82
E6
3C
ENDCHAR
STARTCHAR 00E9
ENCODING 233
SWIDTH 540 0
DWIDTH 9 0
BBX 8 13 1 0
BITMAP
0C
18
10
00
3C
66
C2
82
FF
80
82
E6
3C
ENDCHAR
STARTCHAR 00EA
ENCODING 234
SWIDTH 540 0
DWIDTH 9 0
BBX 8 13 1 0
BITMAP
18
28
24
00
3C
66
C2
82
FF
80
82
E6
3C
ENDCHAR
STARTCHAR 00EB
ENCODING 235
SWIDTH 540 0
DWIDTH 9 0
BBX 8 12 1 0
BITMAP
2C
2C
00
3C
66
C2
82
FF
80
82
E6
3C
ENDCHAR
STARTCHAR 00EC
ENCODING 236
SWIDTH 300 0
DWIDTH 5 0
BBX 3 13 0 0
BITMAP
C0
60
20
00
20
20
20
20
20
20
20
20
20
ENDCHAR
STARTCHAR 00ED
ENCODING 237
SWIDTH 300 0
DWIDTH 5 0
BBX 3 13 1 0
BITMAP
60
40
80
00
40
40
40
40
40
40
40
40
40
ENDCHAR
STARTCHAR 00EE
ENCODING 238
SWIDTH 300 0
DWIDTH 5 0
BBX 5 13 0 0
BITMAP
60
50
98
00
20
20
20
20
20
20
20
20
20
ENDCHAR
STARTCHAR 00EF
ENCODING 239
SWIDTH 300 0
DWIDTH 5 0
BBX 4 12 0 0
BITMAP
D0
D0
00
20
20
20
20
20
20
20
20
20
ENDCHAR
STARTCHAR 00F0
ENCODING 240
SWIDTH 540 0
DWIDTH 9 0
BBX 8 12 1 0
BITMAP
68
70
08
7C
C6
82
82
83
82
82
E6
7C
ENDCHAR
STARTCHAR 00F1
ENCODING 241
SWIDTH 540 0
DWIDTH 9 0
BBX 7 12 1 0
BITMAP
64
5C
00
BC
E6
C2
C2
C2
C2
C2
C2
C2
ENDCHAR
STARTCHAR 00F2
ENCODING 242
SWIDTH 540 0
DWIDTH 9 0
BBX 8 13 1 0
BITMAP
20
30
10
00
3C
E6
82
82
83
82
82
E6
7C
ENDCHAR
STARTCHAR 00F3
ENCODING 243
SWIDTH 540 0
DWIDTH 9 0
BBX 8 13 1 0
BITMAP
08
18
10
00
3C
E6
82
82
83
82
82
E6
7C
ENDCHAR
STARTCHAR 00F4
ENCODING 244
SWIDTH 540 0
DWIDTH 9 0
BBX 8 13 1 0
BITMAP
38
28
64
00
3C
E6
82
82
83
82
82
E6
7C
ENDCHAR
STARTCHAR 00F5
ENCODING 245
SWIDTH 540 0
DWIDTH 9 0
BBX 8 12 1 0
BITMAP
64
5C
00
3C
E6
82
82
83
82
82
E6
7C
ENDCHAR
STARTCHAR 00F6
ENCODING 246
SWIDTH 540 0
DWIDTH 9 0
BBX 8 12 1 0
BITMAP
6C
6C
00
3C
E6
82
82
83
82
82
E6
7C
ENDCHAR
STARTCHAR 00F7
ENCODING 247
SWIDTH 600 0
DWIDTH 10 0
BBX 8 8 1 0
BITMAP
18
18
00
00
FF
00
18
18
ENDCHAR
STARTCHAR 00F8
ENCODING 248
SWIDTH 600 0
DWIDTH 10 0
BBX 9 9 0 0
BITMAP
1E80
7300
4300
4500
4980
5100
6100
7300
9E00
ENDCHAR
STARTCHAR 00F9
ENCODING 249
SWIDTH 540 0
DWIDTH 9 0
BBX 7 13 1 0
BITMAP
20
10
08
00
82
82
82
82
82
82
86
CE
7A
ENDCHAR
STARTCHAR 00FA
ENCODING 250
SWIDTH 540 0
DWIDTH 9 0
BBX 7 13 1 0
BITMAP
08
10
20
00
82
82
82
82
82
82
86
CE
7A
ENDCHAR
STARTCHAR 00FB
ENCODING 251
SWIDTH 540 0
DWIDTH 9 0
BBX 7 13 1 0
BITMAP
38
28
44
00
82
82
82
82
82
82
86
CE
7A
ENDCHAR
STARTCHAR 00FC
ENCODING 252
SWIDTH 540 0
DWIDTH 9 0
BBX 7 12 1 0
BITMAP
6C
6C
00
82
82
82
82
82
82
86
CE
7A
ENDCHAR
STARTCHAR 00FD
ENCODING 253
SWIDTH 480 0
DWIDTH 8 0
BBX 8 16 0 -3
BITMAP
0C
08
10
00
C3
42
62
26
24
34
1C
18
18
10
10
70
ENDCHAR
STARTCHAR 00FE
ENCODING 254
SWIDTH 540 0
DWIDTH 9 0
BBX 8 15 1 -3
BITMAP
80
80
80
BC
E6
C2
83
83
83
C2
E6
BC
80
80
80
ENDCHAR
STARTCHAR 00FF
ENCODING 255
SWIDTH 480 0
DWIDTH 8 0
BBX 8 15 0 -3
BITMAP
34
34
00
C3
42
62
26
24
34
1C
18
18
10
10
70
ENDCHAR
STARTCHAR 0100
ENCODING 256
SWIDTH 660 0
DWIDTH 11 0
BBX 11 16 0 0
BITMAP
1F00
0000
0000
0E00
0E00
0A00
1B00
1B00
1100
3180
3180
3F80
60C0
60C0
4040
C060
ENDCHAR
STARTCHAR 0101
ENCODING 257
SWIDTH 540 0
DWIDTH 9 0
BBX 8 12 1 0
BITMAP
7C
00
00
7C
C6
C6
06
7E
C6
86
CE
73
ENDCHAR
STARTCHAR 0102
ENCODING 258
SWIDTH 660 0
DWIDTH 11 0
BBX 11 16 0 0
BITMAP
1100
0E00
0000
0E00
0E00
0A00
1B00
1B00
1100
3180
3180
3F80
60C0
60C0
4040
C060
ENDCHAR
STARTCHAR 0103
ENCODING 259
SWIDTH 540 0
DWIDTH 9 0
BBX 8 13 1 0
BITMAP
44
64
38
00
7C
C6
C6
06
7E
C6
86
CE
73
ENDCHAR
STARTCHAR 0104
ENCODING 260
SWIDTH 660 0
DWIDTH 11 0
BBX 12 17 0 -4
BITMAP
0E00
0E00
0A00
1B00
1B00
1100
3180
3180
3F80
60C0
60C0
4040
C060
0040
0080
0080
0070
ENDCHAR
STARTCHAR 0105
ENCODING 261
SWIDTH 540 0
DWIDTH 9 0
BBX 9 12 1 -3
BITMAP
7C00
C600
C600
0600
7E00
C600
8600
CE00
7B00
0200
0600
0380
ENDCHAR
STARTCHAR 0106
ENCODING 262
SWIDTH 720 0
DWIDTH 12 0
BBX 10 16 1 0
BITMAP
0600
0400
0000
1F00
3380
60C0
C0C0
C000
8000
8000
8000
C040
C0C0
60C0
7380
1F00
ENDCHAR
STARTCHAR 0107
ENCODING 263
SWIDTH 480 0
DWIDTH 8 0
BBX 7 13 1 0
BITMAP
08
18
10
00
78
CC
86
80
80
80
86
CC
78
ENDCHAR
STARTCHAR 0108
ENCODING 264
SWIDTH 720 0
DWIDTH 12 0
BBX 10 16 1 0
BITMAP
0E00
1200
0000
1F00
3380
60C0
C0C0
C000
8000
8000
8000
C040
C0C0
60C0
7380
1F00
ENDCHAR
STARTCHAR 0109
ENCODING 265
SWIDTH 480 0
DWIDTH 8 0
BBX 7 13 1 0
BITMAP
38
28
4C
00
78
CC
86
80
80
80
86
CC
78
ENDCHAR
STARTCHAR 010A
ENCODING 266
SWIDTH 720 0
DWIDTH 12 0
BBX 10 16 1 0
BITMAP
0C00
0C00
0000
1F00
3380
60C0
C0C0
C000
8000
8000
8000
C040
C0C0
60C0
7380
1F00
ENDCHAR
STARTCHAR 010B
ENCODING 267
SWIDTH 480 0
DWIDTH 8 0
BBX 7 12 1 0
BITMAP
10
10
00
78
CC
86
80
80
80
86
CC
78
ENDCHAR
STARTCHAR 010C
ENCODING 268
SWIDTH 720 0
DWIDTH 12 0
BBX 10 16 1 0
BITMAP
1A00
0E00
0000
1F00
3380
60C0
C0C0
C000
8000
8000
8000
C040
C0C0
60C0
7380
1F00
ENDCHAR
STARTCHAR 010D
ENCODING 269
SWIDTH 480 0
DWIDTH 8 0
BBX 7 13 1 0
BITMAP
4C
28
30
00
78
CC
86
80
80
80
86
CC
78
ENDCHAR
STARTCHAR 010E
ENCODING 270
SWIDTH 720 0
DWIDTH 12 0
BBX 10 17 1 0
BITMAP
2200
1400
0C00
0000
FE00
C380
C180
C0C0
C0C0
C040
C040
C040
C0C0
C0C0
C080
C380
FE00
ENDCHAR
STARTCHAR 010F
ENCODING 271
SWIDTH 660 0
DWIDTH 11 0
BBX 11 13 0 0
BITMAP
0160
0160
0120
0120
3D40
6700
4300
C100
C100
C100
4300
6700
3D00
ENDCHAR
STARTCHAR 0110
ENCODING 272
SWIDTH 720 0
DWIDTH 12 0
BBX 11 13 0 0
BITMAP
7F00
61C0
60C0
6060
6060
6020
FC20
6020
6060
6060
6040
61C0
7F00
ENDCHAR
STARTCHAR 0111
ENCODING 273
SWIDTH 540 0
DWIDTH 9 0
BBX 9 13 0 0
BITMAP
0100
0100
0F80
0100
3D00
7700
4300
C100
C100
4100
4300
7700
3D00
ENDCHAR
STARTCHAR 0112
ENCODING 274
SWIDTH 660 0
DWIDTH 11 0
BBX 8 16 2 0
BITMAP
7C
00
00
FF
80
80
80
80
80
FF
80
80
80
80
80
FF
ENDCHAR
STARTCHAR 0113
ENCODING 275
SWIDTH 540 0
DWIDTH 9 0
BBX 8 12 1 0
BITMAP
7C
00
00
3C
66
C2
82
FF
80
82
E6
3C
ENDCHAR
STARTCHAR 0114
ENCODING 276
SWIDTH 660 0
DWIDTH 11 0
BBX 8 16 2 0
BITMAP
64
38
00
FF
80
80
80
80
80
FF
80
80
80
80
80
FF
ENDCHAR
STARTCHAR 0115
ENCODING 277
SWIDTH 540 0
DWIDTH 9 0
BBX 8 13 1 0
BITMAP
44
64
38
00
3C
66
C2
82
FF
80
82
E6
3C
ENDCHAR
STARTCHAR 0116
ENCODING 278
SWIDTH 660 0
DWIDTH 11 0
BBX 8 16 2 0
BITMAP
18
18
00
FF
80
80
80
80
80
FF
80
80
80
80
80
FF
ENDCHAR
STARTCHAR 0117
ENCODING 279
SWIDTH 540 0
DWIDTH 9 0
BBX 8 12 1 0
BITMAP
18
18
00
3C
66
C2
82
FF
80
82
E6
3C
ENDCHAR
STARTCHAR 0118
ENCODING 280
SWIDTH 660 0
DWIDTH 11 0
BBX 9 17 2 -4
BITMAP
FF00
8000
8000
8000
8000
8000
FF00
8000
8000
8000
8000
8000
FF00
0200
0600
0600
0380
ENDCHAR
STARTCHAR 0119
ENCODING 281
SWIDTH 540 0
DWIDTH 9 0
BBX 8 12 1 -3
BITMAP
3C
66
C2
82
FF
80
82
E6
3C
08
08
0E
ENDCHAR
STARTCHAR 011A
ENCODING 282
SWIDTH 660 0
DWIDTH 11 0
BBX 8 17 2 0
BITMAP
44
28
18
00
FF
80
80
80
80
80
FF
80
80
80
80
80
FF
ENDCHAR
STARTCHAR 011B
ENCODING 283
SWIDTH 540 0
DWIDTH 9 0
BBX 8 13 1 0
BITMAP
24
38
18
00
3C
66
C2
82
FF
80
82
E6
3C
ENDCHAR
STARTCHAR 011C
ENCODING 284
SWIDTH 780 0
DWIDTH 13 0
BBX 11 16 1 0
BITMAP
0E00
1A00
0000
1F00
31C0
60C0
C060
C000
8000
83E0
8060
C060
C060
60E0
31A0
1F20
ENDCHAR
STARTCHAR 011D
ENCODING 285
SWIDTH 540 0
DWIDTH 9 0
BBX 7 16 1 -3
BITMAP
38
28
44
00
7A
CE
86
82
82
82
86
CE
7A
06
C4
7C
ENDCHAR
STARTCHAR 011E
ENCODING 286
SWIDTH 780 0
DWIDTH 13 0
BBX 11 16 1 0
BITMAP
1100
0F00
0000
1F00
31C0
60C0
C060
C000
8000
83E0
8060
C060
C060
60E0
31A0
1F20
ENDCHAR
STARTCHAR 011F
ENCODING 287
SWIDTH 540 0
DWIDTH 9 0
BBX 7 16 1 -3
BITMAP
44
6C
38
00
7A
CE
86
82
82
82
86
CE
7A
06
C4
7C
ENDCHAR
STARTCHAR 0120
ENCODING 288
SWIDTH 780 0
DWIDTH 13 0
BBX 11 16 1 0
BITMAP
0400
0400
0000
1F00
31C0
60C0
C060
C000
8000
83E0
8060
C060
C060
60E0
31A0
1F20
ENDCHAR
STARTCHAR 0121
ENCODING 289
SWIDTH 540 0
DWIDTH 9 0
BBX 7 15 1 -3
BITMAP
10
10
00
7A
CE
86
82
82
82
86
CE
7A
06
C4
7C
ENDCHAR
STARTCHAR 0122
ENCODING 290
SWIDTH 780 0
DWIDTH 13 0
BBX 11 18 1 -5
BITMAP
1F00
31C0
60C0
C060
C000
8000
83E0
8060
C060
C060
60E0
31A0
1F20
0000
0400
0400
0400
0400
ENDCHAR
STARTCHAR 0123
ENCODING 291
SWIDTH 540 0
DWIDTH 9 0
BBX 7 17 1 -3
BITMAP
10
20
10
10
00
7A
CE
86
82
82
82
86
CE
7A
06
C4
7C
ENDCHAR
STARTCHAR 0124
ENCODING 292
SWIDTH 720 0
DWIDTH 12 0
BBX 10 17 1 0
BITMAP
0C00
0E00
1200
0000
C0C0
C0C0
C0C0
C0C0
C0C0
C0C0
FFC0
C0C0
C0C0
C0C0
C0C0
C0C0
C0C0
ENDCHAR
STARTCHAR 0125
ENCODING 293
SWIDTH 540 0
DWIDTH 9 0
BBX 8 17 0 0
BITMAP
60
E0
90
00
60
60
60
60
6E
73
61
61
61
61
61
61
61
ENDCHAR
STARTCHAR 0126
ENCODING 294
SWIDTH 720 0
DWIDTH 12 0
BBX 12 13 0 0
BITMAP
6060
6060
6060
FFF0
6060
6060
7FE0
6060
6060
6060
6060
6060
6060
ENDCHAR
STARTCHAR 0127
ENCODING 295
SWIDTH 540 0
DWIDTH 9 0
BBX 8 13 0 0
BITMAP
60
60
FC
60
6E
73
61
61
61
61
61
61
61
ENDCHAR
STARTCHAR 0128
ENCODING 296
SWIDTH 300 0
DWIDTH 5 0
BBX 5 16 0 0
BITMAP
C8
B0
00
20
20
20
20
20
20
20
20
20
20
20
20
20
ENDCHAR
STARTCHAR 0129
ENCODING 297
SWIDTH 300 0
DWIDTH 5 0
BBX 5 12 0 0
BITMAP
C8
B0
00
20
20
20
20
20
20
20
20
20
ENDCHAR
STARTCHAR 012A
ENCODING 298
SWIDTH 300 0
DWIDTH 5 0
BBX 5 16 0 0
BITMAP
F8
00
00
20
20
20
20
20
20
20
20
20
20
20
20
20
ENDCHAR
STARTCHAR 012B
ENCODING 299
SWIDTH 300 0
DWIDTH 5 0
BBX 4 12 0 0
BITMAP
F0
00
00
20
20
20
20
20
20
20
20
20
ENDCHAR
STARTCHAR 012C
ENCODING 300
SWIDTH 300 0
DWIDTH 5 0
BBX 5 16 0 0
BITMAP
98
70
00
20
20
20
20
20
20
20
20
20
20
20
20
20
ENDCHAR
STARTCHAR 012D
ENCODING 301
SWIDTH 300 0
DWIDTH 5 0
BBX 5 13 0 0
BITMAP
88
F0
00
00
20
20
20
20
20
20
20
20
20
ENDCHAR
STARTCHAR 012E
ENCODING 302
SWIDTH 300 0
DWIDTH 5 0
BBX 3 17 1 -4
BITMAP
40
40
40
40
40
40
40
40
40
40
40
40
40
40
80
80
60
ENDCHAR
STARTCHAR 012F
ENCODING 303
SWIDTH 240 0
DWIDTH 4 0
BBX 3 17 0 -4
BITMAP
60
60
00
00
60
60
60
60
60
60
60
60
60
40
40
C0
60
ENDCHAR
STARTCHAR 0130
ENCODING 304
SWIDTH 300 0
DWIDTH 5 0
BBX 1 16 2 0
BITMAP
80
80
00
80
80
80
80
80
80
80
80
80
80
80
80
80
ENDCHAR
STARTCHAR 0131
ENCODING 305
SWIDTH 300 0
DWIDTH 5 0
BBX 1 9 2 0
BITMAP
80
80
80
80
80
80
80
80
80
ENDCHAR
STARTCHAR 0132
ENCODING 306
SWIDTH 720 0
DWIDTH 12 0
BBX 9 13 2 0
BITMAP
8180
8180
8180
8180
8180
8180
8180
8180
8180
B180
B180
9B00
8E00
ENDCHAR
STARTCHAR 0133
ENCODING 307
SWIDTH 420 0
DWIDTH 7 0
BBX 5 17 1 -4
BITMAP
C8
C8
00
00
C8
C8
C8
C8
C8
C8
C8
C8
C8
08
08
18
30
ENDCHAR
STARTCHAR 0134
ENCODING 308
SWIDTH 480 0
DWIDTH 8 0
BBX 8 17 0 0
BITMAP
06
07
09
00
02
02
02
02
02
02
02
02
02
C2
C6
66
3C
ENDCHAR
STARTCHAR 0135
ENCODING 309
SWIDTH 240 0
DWIDTH 4 0
BBX 4 17 0 -4
BITMAP
60
A0
90
00
60
60
60
60
60
60
60
60
60
60
60
60
C0
ENDCHAR
STARTCHAR 0136
ENCODING 310
SWIDTH 660 0
DWIDTH 11 0
BBX 10 18 1 -5
BITMAP
C180
C180
C300
C600
CC00
D800
FC00
E400
C600
C300
C100
C180
C0C0
0000
0C00
0C00
0400
0800
ENDCHAR
STARTCHAR 0137
ENCODING 311
SWIDTH 480 0
DWIDTH 8 0
BBX 7 18 1 -5
BITMAP
80
80
80
80
84
88
90
B0
D8
88
8C
84
86
00
10
10
10
10
ENDCHAR
STARTCHAR 0138
ENCODING 312
SWIDTH 480 0
DWIDTH 8 0
BBX 6 9 1 0
BITMAP
84
88
90
A0
E0
90
98
88
84
ENDCHAR
STARTCHAR 0139
ENCODING 313
SWIDTH 540 0
DWIDTH 9 0
BBX 8 17 1 0
BITMAP
30
60
C0
00
C0
C0
C0
C0
C0
C0
C0
C0
C0
C0
C0
C0
FF
ENDCHAR
STARTCHAR 013A
ENCODING 314
SWIDTH 240 0
DWIDTH 4 0
BBX 4 17 1 0
BITMAP
30
60
C0
00
C0
C0
C0
C0
C0
C0
C0
C0
C0
C0
C0
C0
C0
ENDCHAR
STARTCHAR 013B
ENCODING 315
SWIDTH 540 0
DWIDTH 9 0
BBX 8 18 1 -5
BITMAP
C0
C0
C0
C0
C0
C0
C0
C0
C0
C0
C0
C0
FF
00
18
18
08
10
ENDCHAR
STARTCHAR 013C
ENCODING 316
SWIDTH 240 0
DWIDTH 4 0
BBX 2 18 1 -5
BITMAP
C0
C0
C0
C0
C0
C0
C0
C0
C0
C0
C0
C0
C0
00
C0
C0
40
80
ENDCHAR
STARTCHAR 013D
ENCODING 317
SWIDTH 540 0
DWIDTH 9 0
BBX 8 13 1 0
BITMAP
C8
C8
C8
C8
C0
C0
C0
C0
C0
C0
C0
C0
FF
ENDCHAR
STARTCHAR 013E
ENCODING 318
SWIDTH 300 0
DWIDTH 5 0
BBX 4 13 1 0
BITMAP
F0
F0
D0
E0
C0
C0
C0
C0
C0
C0
C0
C0
C0
ENDCHAR
STARTCHAR 013F
ENCODING 319
SWIDTH 540 0
DWIDTH 9 0
BBX 8 13 1 0
BITMAP
C0
C0
C0
C0
C0
C0
C4
C4
C0
C0
C0
C0
FF
ENDCHAR
STARTCHAR 0140
ENCODING 320
SWIDTH 360 0
DWIDTH 6 0
BBX 4 13 1 0
BITMAP
C0
C0
C0
C0
C0
C0
D0
D0
C0
C0
C0
C0
C0
ENDCHAR
STARTCHAR 0141
ENCODING 321
SWIDTH 540 0
DWIDTH 9 0
BBX 9 13 0 0
BITMAP
6000
6000
6000
6000
6400
7800
7000
E000
E000
6000
6000
6000
7F80
ENDCHAR
STARTCHAR 0142
ENCODING 322
SWIDTH 240 0
DWIDTH 4 0
BBX 4 13 0 0
BITMAP
40
40
40
40
40
70
60
C0
40
40
40
40
40
ENDCHAR
STARTCHAR 0143
ENCODING 323
SWIDTH 720 0
DWIDTH 12 0
BBX 10 17 1 0
BITMAP
0600
0400
0800
0000
C0C0
E0C0
E0C0
F0C0
D8C0
C8C0
CCC0
C4C0
C6C0
C3C0
C1C0
C1C0
C0C0
ENDCHAR
STARTCHAR 0144
ENCODING 324
SWIDTH 540 0
DWIDTH 9 0
BBX 7 13 1 0
BITMAP
0C
18
10
00
BC
E6
C2
C2
C2
C2
C2
C2
C2
ENDCHAR
STARTCHAR 0145
ENCODING 325
SWIDTH 720 0
DWIDTH 12 0
BBX 10 18 1 -5
BITMAP
C0C0
E0C0
E0C0
F0C0
D8C0
C8C0
CCC0
C4C0
C6C0
C3C0
C1C0
C1C0
C0C0
0000
0C00
0C00
0400
0800
ENDCHAR
STARTCHAR 0146
ENCODING 326
SWIDTH 540 0
DWIDTH 9 0
BBX 7 14 1 -5
BITMAP
BC
E6
C2
C2
C2
C2
C2
C2
C2
00
10
10
10
10
ENDCHAR
STARTCHAR 0147
ENCODING 327
SWIDTH 720 0
DWIDTH 12 0
BBX 10 17 1 0
BITMAP
1200
1E00
0C00
0000
C0C0
E0C0
E0C0
F0C0
D8C0
C8C0
CCC0
C4C0
C6C0
C3C0
C1C0
C1C0
C0C0
ENDCHAR
STARTCHAR 0148
ENCODING 328
SWIDTH 540 0
DWIDTH 9 0
BBX 7 13 1 0
BITMAP
24
28
18
00
BC
E6
C2
C2
C2
C2
C2
C2
C2
ENDCHAR
STARTCHAR 0149
ENCODING 329
SWIDTH 600 0
DWIDTH 10 0
BBX 9 13 0 0
BITMAP
C000
C000
4000
8000
2F00
3980
3180
2080
2080
2080
2080
2080
2080
ENDCHAR
STARTCHAR 014A
ENCODING 330
SWIDTH 720 0
DWIDTH 12 0
BBX 9 18 2 -5
BITMAP
9E00
B700
C100
8180
8180
8180
8180
8180
8180
8180
8180
8180
8180
0180
0180
0180
0300
0700
ENDCHAR
STARTCHAR 014B
ENCODING 331
SWIDTH 540 0
DWIDTH 9 0
BBX 7 13 1 -4
BITMAP
9C
A6
C2
C2
C2
C2
C2
C2
C2
02
02
02
0E
ENDCHAR
STARTCHAR 014C
ENCODING 332
SWIDTH 780 0
DWIDTH 13 0
BBX 11 16 1 0
BITMAP
1F00
0000
0000
1F00
3180
60C0
C060
8020
8020
8020
8020
8020
C060
60C0
31C0
1F00
ENDCHAR
STARTCHAR 014D
ENCODING 333
SWIDTH 540 0
DWIDTH 9 0
BBX 8 12 1 0
BITMAP
7C
00
00
3C
E6
82
82
83
82
82
E6
7C
ENDCHAR
STARTCHAR 014E
ENCODING 334
SWIDTH 780 0
DWIDTH 13 0
BBX 11 16 1 0
BITMAP
1100
0E00
0000
1F00
3180
60C0
C060
8020
8020
8020
8020
8020
C060
60C0
31C0
1F00
ENDCHAR
STARTCHAR 014F
ENCODING 335
SWIDTH 540 0
DWIDTH 9 0
BBX 8 13 1 0
BITMAP
44
6C
38
00
3C
E6
82
82
83
82
82
E6
7C
ENDCHAR
STARTCHAR 0150
ENCODING 336
SWIDTH 780 0
DWIDTH 13 0
BBX 11 16 1 0
BITMAP
0580
0900
0000
1F00
3180
60C0
C060
8020
8020
8020
8020
8020
C060
60C0
31C0
1F00
ENDCHAR
STARTCHAR 0151
ENCODING 337
SWIDTH 540 0
DWIDTH 9 0
BBX 8 13 1 0
BITMAP
12
36
24
00
3C
E6
82
82
83
82
82
E6
7C
ENDCHAR
STARTCHAR 0152
ENCODING 338
SWIDTH 1020 0
DWIDTH 17 0
BBX 15 13 1 0
BITMAP
1EFE
7380
4180
C080
8080
8080
80FE
8080
8080
C080
4180
7380
3EFE
ENDCHAR
STARTCHAR 0153
ENCODING 339
SWIDTH 960 0
DWIDTH 16 0
BBX 14 9 1 0
BITMAP
3CF0
E798
C30C
830C
83FC
8300
C30C
E798
3CF0
ENDCHAR
STARTCHAR 0154
ENCODING 340
SWIDTH 720 0
DWIDTH 12 0
BBX 9 17 2 0
BITMAP
0C00
0800
1000
0000
FE00
8300
8180
8180
8180
8100
FE00
8300
8100
8180
8180
8180
8180
ENDCHAR
STARTCHAR 0155
ENCODING 341
SWIDTH 360 0
DWIDTH 6 0
BBX 4 13 1 0
BITMAP
30
20
40
00
90
A0
C0
C0
C0
C0
C0
C0
C0
ENDCHAR
STARTCHAR 0156
ENCODING 342
SWIDTH 720 0
DWIDTH 12 0
BBX 9 18 2 -5
BITMAP
FE00
8300
8180
8180
8180
8100
FE00
8300
8100
8180
8180
8180
8180
0000
1800
1800
0800
1000
ENDCHAR
STARTCHAR 0157
ENCODING 343
SWIDTH 360 0
DWIDTH 6 0
BBX 4 14 1 -5
BITMAP
90
A0
C0
C0
C0
C0
C0
C0
C0
00
C0
C0
40
80
ENDCHAR
STARTCHAR 0158
ENCODING 344
SWIDTH 720 0
DWIDTH 12 0
BBX 9 17 2 0
BITMAP
2400
2C00
1800
0000
FE00
8300
8180
8180
8180
8100
FE00
8300
8100
8180
8180
8180
8180
ENDCHAR
STARTCHAR 0159
ENCODING 345
SWIDTH 360 0
DWIDTH 6 0
BBX 4 13 1 0
BITMAP
90
70
60
00
90
A0
C0
C0
C0
C0
C0
C0
C0
ENDCHAR
STARTCHAR 015A
ENCODING 346
SWIDTH 660 0
DWIDTH 11 0
BBX 9 16 1 0
BITMAP
0400
0800
0000
3E00
6300
C180
C180
C000
7800
3F00
0380
0080
8080
C180
6380
3E00
ENDCHAR
STARTCHAR 015B
ENCODING 347
SWIDTH 480 0
DWIDTH 8 0
BBX 7 13 1 0
BITMAP
18
10
20
00
78
CC
84
C0
7C
04
86
CC
78
ENDCHAR
STARTCHAR 015C
ENCODING 348
SWIDTH 660 0
DWIDTH 11 0
BBX 9 16 1 0
BITMAP
1C00
1400
0000
3E00
6300
C180
C180
C000
7800
3F00
0380
0080
8080
C180
6380
3E00
ENDCHAR
STARTCHAR 015D
ENCODING 349
SWIDTH 480 0
DWIDTH 8 0
BBX 7 13 1 0
BITMAP
30
38
48
00
78
CC
84
C0
7C
04
86
CC
78
ENDCHAR
STARTCHAR 015E
ENCODING 350
SWIDTH 660 0
DWIDTH 11 0
BBX 9 17 1 -4
BITMAP
3E00
6300
C180
C180
C000
7000
3E00
0780
0180
8080
C080
6180
7F00
0800
1C00
2400
1800
ENDCHAR
STARTCHAR 015F
ENCODING 351
SWIDTH 480 0
DWIDTH 8 0
BBX 7 13 1 -4
BITMAP
78
CC
84
C0
78
0C
86
84
FC
20
18
18
70
ENDCHAR
STARTCHAR 0160
ENCODING 352
SWIDTH 660 0
DWIDTH 11 0
BBX 9 16 1 0
BITMAP
1400
1C00
0000
3E00
6300
C180
C180
C000
7800
3F00
0380
0080
8080
C180
6380
3E00
ENDCHAR
STARTCHAR 0161
ENCODING 353
SWIDTH 480 0
DWIDTH 8 0
BBX 7 13 1 0
BITMAP
48
38
30
00
78
CC
84
C0
7C
04
86
CC
78
ENDCHAR
STARTCHAR 0162
ENCODING 354
SWIDTH 600 0
DWIDTH 10 0
BBX 10 17 0 -4
BITMAP
FFC0
0C00
0C00
0C00
0C00
0C00
0C00
0C00
0C00
0C00
0C00
0C00
0C00
0400
0E00
1200
0C00
ENDCHAR
STARTCHAR 0163
ENCODING 355
SWIDTH 300 0
DWIDTH 5 0
BBX 4 14 0 -3
BITMAP
60
60
F0
60
60
60
60
60
60
60
30
20
10
F0
ENDCHAR
STARTCHAR 0164
ENCODING 356
SWIDTH 600 0
DWIDTH 10 0
BBX 10 17 0 0
BITMAP
1300
1A00
0C00
0000
FFC0
0C00
0C00
0C00
0C00
0C00
0C00
0C00
0C00
0C00
0C00
0C00
0C00
ENDCHAR
STARTCHAR 0165
ENCODING 357
SWIDTH 300 0
DWIDTH 5 0
BBX 5 14 0 0
BITMAP
08
08
08
68
60
F0
60
60
60
60
60
60
60
30
ENDCHAR
STARTCHAR 0166
ENCODING 358
SWIDTH 600 0
DWIDTH 10 0
BBX 10 13 0 0
BITMAP
FFC0
0C00
0C00
0C00
0C00
3F80
0C00
0C00
0C00
0C00
0C00
0C00
0C00
ENDCHAR
STARTCHAR 0167
ENCODING 359
SWIDTH 300 0
DWIDTH 5 0
BBX 4 11 0 0
BITMAP
60
60
F0
60
F0
60
60
60
60
60
30
ENDCHAR
STARTCHAR 0168
ENCODING 360
SWIDTH 720 0
DWIDTH 12 0
BBX 10 16 1 0
BITMAP
1A00
2600
0000
C0C0
C0C0
C0C0
C0C0
C0C0
C0C0
C0C0
C0C0
C0C0
C0C0
4080
7380
1F00
ENDCHAR
STARTCHAR 0169
ENCODING 361
SWIDTH 540 0
DWIDTH 9 0
BBX 7 12 1 0
BITMAP
64
5C
00
82
82
82
82
82
82
86
CE
7A
ENDCHAR
STARTCHAR 016A
ENCODING 362
SWIDTH 720 0
DWIDTH 12 0
BBX 10 16 1 0
BITMAP
1E00
0000
0000
C0C0
C0C0
C0C0
C0C0
C0C0
C0C0
C0C0
C0C0
C0C0
C0C0
4080
7380
1F00
ENDCHAR
STARTCHAR 016B
ENCODING 363
SWIDTH 540 0
DWIDTH 9 0
BBX 7 12 1 0
BITMAP
7C
00
00
82
82
82
82
82
82
86
CE
7A
ENDCHAR
STARTCHAR 016C
ENCODING 364
SWIDTH 720 0
DWIDTH 12 0
BBX 10 16 1 0
BITMAP
1200
1E00
0000
C0C0
C0C0
C0C0
C0C0
C0C0
C0C0
C0C0
C0C0
C0C0
C0C0
4080
7380
1F00
ENDCHAR
STARTCHAR 016D
ENCODING 365
SWIDTH 540 0
DWIDTH 9 0
BBX 7 13 1 0
BITMAP
44
3C
00
00
82
82
82
82
82
82
86
CE
7A
ENDCHAR
STARTCHAR 016E
ENCODING 366
SWIDTH 720 0
DWIDTH 12 0
BBX 10 17 1 0
BITMAP
0C00
1200
0C00
0000
C0C0
C0C0
C0C0
C0C0
C0C0
C0C0
C0C0
C0C0
C0C0
C0C0
4080
7380
1F00
ENDCHAR
STARTCHAR 016F
ENCODING 367
SWIDTH 540 0
DWIDTH 9 0
BBX 7 13 1 0
BITMAP
10
28
38
00
82
82
82
82
82
82
86
CE
7A
ENDCHAR
STARTCHAR 0170
ENCODING 368
SWIDTH 720 0
DWIDTH 12 0
BBX 10 17 1 0
BITMAP
0D80
0900
1200
0000
C0C0
C0C0
C0C0
C0C0
C0C0
C0C0
C0C0
C0C0
C0C0
C0C0
4080
7380
1F00
ENDCHAR
STARTCHAR 0171
ENCODING 369
SWIDTH 540 0
DWIDTH 9 0
BBX 7 13 1 0
BITMAP
12
34
28
00
82
82
82
82
82
82
86
CE
7A
ENDCHAR
STARTCHAR 0172
ENCODING 370
SWIDTH 720 0
DWIDTH 12 0
BBX 10 16 1 -3
BITMAP
C0C0
C0C0
C0C0
C0C0
C0C0
C0C0
C0C0
C0C0
C0C0
C0C0
40C0
7380
1F00
0200
0200
0380
ENDCHAR
STARTCHAR 0173
ENCODING 371
SWIDTH 540 0
DWIDTH 9 0
BBX 8 12 1 -3
BITMAP
82
82
82
82
82
82
86
CE
7A
04
04
07
ENDCHAR
STARTCHAR 0174
ENCODING 372
SWIDTH 960 0
DWIDTH 16 0
BBX 15 17 0 0
BITMAP
0180
0380
0240
0000
C182
4186
6386
63C6
62C4
2244
264C
366C
3428
1428
1C28
1C38
1818
ENDCHAR
STARTCHAR 0175
ENCODING 373
SWIDTH 720 0
DWIDTH 12 0
BBX 12 13 0 0
BITMAP
0600
0F00
0900
0000
C630
4620
4E20
6F60
6960
2940
2940
39C0
3080
ENDCHAR
STARTCHAR 0176
ENCODING 374
SWIDTH 660 0
DWIDTH 11 0
BBX 11 17 0 0
BITMAP
0600
0E00
0900
0000
C060
60C0
30C0
3180
1900
1B00
0E00
0600
0400
0400
0400
0400
0400
ENDCHAR
STARTCHAR 0177
ENCODING 375
SWIDTH 480 0
DWIDTH 8 0
BBX 8 16 0 -3
BITMAP
18
14
24
00
C3
42
62
26
24
34
1C
18
18
10
10
70
ENDCHAR
STARTCHAR 0178
ENCODING 376
SWIDTH 660 0
DWIDTH 11 0
BBX 11 16 0 0
BITMAP
1B00
1B00
0000
C060
60C0
30C0
3180
1900
1B00
0E00
0600
0400
0400
0400
0400
0400
ENDCHAR
STARTCHAR 0179
ENCODING 377
SWIDTH 600 0
DWIDTH 10 0
BBX 10 17 0 0
BITMAP
0300
0600
0C00
0000
7FC0
00C0
0180
0300
0200
0600
0C00
1800
1800
3000
6000
6000
FFC0
ENDCHAR
STARTCHAR 017A
ENCODING 378
SWIDTH 480 0
DWIDTH 8 0
BBX 7 13 1 0
BITMAP
18
10
20
00
FC
04
08
18
30
60
40
80
FE
ENDCHAR
STARTCHAR 017B
ENCODING 379
SWIDTH 600 0
DWIDTH 10 0
BBX 10 16 0 0
BITMAP
0C00
0C00
0000
7FC0
00C0
0180
0300
0200
0600
0C00
1800
1800
3000
6000
6000
FFC0
ENDCHAR
STARTCHAR 017C
ENCODING 380
SWIDTH 480 0
DWIDTH 8 0
BBX 7 12 1 0
BITMAP
30
30
00
FC
04
08
18
30
60
40
80
FE
ENDCHAR
STARTCHAR 017D
ENCODING 381
SWIDTH 600 0
DWIDTH 10 0
BBX 10 17 0 0
BITMAP
1100
0A00
0C00
0000
7FC0
00C0
0180
0300
0200
0600
0C00
1800
1800
3000
6000
6000
FFC0
ENDCHAR
STARTCHAR 017E
ENCODING 382
SWIDTH 480 0
DWIDTH 8 0
BBX 7 13 1 0
BITMAP
48
38
30
00
FC
04
08
18
30
60
40
80
FE
ENDCHAR
STARTCHAR 017F
ENCODING 383
SWIDTH 240 0
DWIDTH 4 0
BBX 4 13 0 0
BITMAP
30
60
40
40
C0
40
40
40
40
40
40
40
40
ENDCHAR
STARTCHAR 0192
ENCODING 402
SWIDTH 540 0
DWIDTH 9 0
BBX 9 16 0 -3
BITMAP
0380
0680
0400
0400
0C00
3F00
0C00
0800
0800
0800
1800
1800
1000
1000
3000
E000
ENDCHAR
STARTCHAR 01FA
ENCODING 506
SWIDTH 660 0
DWIDTH 11 0
BBX 11 19 0 0
BITMAP
0C00
0800
1400
0A00
0E00
0000
0E00
0E00
0A00
1B00
1B00
1100
3180
3180
3F80
60C0
60C0
4040
C060
ENDCHAR
STARTCHAR 01FB
ENCODING 507
SWIDTH 540 0
DWIDTH 9 0
BBX 8 15 1 0
BITMAP
30
20
10
28
18
00
7C
C6
C6
06
7E
C6
86
CE
73
ENDCHAR
STARTCHAR 01FC
ENCODING 508
SWIDTH 1020 0
DWIDTH 17 0
BBX 16 17 0 0
BITMAP
0030
0020
0040
0000
07FF
0480
0C80
0880
1880
1880
10FE
3080
3F80
2080
6080
4080
C0FF
ENDCHAR
STARTCHAR 01FD
ENCODING 509
SWIDTH 900 0
DWIDTH 15 0
BBX 13 13 1 0
BITMAP
0300
0200
0600
0000
79E0
C730
8618
0608
7FF8
C600
8618
CF30
71E0
ENDCHAR
STARTCHAR 01FE
ENCODING 510
SWIDTH 780 0
DWIDTH 13 0
BBX 11 16 1 0
BITMAP
0600
0C00
0000
1F20
71C0
60C0
C1E0
8360
8220
8420
8820
9060
E060
60C0
F180
9F00
ENDCHAR
STARTCHAR 01FF
ENCODING 511
SWIDTH 600 0
DWIDTH 10 0
BBX 9 13 0 0
BITMAP
0600
0C00
1800
0000
1E80
7300
4300
4500
4980
5100
6100
7300
9E00
ENDCHAR
STARTCHAR 0218
ENCODING 536
SWIDTH 660 0
DWIDTH 11 0
BBX 9 18 1 -5
BITMAP
3E00
6300
C180
C180
C000
7800
3F00
0380
0080
8080
C180
6380
3E00
0000
0C00
0C00
0800
0800
ENDCHAR
STARTCHAR 0219
ENCODING 537
SWIDTH 480 0
DWIDTH 8 0
BBX 7 14 1 -5
BITMAP
78
CC
84
C0
7C
04
86
CC
78
00
30
30
10
20
ENDCHAR
STARTCHAR 021A
ENCODING 538
SWIDTH 600 0
DWIDTH 10 0
BBX 10 18 0 -5
BITMAP
FFC0
0C00
0C00
0C00
0C00
0C00
0C00
0C00
0C00
0C00
0C00
0C00
0C00
0000
0C00
0C00
0400
0800
ENDCHAR
STARTCHAR 021B
ENCODING 539
SWIDTH 300 0
DWIDTH 5 0
BBX 4 16 0 -5
BITMAP
60
60
F0
60
60
60
60
60
60
60
30
00
30
30
20
20
ENDCHAR
STARTCHAR 02C6
ENCODING 710
SWIDTH 360 0
DWIDTH 6 0
BBX 5 3 0 10
BITMAP
30
50
88
ENDCHAR
STARTCHAR 02C7
ENCODING 711
SWIDTH 360 0
DWIDTH 6 0
BBX 4 3 1 10
BITMAP
90
E0
60
ENDCHAR
STARTCHAR 02C9
ENCODING 713
SWIDTH 360 0
DWIDTH 6 0
BBX 5 1 0 11
BITMAP
F8
ENDCHAR
STARTCHAR 02D8
ENCODING 728
SWIDTH 360 0
DWIDTH 6 0
BBX 5 2 0 11
BITMAP
88
78
ENDCHAR
STARTCHAR 02D9
ENCODING 729
SWIDTH 360 0
DWIDTH 6 0
BBX 2 2 2 10
BITMAP
C0
C0
ENDCHAR
STARTCHAR 02DA
ENCODING 730
SWIDTH 360 0
DWIDTH 6 0
BBX 3 3 1 10
BITMAP
60
A0
60
ENDCHAR
STARTCHAR 02DB
ENCODING 731
SWIDTH 360 0
DWIDTH 6 0
BBX 3 4 1 -4
BITMAP
40
80
80
60
ENDCHAR
STARTCHAR 02DC
ENCODING 732
SWIDTH 360 0
DWIDTH 6 0
BBX 5 2 0 10
BITMAP
68
98
ENDCHAR
STARTCHAR 02DD
ENCODING 733
SWIDTH 360 0
DWIDTH 6 0
BBX 6 3 -1 10
BITMAP
24
48
90
ENDCHAR
STARTCHAR 0384
ENCODING 900
SWIDTH 360 0
DWIDTH 6 0
BBX 1 3 2 10
BITMAP
80
80
80
ENDCHAR
STARTCHAR 0385
ENCODING 901
SWIDTH 360 0
DWIDTH 6 0
BBX 4 5 1 10
BITMAP
40
40
40
F0
B0
ENDCHAR
STARTCHAR 0386
ENCODING 902
SWIDTH 660 0
DWIDTH 11 0
BBX 11 13 0 0
BITMAP
4E00
4E00
4A00
1B00
1B00
1100
3180
3180
3F80
60C0
60C0
4040
C060
ENDCHAR
STARTCHAR 0387
ENCODING 903
SWIDTH 300 0
DWIDTH 5 0
BBX 2 2 2 4
BITMAP
C0
C0
ENDCHAR
STARTCHAR 0388
ENCODING 904
SWIDTH 780 0
DWIDTH 13 0
BBX 11 13 0 0
BITMAP
DFE0
D000
5000
1000
1000
1000
1FE0
1000
1000
1000
1000
1000
1FE0
ENDCHAR
STARTCHAR 0389
ENCODING 905
SWIDTH 840 0
DWIDTH 14 0
BBX 12 13 0 0
BITMAP
D030
D030
9030
1030
1030
1030
1FF0
1030
1030
1030
1030
1030
1030
ENDCHAR
STARTCHAR 038A
ENCODING 906
SWIDTH 360 0
DWIDTH 6 0
BBX 4 13 0 0
BITMAP
D0
D0
50
10
10
10
10
10
10
10
10
10
10
ENDCHAR
STARTCHAR 038C
ENCODING 908
SWIDTH 780 0
DWIDTH 13 0
BBX 12 13 0 0
BITMAP
8F80
B8C0
B060
6030
4030
4010
4010
4010
4030
6030
3060
38C0
0F80
ENDCHAR
STARTCHAR 038E
ENCODING 910
SWIDTH 840 0
DWIDTH 14 0
BBX 12 13 1 0
BITMAP
B030
B020
9860
18C0
0CC0
0580
0700
0300
0300
0300
0300
0300
0300
ENDCHAR
STARTCHAR 038F
ENCODING 911
SWIDTH 780 0
DWIDTH 13 0
BBX 12 13 0 0
BITMAP
8F80
B9C0
A060
6020
4030
4030
4030
4030
6020
2060
3040
1980
F9F0
ENDCHAR
STARTCHAR 0390
ENCODING 912
SWIDTH 240 0
DWIDTH 4 0
BBX 4 15 0 0
BITMAP
60
60
40
90
90
00
60
60
60
60
60
60
60
60
60
ENDCHAR
STARTCHAR 0391
ENCODING 913
SWIDTH 660 0
DWIDTH 11 0
BBX 11 13 0 0
BITMAP
0E00
0E00
0A00
1B00
1B00
1100
3180
3180
3F80
60C0
60C0
4040
C060
ENDCHAR
STARTCHAR 0392
ENCODING 914
SWIDTH 660 0
DWIDTH 11 0
BBX 9 13 1 0
BITMAP
FE00
C300
C180
C180
C180
C300
FF00
C180
C080
C080
C080
C180
FF00
ENDCHAR
STARTCHAR 0393
ENCODING 915
SWIDTH 540 0
DWIDTH 9 0
BBX 8 13 1 0
BITMAP
FF
C0
C0
C0
C0
C0
C0
C0
C0
C0
C0
C0
C0
ENDCHAR
STARTCHAR 0394
ENCODING 916
SWIDTH 660 0
DWIDTH 11 0
BBX 11 13 0 0
BITMAP
0600
0E00
0A00
1B00
1B00
1100
3180
3080
60C0
60C0
4040
C060
FFE0
ENDCHAR
STARTCHAR 0395
ENCODING 917
SWIDTH 660 0
DWIDTH 11 0
BBX 8 13 2 0
BITMAP
FF
80
80
80
80
80
FF
80
80
80
80
80
FF
ENDCHAR
STARTCHAR 0396
ENCODING 918
SWIDTH 600 0
DWIDTH 10 0
BBX 10 13 0 0
BITMAP
7FC0
00C0
0180
0300
0200
0600
0C00
1800
1800
3000
6000
6000
FFC0
ENDCHAR
STARTCHAR 0397
ENCODING 919
SWIDTH 720 0
DWIDTH 12 0
BBX 10 13 1 0
BITMAP
C0C0
C0C0
C0C0
C0C0
C0C0
C0C0
FFC0
C0C0
C0C0
C0C0
C0C0
C0C0
C0C0
ENDCHAR
STARTCHAR 0398
ENCODING 920
SWIDTH 780 0
DWIDTH 13 0
BBX 11 13 1 0
BITMAP
1F00
7180
60C0
C060
8020
8020
9F20
8020
8020
C060
60C0
3180
1F00
ENDCHAR
STARTCHAR 0399
ENCODING 921
SWIDTH 300 0
DWIDTH 5 0
BBX 1 13 2 0
BITMAP
80
80
80
80
80
80
80
80
80
80
80
80
80
ENDCHAR
STARTCHAR 039A
ENCODING 922
SWIDTH 660 0
DWIDTH 11 0
BBX 10 13 1 0
BITMAP
C180
C180
C300
C600
CC00
D800
FC00
E400
C600
C300
C100
C180
C0C0
ENDCHAR
STARTCHAR 039B
ENCODING 923
SWIDTH 660 0
DWIDTH 11 0
BBX 11 13 0 0
BITMAP
0E00
0E00
0A00
1B00
1B00
1100
3180
3180
2080
60C0
60C0
4040
C060
ENDCHAR
STARTCHAR 039C
ENCODING 924
SWIDTH 840 0
DWIDTH 14 0
BBX 12 13 1 0
BITMAP
E070
E070
E070
F0F0
F0B0
D0B0
D0B0
D9B0
C930
C930
CF30
C630
C630
ENDCHAR
STARTCHAR 039D
ENCODING 925
SWIDTH 720 0
DWIDTH 12 0
BBX 10 13 1 0
BITMAP
C0C0
E0C0
E0C0
F0C0
D8C0
C8C0
CCC0
C4C0
C6C0
C3C0
C1C0
C1C0
C0C0
ENDCHAR
STARTCHAR 039E
ENCODING 926
SWIDTH 660 0
DWIDTH 11 0
BBX 9 13 1 0
BITMAP
FF80
0000
0000
0000
0000
0000
7F00
0000
0000
0000
0000
0000
FF80
ENDCHAR
STARTCHAR 039F
ENCODING 927
SWIDTH 780 0
DWIDTH 13 0
BBX 11 13 1 0
BITMAP
1F00
3180
60C0
C060
8020
8020
8020
8020
8020
C060
60C0
31C0
1F00
ENDCHAR
STARTCHAR 03A0
ENCODING 928
SWIDTH 720 0
DWIDTH 12 0
BBX 10 13 1 0
BITMAP
FFC0
C0C0
C0C0
C0C0
C0C0
C0C0
C0C0
C0C0
C0C0
C0C0
C0C0
C0C0
C0C0
ENDCHAR
STARTCHAR 03A1
ENCODING 929
SWIDTH 660 0
DWIDTH 11 0
BBX 8 13 2 0
BITMAP
FE
87
83
81
81
83
FE
80
80
80
80
80
80
ENDCHAR
STARTCHAR 03A3
ENCODING 931
SWIDTH 600 0
DWIDTH 10 0
BBX 9 13 1 0
BITMAP
FF00
C000
6000
3000
1800
0C00
0C00
1800
1800
3000
6000
C000
FF80
ENDCHAR
STARTCHAR 03A4
ENCODING 932
SWIDTH 600 0
DWIDTH 10 0
BBX 10 13 0 0
BITMAP
FFC0
0C00
0C00
0C00
0C00
0C00
0C00
0C00
0C00
0C00
0C00
0C00
0C00
ENDCHAR
STARTCHAR 03A5
ENCODING 933
SWIDTH 660 0
DWIDTH 11 0
BBX 11 13 0 0
BITMAP
C060
60C0
30C0
3180
1900
1B00
0E00
0600
0400
0400
0400
0400
0400
ENDCHAR
STARTCHAR 03A6
ENCODING 934
SWIDTH 780 0
DWIDTH 13 0
BBX 11 13 1 0
BITMAP
0400
0400
3F80
64C0
4460
C460
C460
C460
4460
64C0
3F80
0400
0400
ENDCHAR
STARTCHAR 03A7
ENCODING 935
SWIDTH 660 0
DWIDTH 11 0
BBX 9 13 1 0
BITMAP
C180
4180
6300
3200
3600
1C00
0C00
1C00
3600
2300
6300
C180
C080
ENDCHAR
STARTCHAR 03A8
ENCODING 936
SWIDTH 840 0
DWIDTH 14 0
BBX 12 13 1 0
BITMAP
C630
C630
C630
C630
C630
C630
C630
C620
6660
3FC0
0F00
0600
0600
ENDCHAR
STARTCHAR 03A9
ENCODING 937
SWIDTH 720 0
DWIDTH 12 0
BBX 12 13 0 0
BITMAP
0F80
39C0
2060
6020
4030
4030
4030
4030
6020
2060
3040
1980
F9F0
ENDCHAR
STARTCHAR 03AA
ENCODING 938
SWIDTH 300 0
DWIDTH 5 0
BBX 5 16 0 0
BITMAP
D8
D8
00
20
20
20
20
20
20
20
20
20
20
20
20
20
ENDCHAR
STARTCHAR 03AB
ENCODING 939
SWIDTH 660 0
DWIDTH 11 0
BBX 11 16 0 0
BITMAP
1B00
1B00
0000
C060
60C0
30C0
3180
1900
1B00
0E00
0600
0400
0400
0400
0400
0400
ENDCHAR
STARTCHAR 03AC
ENCODING 940
SWIDTH 600 0
DWIDTH 10 0
BBX 10 13 0 0
BITMAP
1800
1800
1000
0000
3CC0
6680
C380
C300
C100
C380
C280
6680
3CC0
ENDCHAR
STARTCHAR 03AD
ENCODING 941
SWIDTH 420 0
DWIDTH 7 0
BBX 7 13 0 0
BITMAP
10
10
10
00
3C
66
42
60
78
C0
C2
66
3C
ENDCHAR
STARTCHAR 03AE
ENCODING 942
SWIDTH 540 0
DWIDTH 9 0
BBX 7 17 1 -4
BITMAP
18
18
10
00
BC
E6
C2
C2
C2
C2
C2
C2
C2
02
02
02
02
ENDCHAR
STARTCHAR 03AF
ENCODING 943
SWIDTH 240 0
DWIDTH 4 0
BBX 2 13 1 0
BITMAP
C0
80
80
00
C0
C0
C0
C0
C0
C0
C0
C0
C0
ENDCHAR
STARTCHAR 03B0
ENCODING 944
SWIDTH 540 0
DWIDTH 9 0
BBX 7 15 1 0
BITMAP
10
10
10
7C
6C
00
82
82
82
82
82
82
C2
C6
7C
ENDCHAR
STARTCHAR 03B1
ENCODING 945
SWIDTH 600 0
DWIDTH 10 0
BBX 9 9 1 0
BITMAP
7980
CD00
8700
8700
8200
8700
8500
CD00
7980
ENDCHAR
STARTCHAR 03B2
ENCODING 946
SWIDTH 600 0
DWIDTH 10 0
BBX 8 16 1 -3
BITMAP
3C
66
C2
C2
C6
DC
C6
C3
C3
C3
C3
E6
FC
C0
C0
C0
ENDCHAR
STARTCHAR 03B3
ENCODING 947
SWIDTH 480 0
DWIDTH 8 0
BBX 8 12 0 -3
BITMAP
C3
43
62
26
24
34
1C
18
08
08
08
08
ENDCHAR
STARTCHAR 03B4
ENCODING 948
SWIDTH 540 0
DWIDTH 9 0
BBX 8 13 1 0
BITMAP
7E
60
30
38
7C
C6
82
83
83
82
C2
66
3C
ENDCHAR
STARTCHAR 03B5
ENCODING 949
SWIDTH 420 0
DWIDTH 7 0
BBX 7 9 0 0
BITMAP
3C
66
42
60
78
C0
C2
66
3C
ENDCHAR
STARTCHAR 03B6
ENCODING 950
SWIDTH 420 0
DWIDTH 7 0
BBX 7 16 1 -3
BITMAP
FC
0C
10
20
60
C0
80
80
80
80
C0
7C
06
04
04
0C
ENDCHAR
STARTCHAR 03B7
ENCODING 951
SWIDTH 540 0
DWIDTH 9 0
BBX 7 13 1 -4
BITMAP
BC
E6
C2
C2
C2
C2
C2
C2
C2
02
02
02
02
ENDCHAR
STARTCHAR 03B8
ENCODING 952
SWIDTH 540 0
DWIDTH 9 0
BBX 7 13 1 0
BITMAP
3C
66
C2
82
82
82
FE
82
82
82
C2
66
3C
ENDCHAR
STARTCHAR 03B9
ENCODING 953
SWIDTH 240 0
DWIDTH 4 0
BBX 2 9 1 0
BITMAP
C0
C0
C0
C0
C0
C0
C0
C0
C0
ENDCHAR
STARTCHAR 03BA
ENCODING 954
SWIDTH 480 0
DWIDTH 8 0
BBX 7 9 1 0
BITMAP
84
88
90
B0
D8
88
8C
84
86
ENDCHAR
STARTCHAR 03BB
ENCODING 955
SWIDTH 480 0
DWIDTH 8 0
BBX 7 13 1 0
BITMAP
60
20
20
30
30
30
38
68
48
4C
C4
84
86
ENDCHAR
STARTCHAR 03BC
ENCODING 956
SWIDTH 600 0
DWIDTH 10 0
BBX 7 12 1 -3
BITMAP
C2
C2
C2
C2
C2
C2
C2
C6
F8
C0
C0
C0
ENDCHAR
STARTCHAR 03BD
ENCODING 957
SWIDTH 480 0
DWIDTH 8 0
BBX 8 9 0 0
BITMAP
C3
43
62
66
24
34
3C
18
18
ENDCHAR
STARTCHAR 03BE
ENCODING 958
SWIDTH 420 0
DWIDTH 7 0
BBX 7 16 1 -3
BITMAP
FC
60
C0
C0
C0
60
3C
C0
80
80
80
F0
3E
06
06
04
ENDCHAR
STARTCHAR 03BF
ENCODING 959
SWIDTH 540 0
DWIDTH 9 0
BBX 8 9 1 0
BITMAP
3C
E6
C2
83
83
83
C2
E6
3C
ENDCHAR
STARTCHAR 03C0
ENCODING 960
SWIDTH 720 0
DWIDTH 12 0
BBX 9 9 1 0
BITMAP
FF80
6100
6100
6100
6100
6100
6100
6100
6100
ENDCHAR
STARTCHAR 03C1
ENCODING 961
SWIDTH 540 0
DWIDTH 9 0
BBX 8 12 1 -3
BITMAP
3C
66
C2
83
83
83
C2
E6
BC
80
80
80
ENDCHAR
STARTCHAR 03C2
ENCODING 962
SWIDTH 480 0
DWIDTH 8 0
BBX 8 13 0 -4
BITMAP
3C
67
43
C0
C0
40
60
38
1E
03
03
02
02
ENDCHAR
STARTCHAR 03C3
ENCODING 963
SWIDTH 600 0
DWIDTH 10 0
BBX 9 9 1 0
BITMAP
3F80
6600
C300
C300
8300
C300
C300
6600
3C00
ENDCHAR
STARTCHAR 03C4
ENCODING 964
SWIDTH 420 0
DWIDTH 7 0
BBX 7 9 0 0
BITMAP
FE
10
10
10
10
10
10
10
10
ENDCHAR
STARTCHAR 03C5
ENCODING 965
SWIDTH 540 0
DWIDTH 9 0
BBX 7 9 1 0
BITMAP
82
82
82
82
82
82
C2
C6
7C
ENDCHAR
STARTCHAR 03C6
ENCODING 966
SWIDTH 660 0
DWIDTH 11 0
BBX 9 13 1 -4
BITMAP
0E00
4B00
C980
8980
8880
8880
8980
C900
7E00
0800
0800
0800
0800
ENDCHAR
STARTCHAR 03C7
ENCODING 967
SWIDTH 540 0
DWIDTH 9 0
BBX 7 12 1 -3
BITMAP
86
C4
4C
68
38
30
30
38
68
4C
C4
86
ENDCHAR
STARTCHAR 03C8
ENCODING 968
SWIDTH 720 0
DWIDTH 12 0
BBX 9 13 2 -4
BITMAP
9980
9980
9980
9980
9980
9980
9980
DB00
7E00
1800
1800
1800
1800
ENDCHAR
STARTCHAR 03C9
ENCODING 969
SWIDTH 780 0
DWIDTH 13 0
BBX 11 9 1 0
BITMAP
2080
60C0
4440
4440
C460
C460
4440
6EC0
3B80
ENDCHAR
STARTCHAR 03CA
ENCODING 970
SWIDTH 240 0
DWIDTH 4 0
BBX 4 12 0 0
BITMAP
B0
B0
00
60
60
60
60
60
60
60
60
60
ENDCHAR
STARTCHAR 03CB
ENCODING 971
SWIDTH 540 0
DWIDTH 9 0
BBX 7 12 1 0
BITMAP
6C
6C
00
82
82
82
82
82
82
C2
C6
7C
ENDCHAR
STARTCHAR 03CC
ENCODING 972
SWIDTH 540 0
DWIDTH 9 0
BBX 8 13 1 0
BITMAP
10
10
10
00
3C
E6
C2
83
83
83
C2
E6
3C
ENDCHAR
STARTCHAR 03CD
ENCODING 973
SWIDTH 540 0
DWIDTH 9 0
BBX 7 13 1 0
BITMAP
10
10
10
00
82
82
82
82
82
82
C2
C6
7C
ENDCHAR
STARTCHAR 03CE
ENCODING 974
SWIDTH 780 0
DWIDTH 13 0
BBX 11 13 1 0
BITMAP
0400
0400
0400
0000
2080
60C0
4440
4440
C460
C460
4440
6EC0
3B80
ENDCHAR
STARTCHAR 03D1
ENCODING 977
SWIDTH 540 0
DWIDTH 9 0
BBX 9 13 0 0
BITMAP
1C00
2600
6300
6100
2100
3100
1F80
0100
C100
4100
4300
6600
3C00
ENDCHAR
STARTCHAR 03D5
ENCODING 981
SWIDTH 540 0
DWIDTH 9 0
BBX 9 15 0 -4
BITMAP
0800
0800
3E00
6B00
4980
C880
C880
C880
C980
6900
3F00
0800
0800
0800
0800
ENDCHAR
STARTCHAR 03D6
ENCODING 982
SWIDTH 780 0
DWIDTH 13 0
BBX 11 9 1 0
BITMAP
FF00
6180
40C0
C040
C460
C460
4440
6EC0
3B80
ENDCHAR
STARTCHAR 0400
ENCODING 1024
SWIDTH 660 0
DWIDTH 11 0
BBX 8 17 2 0
BITMAP
30
10
08
00
FF
80
80
80
80
80
FF
80
80
80
80
80
FF
ENDCHAR
STARTCHAR 0401
ENCODING 1025
SWIDTH 660 0
DWIDTH 11 0
BBX 9 16 1 0
BITMAP
3600
3600
0000
FF80
C000
C000
C000
C000
C000
FF80
C000
C000
C000
C000
C000
FF80
ENDCHAR
STARTCHAR 0402
ENCODING 1026
SWIDTH 840 0
DWIDTH 14 0
BBX 13 13 0 0
BITMAP
FF80
0C00
0C00
0C00
0DF0
0F38
0C18
0C18
0C18
0C18
0C18
0C18
0CF0
ENDCHAR
STARTCHAR 0403
ENCODING 1027
SWIDTH 540 0
DWIDTH 9 0
BBX 8 17 1 0
BITMAP
0C
18
10
00
FF
C0
C0
C0
C0
C0
C0
C0
C0
C0
C0
C0
C0
ENDCHAR
STARTCHAR 0404
ENCODING 1028
SWIDTH 720 0
DWIDTH 12 0
BBX 12 13 0 0
BITMAP
0F80
39C0
6060
4020
C000
C000
FE00
C000
C030
6020
6060
39C0
0F80
ENDCHAR
STARTCHAR 0405
ENCODING 1029
SWIDTH 660 0
DWIDTH 11 0
BBX 9 13 1 0
BITMAP
3E00
6300
C180
C180
C000
7800
3F00
0380
0080
8080
C180
6380
3E00
ENDCHAR
STARTCHAR 0406
ENCODING 1030
SWIDTH 300 0
DWIDTH 5 0
BBX 1 13 2 0
BITMAP
80
80
80
80
80
80
80
80
80
80
80
80
80
ENDCHAR
STARTCHAR 0407
ENCODING 1031
SWIDTH 300 0
DWIDTH 5 0
BBX 5 16 0 0
BITMAP
D8
D8
00
20
20
20
20
20
20
20
20
20
20
20
20
20
ENDCHAR
STARTCHAR 0408
ENCODING 1032
SWIDTH 480 0
DWIDTH 8 0
BBX 7 13 0 0
BITMAP
06
06
06
06
06
06
06
06
06
C6
C6
6E
3C
ENDCHAR
STARTCHAR 0409
ENCODING 1033
SWIDTH 1080 0
DWIDTH 18 0
BBX 17 13 0 0
BITMAP
3FC000
304000
304000
304000
304000
304000
307F00
304180
304080
304080
304180
604380
C07F00
ENDCHAR
STARTCHAR 040A
ENCODING 1034
SWIDTH 1020 0
DWIDTH 17 0
BBX 15 13 1 0
BITMAP
8300
8300
8300
8300
8300
8300
FFFC
C306
C302
C302
C302
C30E
C3FC
ENDCHAR
STARTCHAR 040B
ENCODING 1035
SWIDTH 840 0
DWIDTH 14 0
BBX 12 13 0 0
BITMAP
FF80
0C00
0C00
0C00
0DE0
0E30
0C10
0C10
0C10
0C10
0C10
0C10
0C10
ENDCHAR
STARTCHAR 040C
ENCODING 1036
SWIDTH 600 0
DWIDTH 10 0
BBX 8 17 1 0
BITMAP
0C
08
10
00
C6
C6
CC
C8
D8
D0
F0
D8
C8
CC
C6
C6
C3
ENDCHAR
STARTCHAR 040D
ENCODING 1037
SWIDTH 720 0
DWIDTH 12 0
BBX 10 17 1 0
BITMAP
1800
0800
0400
0000
C0C0
C0C0
C1C0
C3C0
C3C0
C6C0
CCC0
D8C0
F0C0
F0C0
E0C0
C0C0
C0C0
ENDCHAR
STARTCHAR 040E
ENCODING 1038
SWIDTH 660 0
DWIDTH 11 0
BBX 9 16 1 0
BITMAP
2600
1C00
0000
8180
C180
C100
6300
6300
2200
3600
1400
1C00
1C00
0800
1800
7000
ENDCHAR
STARTCHAR 040F
ENCODING 1039
SWIDTH 720 0
DWIDTH 12 0
BBX 10 16 1 -3
BITMAP
C0C0
C0C0
C0C0
C0C0
C0C0
C0C0
C0C0
C0C0
C0C0
C0C0
C0C0
C0C0
FFC0
0C00
0C00
0C00
ENDCHAR
STARTCHAR 0410
ENCODING 1040
SWIDTH 660 0
DWIDTH 11 0
BBX 11 13 0 0
BITMAP
0E00
0E00
0A00
1B00
1B00
1100
3180
3180
3F80
60C0
60C0
4040
C060
ENDCHAR
STARTCHAR 0411
ENCODING 1041
SWIDTH 660 0
DWIDTH 11 0
BBX 9 13 1 0
BITMAP
FF00
C000
C000
C000
C000
C000
FF00
C180
C080
C080
C080
C380
FF00
ENDCHAR
STARTCHAR 0412
ENCODING 1042
SWIDTH 660 0
DWIDTH 11 0
BBX 9 13 1 0
BITMAP
FE00
C300
C180
C180
C180
C300
FF00
C180
C080
C080
C080
C180
FF00
ENDCHAR
STARTCHAR 0413
ENCODING 1043
SWIDTH 540 0
DWIDTH 9 0
BBX 8 13 1 0
BITMAP
FF
C0
C0
C0
C0
C0
C0
C0
C0
C0
C0
C0
C0
ENDCHAR
STARTCHAR 0414
ENCODING 1044
SWIDTH 660 0
DWIDTH 11 0
BBX 11 16 0 -3
BITMAP
1FC0
1840
1840
1840
1840
1840
1840
1840
1840
1040
3040
6040
FFE0
C060
C060
C060
ENDCHAR
STARTCHAR 0415
ENCODING 1045
SWIDTH 660 0
DWIDTH 11 0
BBX 9 13 1 0
BITMAP
FF80
C000
C000
C000
C000
C000
FF80
C000
C000
C000
C000
C000
FF80
ENDCHAR
STARTCHAR 0416
ENCODING 1046
SWIDTH 900 0
DWIDTH 15 0
BBX 15 13 0 0
BITMAP
6106
610C
3108
3118
1910
0930
0FE0
1930
1118
3108
610C
4106
C102
ENDCHAR
STARTCHAR 0417
ENCODING 1047
SWIDTH 600 0
DWIDTH 10 0
BBX 8 13 1 0
BITMAP
3C
66
C3
C3
03
0E
1E
03
03
C3
C3
66
3C
ENDCHAR
STARTCHAR 0418
ENCODING 1048
SWIDTH 720 0
DWIDTH 12 0
BBX 10 13 1 0
BITMAP
C0C0
C0C0
C1C0
C3C0
C3C0
C6C0
CCC0
D8C0
F0C0
F0C0
E0C0
C0C0
C0C0
ENDCHAR
STARTCHAR 0419
ENCODING 1049
SWIDTH 720 0
DWIDTH 12 0
BBX 10 16 1 0
BITMAP
1200
1E00
0000
C0C0
C0C0
C1C0
C3C0
C3C0
C6C0
CCC0
D8C0
F0C0
F0C0
E0C0
C0C0
C0C0
ENDCHAR
STARTCHAR 041A
ENCODING 1050
SWIDTH 600 0
DWIDTH 10 0
BBX 8 13 1 0
BITMAP
C6
C6
CC
CC
D8
D0
F0
D8
C8
CC
C6
C2
C3
ENDCHAR
STARTCHAR 041B
ENCODING 1051
SWIDTH 660 0
DWIDTH 11 0
BBX 10 13 0 0
BITMAP
3FC0
3040
3040
3040
3040
3040
3040
3040
3040
2040
2040
E040
C040
ENDCHAR
STARTCHAR 041C
ENCODING 1052
SWIDTH 840 0
DWIDTH 14 0
BBX 12 13 1 0
BITMAP
E070
E070
E070
E0F0
F0B0
D0B0
D1B0
D9B0
C930
C930
CF30
C630
C630
ENDCHAR
STARTCHAR 041D
ENCODING 1053
SWIDTH 720 0
DWIDTH 12 0
BBX 10 13 1 0
BITMAP
C0C0
C0C0
C0C0
C0C0
C0C0
C0C0
FFC0
C0C0
C0C0
C0C0
C0C0
C0C0
C0C0
ENDCHAR
STARTCHAR 041E
ENCODING 1054
SWIDTH 780 0
DWIDTH 13 0
BBX 11 13 1 0
BITMAP
1F00
3180
60C0
C060
8020
8020
8020
8020
8020
C060
60C0
7180
1F00
ENDCHAR
STARTCHAR 041F
ENCODING 1055
SWIDTH 720 0
DWIDTH 12 0
BBX 10 13 1 0
BITMAP
FFC0
C0C0
C0C0
C0C0
C0C0
C0C0
C0C0
C0C0
C0C0
C0C0
C0C0
C0C0
C0C0
ENDCHAR
STARTCHAR 0420
ENCODING 1056
SWIDTH 660 0
DWIDTH 11 0
BBX 8 13 2 0
BITMAP
FE
87
83
81
81
83
FE
80
80
80
80
80
80
ENDCHAR
STARTCHAR 0421
ENCODING 1057
SWIDTH 720 0
DWIDTH 12 0
BBX 10 13 1 0
BITMAP
1F00
3380
60C0
C0C0
C000
8000
8000
8000
C040
C040
60C0
7380
1F00
ENDCHAR
STARTCHAR 0422
ENCODING 1058
SWIDTH 600 0
DWIDTH 10 0
BBX 10 13 0 0
BITMAP
FFC0
0C00
0C00
0C00
0C00
0C00
0C00
0C00
0C00
0C00
0C00
0C00
0C00
ENDCHAR
STARTCHAR 0423
ENCODING 1059
SWIDTH 660 0
DWIDTH 11 0
BBX 9 13 1 0
BITMAP
8180
C180
C100
6300
6300
2200
3600
1400
1C00
1C00
0800
1800
7000
ENDCHAR
STARTCHAR 0424
ENCODING 1060
SWIDTH 780 0
DWIDTH 13 0
BBX 12 13 0 0
BITMAP
0200
0200
1FC0
7260
6230
4210
C210
4210
6230
7260
1FC0
0200
0200
ENDCHAR
STARTCHAR 0425
ENCODING 1061
SWIDTH 660 0
DWIDTH 11 0
BBX 9 13 1 0
BITMAP
C180
4180
6300
3200
3600
1C00
0C00
1C00
3600
2300
6300
C180
C080
ENDCHAR
STARTCHAR 0426
ENCODING 1062
SWIDTH 720 0
DWIDTH 12 0
BBX 11 16 1 -3
BITMAP
C0C0
C0C0
C0C0
C0C0
C0C0
C0C0
C0C0
C0C0
C0C0
C0C0
C0C0
C0C0
FFE0
0060
0060
0060
ENDCHAR
STARTCHAR 0427
ENCODING 1063
SWIDTH 660 0
DWIDTH 11 0
BBX 9 13 1 0
BITMAP
8180
8180
8180
8180
8180
8180
C180
7F80
0180
0180
0180
0180
0180
ENDCHAR
STARTCHAR 0428
ENCODING 1064
SWIDTH 900 0
DWIDTH 15 0
BBX 13 13 1 0
BITMAP
8208
8208
8208
8208
8208
8208
8208
8208
8208
8208
8208
8208
FFF8
ENDCHAR
STARTCHAR 0429
ENCODING 1065
SWIDTH 960 0
DWIDTH 16 0
BBX 15 16 1 -3
BITMAP
820C
820C
820C
820C
820C
820C
820C
820C
820C
820C
820C
820C
FFFE
0006
0006
0006
ENDCHAR
STARTCHAR 042A
ENCODING 1066
SWIDTH 780 0
DWIDTH 13 0
BBX 14 13 -1 0
BITMAP
FE00
0600
0600
0600
0600
0600
07F8
0618
060C
060C
060C
0618
07F0
ENDCHAR
STARTCHAR 042B
ENCODING 1067
SWIDTH 900 0
DWIDTH 15 0
BBX 12 13 1 0
BITMAP
C010
C010
C010
C010
C010
C010
FF10
C190
C090
C090
C090
C390
FF10
ENDCHAR
STARTCHAR 042C
ENCODING 1068
SWIDTH 660 0
DWIDTH 11 0
BBX 9 13 1 0
BITMAP
C000
C000
C000
C000
C000
C000
FF00
C180
C080
C080
C080
C380
FF00
ENDCHAR
STARTCHAR 042D
ENCODING 1069
SWIDTH 720 0
DWIDTH 12 0
BBX 12 13 0 0
BITMAP
1F00
39C0
6060
4020
0030
0030
07F0
0030
C030
4060
6060
39C0
1F00
ENDCHAR
STARTCHAR 042E
ENCODING 1070
SWIDTH 1020 0
DWIDTH 17 0
BBX 15 13 1 0
BITMAP
C1F0
C398
C60C
C406
CC06
CC02
FC02
CC02
CC06
C406
C60C
C398
C1F0
ENDCHAR
STARTCHAR 042F
ENCODING 1071
SWIDTH 720 0
DWIDTH 12 0
BBX 10 13 1 0
BITMAP
3FC0
60C0
C0C0
C0C0
C0C0
60C0
3FC0
60C0
40C0
40C0
40C0
C0C0
C0C0
ENDCHAR
STARTCHAR 0430
ENCODING 1072
SWIDTH 540 0
DWIDTH 9 0
BBX 8 9 1 0
BITMAP
7C
C6
C6
06
7E
C6
86
CE
73
ENDCHAR
STARTCHAR 0431
ENCODING 1073
SWIDTH 600 0
DWIDTH 10 0
BBX 8 13 1 0
BITMAP
04
0C
38
40
FC
E6
C2
83
83
83
C2
66
3C
ENDCHAR
STARTCHAR 0432
ENCODING 1074
SWIDTH 540 0
DWIDTH 9 0
BBX 7 9 1 0
BITMAP
FC
86
82
86
FC
82
82
86
FE
ENDCHAR
STARTCHAR 0433
ENCODING 1075
SWIDTH 360 0
DWIDTH 6 0
BBX 5 9 1 0
BITMAP
F8
80
80
80
80
80
80
80
80
ENDCHAR
STARTCHAR 0434
ENCODING 1076
SWIDTH 600 0
DWIDTH 10 0
BBX 9 11 0 -2
BITMAP
1F00
1100
1100
1100
3100
3100
2100
6100
FF80
C080
C080
ENDCHAR
STARTCHAR 0435
ENCODING 1077
SWIDTH 540 0
DWIDTH 9 0
BBX 8 9 1 0
BITMAP
3C
66
C2
83
FF
80
82
E6
3C
ENDCHAR
STARTCHAR 0436
ENCODING 1078
SWIDTH 660 0
DWIDTH 11 0
BBX 11 9 0 0
BITMAP
4440
64C0
24C0
3580
3F80
3480
64C0
4440
C460
ENDCHAR
STARTCHAR 0437
ENCODING 1079
SWIDTH 480 0
DWIDTH 8 0
BBX 6 9 1 0
BITMAP
78
CC
8C
08
38
0C
8C
CC
78
ENDCHAR
STARTCHAR 0438
ENCODING 1080
SWIDTH 540 0
DWIDTH 9 0
BBX 7 9 1 0
BITMAP
C2
C6
CE
CA
D2
F2
E2
C2
C2
ENDCHAR
STARTCHAR 0439
ENCODING 1081
SWIDTH 540 0
DWIDTH 9 0
BBX 7 13 1 0
BITMAP
44
3C
00
00
C2
C6
CE
CA
D2
F2
E2
C2
C2
ENDCHAR
STARTCHAR 043A
ENCODING 1082
SWIDTH 420 0
DWIDTH 7 0
BBX 7 9 1 0
BITMAP
8C
88
98
90
F0
98
88
8C
86
ENDCHAR
STARTCHAR 043B
ENCODING 1083
SWIDTH 600 0
DWIDTH 10 0
BBX 8 9 0 0
BITMAP
3F
21
21
21
21
21
21
61
C1
ENDCHAR
STARTCHAR 043C
ENCODING 1084
SWIDTH 660 0
DWIDTH 11 0
BBX 10 9 1 0
BITMAP
C1C0
C1C0
A1C0
A3C0
B2C0
92C0
94C0
9CC0
8CC0
ENDCHAR
STARTCHAR 043D
ENCODING 1085
SWIDTH 540 0
DWIDTH 9 0
BBX 7 9 1 0
BITMAP
C2
C2
C2
C2
FE
C2
C2
C2
C2
ENDCHAR
STARTCHAR 043E
ENCODING 1086
SWIDTH 540 0
DWIDTH 9 0
BBX 8 9 1 0
BITMAP
3C
E6
C2
83
83
83
C2
E6
3C
ENDCHAR
STARTCHAR 043F
ENCODING 1087
SWIDTH 540 0
DWIDTH 9 0
BBX 7 9 1 0
BITMAP
FE
C6
C6
C6
C6
C6
C6
C6
C6
ENDCHAR
STARTCHAR 0440
ENCODING 1088
SWIDTH 540 0
DWIDTH 9 0
BBX 8 12 1 -3
BITMAP
BC
E6
C2
83
83
83
C2
E6
BC
80
80
80
ENDCHAR
STARTCHAR 0441
ENCODING 1089
SWIDTH 480 0
DWIDTH 8 0
BBX 7 9 1 0
BITMAP
78
CC
86
80
80
80
86
CC
78
ENDCHAR
STARTCHAR 0442
ENCODING 1090
SWIDTH 480 0
DWIDTH 8 0
BBX 6 9 1 0
BITMAP
FC
30
30
30
30
30
30
30
30
ENDCHAR
STARTCHAR 0443
ENCODING 1091
SWIDTH 480 0
DWIDTH 8 0
BBX 7 12 1 -3
BITMAP
86
84
C4
4C
48
68
78
30
30
30
20
E0
ENDCHAR
STARTCHAR 0444
ENCODING 1092
SWIDTH 840 0
DWIDTH 14 0
BBX 12 15 1 -4
BITMAP
0600
0600
1F80
76C0
4660
C620
C630
C630
4620
6660
3FC0
0600
0600
0600
0600
ENDCHAR
STARTCHAR 0445
ENCODING 1093
SWIDTH 480 0
DWIDTH 8 0
BBX 7 9 1 0
BITMAP
86
CC
68
38
30
38
68
CC
86
ENDCHAR
STARTCHAR 0446
ENCODING 1094
SWIDTH 600 0
DWIDTH 10 0
BBX 8 12 1 -3
BITMAP
C6
C6
C6
C6
C6
C6
C6
C6
FF
03
03
03
ENDCHAR
STARTCHAR 0447
ENCODING 1095
SWIDTH 540 0
DWIDTH 9 0
BBX 6 9 1 0
BITMAP
84
84
84
84
C4
7C
04
04
04
ENDCHAR
STARTCHAR 0448
ENCODING 1096
SWIDTH 780 0
DWIDTH 13 0
BBX 11 9 1 0
BITMAP
8420
8420
8420
8420
8420
8420
8420
8420
FFE0
ENDCHAR
STARTCHAR 0449
ENCODING 1097
SWIDTH 840 0
DWIDTH 14 0
BBX 12 12 1 -3
BITMAP
C420
C420
C420
C420
C420
C420
C420
C420
FFF0
0010
0010
0010
ENDCHAR
STARTCHAR 044A
ENCODING 1098
SWIDTH 600 0
DWIDTH 10 0
BBX 10 9 0 0
BITMAP
F800
1800
1800
1800
1F80
18C0
1840
18C0
1F80
ENDCHAR
STARTCHAR 044B
ENCODING 1099
SWIDTH 720 0
DWIDTH 12 0
BBX 10 9 1 0
BITMAP
C0C0
C0C0
C0C0
C0C0
FEC0
C2C0
C2C0
C6C0
FCC0
ENDCHAR
STARTCHAR 044C
ENCODING 1100
SWIDTH 540 0
DWIDTH 9 0
BBX 7 9 1 0
BITMAP
C0
C0
C0
C0
FC
C6
C2
C6
FC
ENDCHAR
STARTCHAR 044D
ENCODING 1101
SWIDTH 540 0
DWIDTH 9 0
BBX 7 9 1 0
BITMAP
78
CC
86
02
1E
02
86
CC
78
ENDCHAR
STARTCHAR 044E
ENCODING 1102
SWIDTH 780 0
DWIDTH 13 0
BBX 11 9 1 0
BITMAP
8780
8CC0
8860
9820
F820
9820
8860
8CC0
8780
ENDCHAR
STARTCHAR 044F
ENCODING 1103
SWIDTH 540 0
DWIDTH 9 0
BBX 7 9 1 0
BITMAP
7E
C6
86
86
7E
46
C6
C6
C6
ENDCHAR
STARTCHAR 0450
ENCODING 1104
SWIDTH 540 0
DWIDTH 9 0
BBX 8 13 1 0
BITMAP
20
10
18
00
3C
66
C2
82
FF
80
82
E6
3C
ENDCHAR
STARTCHAR 0451
ENCODING 1105
SWIDTH 540 0
DWIDTH 9 0
BBX 8 12 1 0
BITMAP
6C
6C
00
3C
66
C2
83
FF
80
82
66
3C
ENDCHAR
STARTCHAR 0452
ENCODING 1106
SWIDTH 540 0
DWIDTH 9 0
BBX 8 15 0 -2
BITMAP
60
60
F8
60
6E
73
61
61
61
61
61
61
61
03
1E
ENDCHAR
STARTCHAR 0453
ENCODING 1107
SWIDTH 360 0
DWIDTH 6 0
BBX 5 13 1 0
BITMAP
10
20
60
00
F8
80
80
80
80
80
80
80
80
ENDCHAR
STARTCHAR 0454
ENCODING 1108
SWIDTH 540 0
DWIDTH 9 0
BBX 8 9 0 0
BITMAP
3C
66
43
C0
F8
C0
43
66
3C
ENDCHAR
STARTCHAR 0455
ENCODING 1109
SWIDTH 480 0
DWIDTH 8 0
BBX 7 9 1 0
BITMAP
78
CC
84
C0
7C
04
86
CC
78
ENDCHAR
STARTCHAR 0456
ENCODING 1110
SWIDTH 240 0
DWIDTH 4 0
BBX 2 13 1 0
BITMAP
C0
C0
00
00
C0
C0
C0
C0
C0
C0
C0
C0
C0
ENDCHAR
STARTCHAR 0457
ENCODING 1111
SWIDTH 300 0
DWIDTH 5 0
BBX 5 12 0 0
BITMAP
D8
D8
00
20
20
20
20
20
20
20
20
20
ENDCHAR
STARTCHAR 0458
ENCODING 1112
SWIDTH 240 0
DWIDTH 4 0
BBX 3 16 0 -3
BITMAP
60
60
00
00
60
60
60
60
60
60
60
60
60
60
60
C0
ENDCHAR
STARTCHAR 0459
ENCODING 1113
SWIDTH 900 0
DWIDTH 15 0
BBX 14 9 0 0
BITMAP
3F80
2180
2180
2180
21F8
218C
2184
618C
C1F8
ENDCHAR
STARTCHAR 045A
ENCODING 1114
SWIDTH 840 0
DWIDTH 14 0
BBX 12 9 1 0
BITMAP
8600
8600
8600
8600
FFF0
8610
8610
8630
87E0
ENDCHAR
STARTCHAR 045B
ENCODING 1115
SWIDTH 540 0
DWIDTH 9 0
BBX 8 13 0 0
BITMAP
60
60
F8
60
6E
73
61
61
61
61
61
61
61
ENDCHAR
STARTCHAR 045C
ENCODING 1116
SWIDTH 420 0
DWIDTH 7 0
BBX 7 13 1 0
BITMAP
10
30
20
00
8C
88
98
90
F0
98
88
8C
86
ENDCHAR
STARTCHAR 045D
ENCODING 1117
SWIDTH 540 0
DWIDTH 9 0
BBX 7 13 1 0
BITMAP
60
30
10
00
C2
C6
CE
CA
D2
F2
E2
C2
C2
ENDCHAR
STARTCHAR 045E
ENCODING 1118
SWIDTH 480 0
DWIDTH 8 0
BBX 7 16 1 -3
BITMAP
4C
78
00
00
86
84
C4
4C
48
68
78
30
30
30
20
E0
ENDCHAR
STARTCHAR 045F
ENCODING 1119
SWIDTH 540 0
DWIDTH 9 0
BBX 7 12 1 -3
BITMAP
C6
C6
C6
C6
C6
C6
C6
C6
FE
10
10
10
ENDCHAR
STARTCHAR 0462
ENCODING 1122
SWIDTH 780 0
DWIDTH 13 0
BBX 12 13 0 0
BITMAP
1800
1800
FF00
1800
1800
1800
1FE0
1830
1810
1810
1830
1870
1FE0
ENDCHAR
STARTCHAR 0463
ENCODING 1123
SWIDTH 600 0
DWIDTH 10 0
BBX 8 11 1 0
BITMAP
40
40
F0
40
40
40
7E
43
41
43
7E
ENDCHAR
STARTCHAR 0472
ENCODING 1138
SWIDTH 780 0
DWIDTH 13 0
BBX 11 13 1 0
BITMAP
1F00
3380
60C0
C060
C060
8020
FC60
87A0
8020
C060
60C0
71C0
1F00
ENDCHAR
STARTCHAR 0473
ENCODING 1139
SWIDTH 540 0
DWIDTH 9 0
BBX 8 9 1 0
BITMAP
3C
66
C2
82
FF
83
82
E6
3C
ENDCHAR
STARTCHAR 0474
ENCODING 1140
SWIDTH 780 0
DWIDTH 13 0
BBX 10 13 2 0
BITMAP
80C0
C180
C180
4100
6300
6300
2200
3200
3600
1400
1C00
1C00
0C00
ENDCHAR
STARTCHAR 0475
ENCODING 1141
SWIDTH 660 0
DWIDTH 11 0
BBX 8 9 1 0
BITMAP
C3
42
66
24
24
34
1C
18
18
ENDCHAR
STARTCHAR 0490
ENCODING 1168
SWIDTH 480 0
DWIDTH 8 0
BBX 9 15 1 0
BITMAP
0180
0100
FE00
C000
C000
C000
C000
C000
C000
C000
C000
C000
C000
C000
C000
ENDCHAR
STARTCHAR 0491
ENCODING 1169
SWIDTH 420 0
DWIDTH 7 0
BBX 8 11 1 0
BITMAP
03
04
FC
C0
C0
C0
C0
C0
C0
C0
C0
ENDCHAR
STARTCHAR 0492
ENCODING 1170
SWIDTH 540 0
DWIDTH 9 0
BBX 8 13 1 0
BITMAP
FF
C0
C0
C0
C0
C0
FC
C0
C0
C0
C0
C0
C0
ENDCHAR
STARTCHAR 0493
ENCODING 1171
SWIDTH 360 0
DWIDTH 6 0
BBX 5 9 1 0
BITMAP
F8
C0
C0
C0
F0
C0
C0
C0
C0
ENDCHAR
STARTCHAR 0496
ENCODING 1174
SWIDTH 1020 0
DWIDTH 17 0
BBX 17 15 0 -2
BITMAP
618600
218600
318C00
118C00
199800
099800
0FF000
199800
198800
318C00
218600
618200
C18380
000180
000180
ENDCHAR
STARTCHAR 0497
ENCODING 1175
SWIDTH 840 0
DWIDTH 14 0
BBX 14 12 0 -3
BITMAP
6230
6230
3220
3260
1FC0
3260
2220
6210
C21C
000C
000C
000C
ENDCHAR
STARTCHAR 0498
ENCODING 1176
SWIDTH 600 0
DWIDTH 10 0
BBX 8 17 1 -4
BITMAP
3C
66
43
C3
03
06
1C
03
03
C1
C3
43
7E
10
1C
0C
38
ENDCHAR
STARTCHAR 0499
ENCODING 1177
SWIDTH 480 0
DWIDTH 8 0
BBX 6 13 1 -4
BITMAP
78
C8
8C
0C
38
0C
8C
8C
F8
20
10
18
70
ENDCHAR
STARTCHAR 049A
ENCODING 1178
SWIDTH 660 0
DWIDTH 11 0
BBX 9 16 1 -3
BITMAP
C300
C600
C400
CC00
C800
D800
F000
D800
CC00
C400
C600
C300
C180
0080
0080
0080
ENDCHAR
STARTCHAR 049B
ENCODING 1179
SWIDTH 540 0
DWIDTH 9 0
BBX 8 12 1 -3
BITMAP
C4
CC
CC
D8
F8
C8
CC
C4
C7
01
01
01
ENDCHAR
STARTCHAR 049C
ENCODING 1180
SWIDTH 600 0
DWIDTH 10 0
BBX 9 13 1 0
BITMAP
C300
C300
D600
D600
DC00
DC00
F800
DC00
D400
D600
C300
C100
C180
ENDCHAR
STARTCHAR 049D
ENCODING 1181
SWIDTH 480 0
DWIDTH 8 0
BBX 7 9 1 0
BITMAP
C4
EC
EC
F8
F8
E8
EC
C4
C6
ENDCHAR
STARTCHAR 04A0
ENCODING 1184
SWIDTH 600 0
DWIDTH 10 0
BBX 13 13 -4 0
BITMAP
FE30
0630
0660
0660
06C0
0680
0780
06C0
0640
0660
0630
0610
0618
ENDCHAR
STARTCHAR 04A1
ENCODING 1185
SWIDTH 420 0
DWIDTH 7 0
BBX 11 9 -3 0
BITMAP
F8C0
0880
0980
0900
0F00
0980
0880
08C0
0860
ENDCHAR
STARTCHAR 04A2
ENCODING 1186
SWIDTH 720 0
DWIDTH 12 0
BBX 11 16 1 -3
BITMAP
C0C0
C0C0
C0C0
C0C0
C0C0
C0C0
FFC0
C0C0
C0C0
C0C0
C0C0
C0C0
C0E0
0060
0060
0060
ENDCHAR
STARTCHAR 04A3
ENCODING 1187
SWIDTH 540 0
DWIDTH 9 0
BBX 8 12 1 -3
BITMAP
C2
C2
C2
C2
FE
C2
C2
C2
C3
03
03
03
ENDCHAR
STARTCHAR 04AA
ENCODING 1194
SWIDTH 720 0
DWIDTH 12 0
BBX 10 17 1 -4
BITMAP
1F00
3380
60C0
C0C0
C000
8000
8000
8000
C040
C0C0
40C0
6180
3F00
0800
0E00
0200
1C00
ENDCHAR
STARTCHAR 04AB
ENCODING 1195
SWIDTH 480 0
DWIDTH 8 0
BBX 7 13 1 -4
BITMAP
78
CC
86
80
80
80
86
C6
7C
10
08
48
30
ENDCHAR
STARTCHAR 04AE
ENCODING 1198
SWIDTH 660 0
DWIDTH 11 0
BBX 11 13 0 0
BITMAP
C060
60C0
30C0
3180
1900
1B00
0E00
0600
0400
0400
0400
0400
0400
ENDCHAR
STARTCHAR 04AF
ENCODING 1199
SWIDTH 480 0
DWIDTH 8 0
BBX 7 13 1 -4
BITMAP
86
84
C4
4C
48
68
38
30
30
30
30
30
30
ENDCHAR
STARTCHAR 04B0
ENCODING 1200
SWIDTH 660 0
DWIDTH 11 0
BBX 11 13 0 0
BITMAP
C060
60C0
30C0
3180
1900
1B00
0E00
0600
0400
3F80
0400
0400
0400
ENDCHAR
STARTCHAR 04B1
ENCODING 1201
SWIDTH 480 0
DWIDTH 8 0
BBX 7 13 1 -4
BITMAP
86
84
C4
4C
48
68
38
30
30
FC
30
30
30
ENDCHAR
STARTCHAR 04B2
ENCODING 1202
SWIDTH 720 0
DWIDTH 12 0
BBX 10 16 1 -3
BITMAP
C180
4180
6300
3200
3600
1C00
0C00
1C00
3600
2300
6300
C180
C0C0
0040
0040
0040
ENDCHAR
STARTCHAR 04B3
ENCODING 1203
SWIDTH 540 0
DWIDTH 9 0
BBX 7 12 1 -3
BITMAP
86
CC
68
30
30
38
48
CC
86
02
02
02
ENDCHAR
STARTCHAR 04B6
ENCODING 1206
SWIDTH 720 0
DWIDTH 12 0
BBX 10 16 1 -3
BITMAP
C080
C080
C080
C080
C080
C080
C080
7F80
0080
0080
0080
0080
00C0
0040
0040
0040
ENDCHAR
STARTCHAR 04B7
ENCODING 1207
SWIDTH 480 0
DWIDTH 8 0
BBX 7 12 1 -3
BITMAP
84
84
84
84
CC
7C
04
04
06
06
06
06
ENDCHAR
STARTCHAR 04B8
ENCODING 1208
SWIDTH 720 0
DWIDTH 12 0
BBX 9 13 1 0
BITMAP
C080
C080
C080
C880
C880
C880
C880
7F80
1C80
0880
0880
0080
0080
ENDCHAR
STARTCHAR 04B9
ENCODING 1209
SWIDTH 480 0
DWIDTH 8 0
BBX 6 9 1 0
BITMAP
84
84
84
94
D4
7C
14
14
04
ENDCHAR
STARTCHAR 04BA
ENCODING 1210
SWIDTH 720 0
DWIDTH 12 0
BBX 9 13 1 0
BITMAP
C000
C000
C000
C000
C000
FF00
C180
C080
C080
C080
C080
C080
C080
ENDCHAR
STARTCHAR 04BB
ENCODING 1211
SWIDTH 540 0
DWIDTH 9 0
BBX 7 13 1 0
BITMAP
C0
C0
C0
C0
DC
E6
C2
C2
C2
C2
C2
C2
C2
ENDCHAR
STARTCHAR 04C0
ENCODING 1216
SWIDTH 300 0
DWIDTH 5 0
BBX 1 13 2 0
BITMAP
80
80
80
80
80
80
80
80
80
80
80
80
80
ENDCHAR
STARTCHAR 04CB
ENCODING 1227
SWIDTH 660 0
DWIDTH 11 0
BBX 9 16 1 -3
BITMAP
8180
8180
8180
8180
8180
8180
C180
7F80
0180
0180
0180
0180
0180
0100
0100
0100
ENDCHAR
STARTCHAR 04CC
ENCODING 1228
SWIDTH 540 0
DWIDTH 9 0
BBX 6 12 1 -3
BITMAP
84
84
84
84
C4
7C
04
04
0C
08
08
08
ENDCHAR
STARTCHAR 04CF
ENCODING 1231
SWIDTH 300 0
DWIDTH 5 0
BBX 1 13 2 0
BITMAP
80
80
80
80
80
80
80
80
80
80
80
80
80
ENDCHAR
STARTCHAR 04D8
ENCODING 1240
SWIDTH 780 0
DWIDTH 13 0
BBX 11 13 1 0
BITMAP
1F00
3180
60C0
C060
0060
0020
FFE0
8020
8020
C060
60C0
7180
1F00
ENDCHAR
STARTCHAR 04D9
ENCODING 1241
SWIDTH 540 0
DWIDTH 9 0
BBX 8 9 1 0
BITMAP
3C
C6
82
03
FF
82
82
E6
3C
ENDCHAR
STARTCHAR 04E2
ENCODING 1250
SWIDTH 720 0
DWIDTH 12 0
BBX 10 15 1 0
BITMAP
1F00
0000
C0C0
C0C0
C1C0
C3C0
C3C0
C6C0
CCC0
D8C0
F0C0
F0C0
E0C0
C0C0
C0C0
ENDCHAR
STARTCHAR 04E3
ENCODING 1251
SWIDTH 540 0
DWIDTH 9 0
BBX 7 11 1 0
BITMAP
7C
00
C2
C6
CE
CA
D2
F2
E2
C2
C2
ENDCHAR
STARTCHAR 04E8
ENCODING 1256
SWIDTH 780 0
DWIDTH 13 0
BBX 11 13 1 0
BITMAP
1F00
3180
60C0
C060
8060
8020
FFE0
8020
8020
C060
60C0
7180
1F00
ENDCHAR
STARTCHAR 04E9
ENCODING 1257
SWIDTH 540 0
DWIDTH 9 0
BBX 8 9 1 0
BITMAP
3C
66
C2
82
FF
83
C2
E6
3C
ENDCHAR
STARTCHAR 04EE
ENCODING 1262
SWIDTH 660 0
DWIDTH 11 0
BBX 9 15 1 0
BITMAP
3E00
0000
8180
C180
C100
6300
6300
2200
3600
1400
1C00
1C00
0800
1800
7000
ENDCHAR
STARTCHAR 04EF
ENCODING 1263
SWIDTH 480 0
DWIDTH 8 0
BBX 7 14 1 -3
BITMAP
78
00
86
84
C4
4C
48
68
78
30
30
30
20
E0
ENDCHAR
STARTCHAR 1E80
ENCODING 7808
SWIDTH 960 0
DWIDTH 16 0
BBX 15 17 0 0
BITMAP
0300
0100
0080
0000
C182
4186
6386
63C6
62C4
2244
264C
366C
3428
1428
1C28
1C38
1818
ENDCHAR
STARTCHAR 1E81
ENCODING 7809
SWIDTH 720 0
DWIDTH 12 0
BBX 12 13 0 0
BITMAP
0C00
0400
0200
0000
C630
4620
4E20
6F60
6960
2940
2940
39C0
3080
ENDCHAR
STARTCHAR 1E82
ENCODING 7810
SWIDTH 960 0
DWIDTH 16 0
BBX 15 17 0 0
BITMAP
0060
0040
0080
0000
C182
4186
6386
63C6
62C4
2244
264C
366C
3428
1428
1C28
1C38
1818
ENDCHAR
STARTCHAR 1E83
ENCODING 7811
SWIDTH 720 0
DWIDTH 12 0
BBX 12 13 0 0
BITMAP
0300
0600
0400
0000
C630
4620
4E20
6F60
6960
2940
2940
39C0
3080
ENDCHAR
STARTCHAR 1E84
ENCODING 7812
SWIDTH 960 0
DWIDTH 16 0
BBX 15 16 0 0
BITMAP
02C0
02C0
0000
C182
4186
6386
63C6
62C4
2244
264C
366C
3428
1428
1C28
1C38
1818
ENDCHAR
STARTCHAR 1E85
ENCODING 7813
SWIDTH 720 0
DWIDTH 12 0
BBX 12 12 0 0
BITMAP
0B00
0B00
0000
C630
4620
4E20
6F60
6960
2940
2940
39C0
3080
ENDCHAR
STARTCHAR 1EF2
ENCODING 7922
SWIDTH 660 0
DWIDTH 11 0
BBX 11 17 0 0
BITMAP
1800
0C00
0400
0000
C060
60C0
30C0
3180
1900
1B00
0E00
0600
0400
0400
0400
0400
0400
ENDCHAR
STARTCHAR 1EF3
ENCODING 7923
SWIDTH 480 0
DWIDTH 8 0
BBX 8 16 0 -3
BITMAP
30
10
08
00
C3
42
62
26
24
34
1C
18
18
10
10
70
ENDCHAR
STARTCHAR 2002
ENCODING 8194
SWIDTH 480 0
DWIDTH 8 0
BBX 0 0 0 0
BITMAP
ENDCHAR
STARTCHAR 2013
ENCODING 8211
SWIDTH 540 0
DWIDTH 9 0
BBX 9 1 0 4
BITMAP
FF80
ENDCHAR
STARTCHAR 2014
ENCODING 8212
SWIDTH 1020 0
DWIDTH 17 0
BBX 17 1 0 4
BITMAP
FFFF80
ENDCHAR
STARTCHAR 2015
ENCODING 8213
SWIDTH 1020 0
DWIDTH 17 0
BBX 17 1 0 4
BITMAP
FFFF80
ENDCHAR
STARTCHAR 2017
ENCODING 8215
SWIDTH 540 0
DWIDTH 9 0
BBX 10 3 0 -4
BITMAP
FFC0
0000
FFC0
ENDCHAR
STARTCHAR 2018
ENCODING 8216
SWIDTH 240 0
DWIDTH 4 0
BBX 2 4 1 8
BITMAP
40
80
C0
C0
ENDCHAR
STARTCHAR 2019
ENCODING 8217
SWIDTH 240 0
DWIDTH 4 0
BBX 2 4 1 9
BITMAP
C0
C0
40
80
ENDCHAR
STARTCHAR 201A
ENCODING 8218
SWIDTH 240 0
DWIDTH 4 0
BBX 2 4 1 -2
BITMAP
C0
C0
40
80
ENDCHAR
STARTCHAR 201B
ENCODING 8219
SWIDTH 240 0
DWIDTH 4 0
BBX 2 4 1 9
BITMAP
C0
C0
80
40
ENDCHAR
STARTCHAR 201C
ENCODING 8220
SWIDTH 360 0
DWIDTH 6 0
BBX 4 4 1 8
BITMAP
90
A0
B0
B0
ENDCHAR
STARTCHAR 201D
ENCODING 8221
SWIDTH 360 0
DWIDTH 6 0
BBX 4 4 1 8
BITMAP
B0
B0
90
A0
ENDCHAR
STARTCHAR 201E
ENCODING 8222
SWIDTH 360 0
DWIDTH 6 0
BBX 4 4 1 -2
BITMAP
B0
B0
90
B0
ENDCHAR
STARTCHAR 2020
ENCODING 8224
SWIDTH 540 0
DWIDTH 9 0
BBX 8 15 1 -3
BITMAP
10
10
10
10
FF
10
10
10
10
10
10
10
10
10
10
ENDCHAR
STARTCHAR 2021
ENCODING 8225
SWIDTH 540 0
DWIDTH 9 0
BBX 8 15 1 -3
BITMAP
10
10
10
10
FF
10
10
10
10
10
FF
10
10
10
10
ENDCHAR
STARTCHAR 2022
ENCODING 8226
SWIDTH 360 0
DWIDTH 6 0
BBX 4 4 1 4
BITMAP
60
F0
F0
E0
ENDCHAR
STARTCHAR 2026
ENCODING 8230
SWIDTH 1020 0
DWIDTH 17 0
BBX 13 2 2 0
BITMAP
C618
C618
ENDCHAR
STARTCHAR 2030
ENCODING 8240
SWIDTH 1020 0
DWIDTH 17 0
BBX 17 13 0 0
BITMAP
708000
C98000
890000
CB0000
720000
060000
040000
080000
09C700
124900
122880
224900
21C700
ENDCHAR
STARTCHAR 2032
ENCODING 8242
SWIDTH 180 0
DWIDTH 3 0
BBX 1 4 1 7
BITMAP
80
80
80
80
ENDCHAR
STARTCHAR 2033
ENCODING 8243
SWIDTH 360 0
DWIDTH 6 0
BBX 4 4 1 7
BITMAP
50
90
A0
A0
ENDCHAR
STARTCHAR 2039
ENCODING 8249
SWIDTH 360 0
DWIDTH 6 0
BBX 2 5 2 2
BITMAP
40
C0
80
C0
40
ENDCHAR
STARTCHAR 203A
ENCODING 8250
SWIDTH 360 0
DWIDTH 6 0
BBX 3 5 1 2
BITMAP
80
60
20
60
80
ENDCHAR
STARTCHAR 203C
ENCODING 8252
SWIDTH 480 0
DWIDTH 8 0
BBX 5 13 2 0
BITMAP
88
88
88
88
88
88
88
88
88
88
00
88
88
ENDCHAR
STARTCHAR 203E
ENCODING 8254
SWIDTH 360 0
DWIDTH 6 0
BBX 10 1 -2 14
BITMAP
FFC0
ENDCHAR
STARTCHAR 2044
ENCODING 8260
SWIDTH 300 0
DWIDTH 5 0
BBX 8 12 -2 0
BITMAP
01
02
02
04
04
08
10
10
20
20
40
80
ENDCHAR
STARTCHAR 2070
ENCODING 8304
SWIDTH 360 0
DWIDTH 6 0
BBX 5 7 0 5
BITMAP
70
48
88
88
88
48
70
ENDCHAR
STARTCHAR 2074
ENCODING 8308
SWIDTH 360 0
DWIDTH 6 0
BBX 5 8 0 4
BITMAP
10
10
30
50
90
F8
10
10
ENDCHAR
STARTCHAR 2075
ENCODING 8309
SWIDTH 360 0
DWIDTH 6 0
BBX 5 7 0 5
BITMAP
78
40
70
88
08
88
70
ENDCHAR
STARTCHAR 2076
ENCODING 8310
SWIDTH 360 0
DWIDTH 6 0
BBX 5 7 0 5
BITMAP
70
48
80
B8
C8
C8
70
ENDCHAR
STARTCHAR 2077
ENCODING 8311
SWIDTH 360 0
DWIDTH 6 0
BBX 5 7 0 5
BITMAP
F8
08
10
10
20
20
40
ENDCHAR
STARTCHAR 2078
ENCODING 8312
SWIDTH 360 0
DWIDTH 6 0
BBX 5 7 0 5
BITMAP
70
C8
48
70
88
88
70
ENDCHAR
STARTCHAR 2079
ENCODING 8313
SWIDTH 360 0
DWIDTH 6 0
BBX 5 7 0 5
BITMAP
70
C8
88
C8
78
88
70
ENDCHAR
STARTCHAR 207F
ENCODING 8319
SWIDTH 360 0
DWIDTH 6 0
BBX 4 6 1 4
BITMAP
E0
90
90
90
90
90
ENDCHAR
STARTCHAR 20A3
ENCODING 8355
SWIDTH 540 0
DWIDTH 9 0
BBX 8 13 1 0
BITMAP
FF
80
80
80
8B
8E
FC
88
88
88
88
88
88
ENDCHAR
STARTCHAR 20A4
ENCODING 8356
SWIDTH 540 0
DWIDTH 9 0
BBX 9 13 0 0
BITMAP
1E00
3300
6100
4180
6000
6000
FC00
3000
FC00
1000
2000
7F80
4F00
ENDCHAR
STARTCHAR 20A7
ENCODING 8359
SWIDTH 1080 0
DWIDTH 18 0
BBX 15 13 2 0
BITMAP
F000
9800
8C00
8C00
8C00
9800
F900
839C
8124
8130
810C
8122
819C
ENDCHAR
STARTCHAR 20AC
ENCODING 8364
SWIDTH 540 0
DWIDTH 9 0
BBX 9 12 0 0
BITMAP
0F00
1980
3000
2000
FF00
6000
FE00
6000
2000
3000
1980
0F00
ENDCHAR
STARTCHAR 20AF
ENCODING 8367
SWIDTH 900 0
DWIDTH 15 0
BBX 13 14 1 -3
BITMAP
3E00
5200
9300
9138
3148
2148
2388
2288
2288
4490
F8E0
0180
0100
0100
ENDCHAR
STARTCHAR 20DD
ENCODING 8413
SWIDTH 1020 0
DWIDTH 17 0
BBX 12 12 2 0
BITMAP
0F80
3040
6020
4010
4010
8010
8010
4010
4010
6020
30C0
0F80
ENDCHAR
STARTCHAR 2105
ENCODING 8453
SWIDTH 900 0
DWIDTH 15 0
BBX 13 12 1 0
BITMAP
7040
8880
8080
8100
8900
72F0
0790
0518
0908
0918
1190
10F0
ENDCHAR
STARTCHAR 210F
ENCODING 8463
SWIDTH 600 0
DWIDTH 10 0
BBX 8 12 1 0
BITMAP
38
12
1C
30
E7
2B
72
62
46
C4
C5
86
ENDCHAR
STARTCHAR 2111
ENCODING 8465
SWIDTH 720 0
DWIDTH 12 0
BBX 10 13 1 -1
BITMAP
3C00
4600
8680
8280
8380
8000
4380
2240
0200
C300
6300
3300
1E00
ENDCHAR
STARTCHAR 2112
ENCODING 8466
SWIDTH 840 0
DWIDTH 14 0
BBX 12 13 1 0
BITMAP
18E0
2090
4110
4110
4120
2340
1F80
0300
0300
0200
0210
FC20
FBC0
ENDCHAR
STARTCHAR 2113
ENCODING 8467
SWIDTH 300 0
DWIDTH 5 0
BBX 6 13 -1 0
BITMAP
0C
14
14
14
14
38
30
20
60
A0
60
70
30
ENDCHAR
STARTCHAR 2116
ENCODING 8470
SWIDTH 1080 0
DWIDTH 18 0
BBX 16 13 1 0
BITMAP
C11C
C136
E163
A141
B141
9141
9941
8963
8D36
851C
8700
8300
837F
ENDCHAR
STARTCHAR 2118
ENCODING 8472
SWIDTH 660 0
DWIDTH 11 0
BBX 9 10 1 -3
BITMAP
1000
2700
4880
7080
4100
6900
B200
AC00
A000
E000
ENDCHAR
STARTCHAR 211C
ENCODING 8476
SWIDTH 780 0
DWIDTH 13 0
BBX 10 10 1 0
BITMAP
7B80
8CC0
8CC0
8C80
6F00
2D80
2D80
0C80
68C0
30C0
ENDCHAR
STARTCHAR 211E
ENCODING 8478
SWIDTH 780 0
DWIDTH 13 0
BBX 8 11 3 0
BITMAP
FC
86
83
83
82
FE
9B
8E
86
8E
8B
ENDCHAR
STARTCHAR 2120
ENCODING 8480
SWIDTH 600 0
DWIDTH 10 0
BBX 9 5 0 6
BITMAP
7480
9780
7780
9780
6500
ENDCHAR
STARTCHAR 2122
ENCODING 8482
SWIDTH 1020 0
DWIDTH 17 0
BBX 15 7 1 6
BITMAP
FD86
1186
114A
114A
1152
1132
1132
ENDCHAR
STARTCHAR 2126
ENCODING 8486
SWIDTH 780 0
DWIDTH 13 0
BBX 12 13 0 0
BITMAP
0F80
39C0
3060
6030
4030
4010
4010
4010
6030
2020
3040
0880
F9F0
ENDCHAR
STARTCHAR 2128
ENCODING 8488
SWIDTH 600 0
DWIDTH 10 0
BBX 10 15 0 -3
BITMAP
0E00
1180
0080
0080
0880
1980
0B00
0F00
1180
2080
00C0
40C0
B0C0
9080
0F00
ENDCHAR
STARTCHAR 212D
ENCODING 8493
SWIDTH 660 0
DWIDTH 11 0
BBX 10 13 1 -1
BITMAP
1000
2FC0
4480
C800
8C00
8600
8200
9300
D100
D300
6C40
7080
1F00
ENDCHAR
STARTCHAR 212E
ENCODING 8494
SWIDTH 600 0
DWIDTH 10 0
BBX 8 9 1 0
BITMAP
3C
42
C3
C3
FF
C0
C1
42
3C
ENDCHAR
STARTCHAR 212F
ENCODING 8495
SWIDTH 480 0
DWIDTH 8 0
BBX 7 8 1 0
BITMAP
1C
26
64
D8
E0
C0
CC
70
ENDCHAR
STARTCHAR 2135
ENCODING 8501
SWIDTH 480 0
DWIDTH 8 0
BBX 8 11 0 0
BITMAP
08
CF
4F
22
54
5C
4C
64
72
33
71
ENDCHAR
STARTCHAR 2136
ENCODING 8502
SWIDTH 420 0
DWIDTH 7 0
BBX 6 8 1 1
BITMAP
F8
FC
04
04
04
04
FC
FC
ENDCHAR
STARTCHAR 2137
ENCODING 8503
SWIDTH 360 0
DWIDTH 6 0
BBX 4 9 1 0
BITMAP
40
70
30
10
10
10
10
F0
E0
ENDCHAR
STARTCHAR 215B
ENCODING 8539
SWIDTH 840 0
DWIDTH 14 0
BBX 12 13 1 0
BITMAP
2040
6080
E080
2100
2200
2260
2490
2490
08E0
1090
1110
2090
20E0
ENDCHAR
STARTCHAR 215C
ENCODING 8540
SWIDTH 840 0
DWIDTH 14 0
BBX 12 12 1 0
BITMAP
F040
9080
1080
3100
1A00
8AE0
F490
0490
08E0
1090
1090
20F0
ENDCHAR
STARTCHAR 215D
ENCODING 8541
SWIDTH 840 0
DWIDTH 14 0
BBX 12 12 1 0
BITMAP
F040
8080
E080
9100
1100
92E0
F490
0490
08E0
1090
1090
20F0
ENDCHAR
STARTCHAR 215E
ENCODING 8542
SWIDTH 840 0
DWIDTH 14 0
BBX 12 12 1 0
BITMAP
F880
1100
2100
2200
4200
44E0
4890
0890
10E0
2110
2110
40E0
ENDCHAR
STARTCHAR 2190
ENCODING 8592
SWIDTH 1020 0
DWIDTH 17 0
BBX 14 5 1 3
BITMAP
1000
3000
FFFC
3000
1000
ENDCHAR
STARTCHAR 2191
ENCODING 8593
SWIDTH 480 0
DWIDTH 8 0
BBX 6 14 1 -2
BITMAP
20
30
78
A4
20
20
20
20
20
20
20
20
20
20
ENDCHAR
STARTCHAR 2192
ENCODING 8594
SWIDTH 1020 0
DWIDTH 17 0
BBX 14 5 1 3
BITMAP
0010
0018
FFFC
0018
0010
ENDCHAR
STARTCHAR 2193
ENCODING 8595
SWIDTH 480 0
DWIDTH 8 0
BBX 6 13 1 -2
BITMAP
20
20
20
20
20
20
20
20
20
20
EC
78
30
ENDCHAR
STARTCHAR 2194
ENCODING 8596
SWIDTH 1020 0
DWIDTH 17 0
BBX 13 5 2 3
BITMAP
1040
6020
FFF8
6020
1040
ENDCHAR
STARTCHAR 2195
ENCODING 8597
SWIDTH 480 0
DWIDTH 8 0
BBX 6 12 1 -1
BITMAP
10
30
78
94
10
10
10
10
10
5C
38
30
ENDCHAR
STARTCHAR 2196
ENCODING 8598
SWIDTH 720 0
DWIDTH 12 0
BBX 12 12 0 -1
BITMAP
C000
F000
AC00
5000
4800
2400
0200
0100
0080
0040
0020
0010
ENDCHAR
STARTCHAR 2197
ENCODING 8599
SWIDTH 720 0
DWIDTH 12 0
BBX 12 12 0 -1
BITMAP
0030
01F0
0260
00A0
0140
0240
0400
0800
1000
2000
4000
8000
ENDCHAR
STARTCHAR 2198
ENCODING 8600
SWIDTH 720 0
DWIDTH 12 0
BBX 12 12 0 -1
BITMAP
8000
4000
2000
1000
0800
0400
0240
0140
00A0
0260
01F0
0020
ENDCHAR
STARTCHAR 2199
ENCODING 8601
SWIDTH 720 0
DWIDTH 12 0
BBX 12 12 0 -1
BITMAP
0010
0020
0040
0080
0100
0200
2400
4800
5000
AC00
F000
C000
ENDCHAR
STARTCHAR 21A8
ENCODING 8616
SWIDTH 480 0
DWIDTH 8 0
BBX 6 15 1 -2
BITMAP
10
30
78
94
10
10
10
10
10
58
38
30
00
00
78
ENDCHAR
STARTCHAR 21B5
ENCODING 8629
SWIDTH 1020 0
DWIDTH 17 0
BBX 12 6 3 3
BITMAP
0010
1810
6010
FFF0
C000
3800
ENDCHAR
STARTCHAR 21C4
ENCODING 8644
SWIDTH 1020 0
DWIDTH 17 0
BBX 13 9 2 1
BITMAP
0040
0020
FFF8
0020
2040
6000
FFF8
6000
3000
ENDCHAR
STARTCHAR 21C6
ENCODING 8646
SWIDTH 1020 0
DWIDTH 17 0
BBX 13 9 2 1
BITMAP
2000
6000
FFF8
6000
1040
0020
FFF8
0020
0040
ENDCHAR
STARTCHAR 21D0
ENCODING 8656
SWIDTH 720 0
DWIDTH 12 0
BBX 11 8 1 1
BITMAP
1000
2000
7FE0
8000
8000
7FE0
2000
1000
ENDCHAR
STARTCHAR 21D1
ENCODING 8657
SWIDTH 720 0
DWIDTH 12 0
BBX 8 10 2 1
BITMAP
18
24
66
A5
24
24
24
24
24
24
ENDCHAR
STARTCHAR 21D2
ENCODING 8658
SWIDTH 720 0
DWIDTH 12 0
BBX 11 6 0 2
BITMAP
0080
FFC0
0020
0020
FFC0
0080
ENDCHAR
STARTCHAR 21D3
ENCODING 8659
SWIDTH 720 0
DWIDTH 12 0
BBX 6 11 3 0
BITMAP
48
48
48
48
48
48
48
CC
48
30
20
ENDCHAR
STARTCHAR 21D4
ENCODING 8660
SWIDTH 720 0
DWIDTH 12 0
BBX 12 6 0 2
BITMAP
1080
3FC0
4020
C030
3FC0
1080
ENDCHAR
STARTCHAR 21D5
ENCODING 8661
SWIDTH 720 0
DWIDTH 12 0
BBX 8 11 2 -1
BITMAP
18
3C
66
A5
24
24
24
24
A5
66
18
ENDCHAR
STARTCHAR 2200
ENCODING 8704
SWIDTH 600 0
DWIDTH 10 0
BBX 8 9 1 0
BITMAP
81
C3
42
7E
64
24
3C
18
18
ENDCHAR
STARTCHAR 2202
ENCODING 8706
SWIDTH 480 0
DWIDTH 8 0
BBX 8 13 0 0
BITMAP
38
04
02
02
02
03
3B
67
42
C2
C6
44
38
ENDCHAR
STARTCHAR 2203
ENCODING 8707
SWIDTH 420 0
DWIDTH 7 0
BBX 5 9 1 0
BITMAP
F8
08
08
08
F8
08
08
08
F8
ENDCHAR
STARTCHAR 2205
ENCODING 8709
SWIDTH 1020 0
DWIDTH 17 0
BBX 13 12 2 0
BITMAP
0F88
1050
2020
40D0
4190
4310
4610
4810
5010
6020
D040
8F80
ENDCHAR
STARTCHAR 2206
ENCODING 8710
SWIDTH 600 0
DWIDTH 10 0
BBX 10 11 0 0
BITMAP
0C00
0C00
0E00
1A00
1200
3300
2100
6180
6080
40C0
FFC0
ENDCHAR
STARTCHAR 2207
ENCODING 8711
SWIDTH 720 0
DWIDTH 12 0
BBX 10 10 1 0
BITMAP
FFC0
4080
6080
2180
3100
1300
1200
1A00
0E00
0C00
ENDCHAR
STARTCHAR 2208
ENCODING 8712
SWIDTH 1020 0
DWIDTH 17 0
BBX 9 8 4 0
BITMAP
3F80
C000
8000
FF80
8000
8000
4000
3F80
ENDCHAR
STARTCHAR 2209
ENCODING 8713
SWIDTH 1020 0
DWIDTH 17 0
BBX 9 10 4 -1
BITMAP
0100
3F80
C400
8400
FF80
8800
9000
5000
3F80
4000
ENDCHAR
STARTCHAR 220B
ENCODING 8715
SWIDTH 1020 0
DWIDTH 17 0
BBX 9 8 4 0
BITMAP
FE00
0100
0080
FF80
0080
0180
0100
FE00
ENDCHAR
STARTCHAR 220D
ENCODING 8717
SWIDTH 540 0
DWIDTH 9 0
BBX 7 8 2 0
BITMAP
F8
0C
04
04
FE
04
04
F8
ENDCHAR
STARTCHAR 220F
ENCODING 8719
SWIDTH 1020 0
DWIDTH 17 0
BBX 13 16 2 -4
BITMAP
FFF8
2060
2060
2060
2060
2060
2060
2060
2060
2060
2060
2060
2060
2060
2060
F8F0
ENDCHAR
STARTCHAR 2211
ENCODING 8721
SWIDTH 1020 0
DWIDTH 17 0
BBX 8 15 4 -2
BITMAP
FF
FF
C1
41
60
20
10
18
10
30
20
61
C1
C1
FF
ENDCHAR
STARTCHAR 2212
ENCODING 8722
SWIDTH 600 0
DWIDTH 10 0
BBX 8 1 1 3
BITMAP
FF
ENDCHAR
STARTCHAR 2213
ENCODING 8723
SWIDTH 1020 0
DWIDTH 17 0
BBX 8 10 4 0
BITMAP
FF
00
08
08
08
08
FF
08
08
08
ENDCHAR
STARTCHAR 2215
ENCODING 8725
SWIDTH 300 0
DWIDTH 5 0
BBX 8 12 -2 0
BITMAP
01
02
02
04
04
08
10
10
20
20
40
80
ENDCHAR
STARTCHAR 2217
ENCODING 8727
SWIDTH 1020 0
DWIDTH 17 0
BBX 4 4 6 2
BITMAP
A0
F0
F0
A0
ENDCHAR
STARTCHAR 2219
ENCODING 8729
SWIDTH 300 0
DWIDTH 5 0
BBX 2 2 2 4
BITMAP
C0
C0
ENDCHAR
STARTCHAR 221A
ENCODING 8730
SWIDTH 480 0
DWIDTH 8 0
BBX 9 15 -1 -1
BITMAP
0080
0080
0100
0100
0100
0100
2100
E100
1200
1200
0A00
0A00
0600
0600
0400
ENDCHAR
STARTCHAR 221D
ENCODING 8733
SWIDTH 1020 0
DWIDTH 17 0
BBX 8 4 3 2
BITMAP
71
8E
8E
71
ENDCHAR
STARTCHAR 221E
ENCODING 8734
SWIDTH 720 0
DWIDTH 12 0
BBX 11 5 0 2
BITMAP
30C0
4B20
8620
4B20
70E0
ENDCHAR
STARTCHAR 221F
ENCODING 8735
SWIDTH 960 0
DWIDTH 16 0
BBX 15 15 1 0
BITMAP
8000
8000
8000
8000
8000
8000
8000
8000
8000
8000
8000
8000
8000
8000
FFFE
ENDCHAR
STARTCHAR 2220
ENCODING 8736
SWIDTH 1020 0
DWIDTH 17 0
BBX 9 7 4 0
BITMAP
0200
0400
0800
1000
2000
4000
FF80
ENDCHAR
STARTCHAR 2223
ENCODING 8739
SWIDTH 720 0
DWIDTH 12 0
BBX 2 16 5 -4
BITMAP
C0
C0
C0
C0
C0
C0
C0
C0
C0
C0
C0
C0
C0
C0
C0
C0
ENDCHAR
STARTCHAR 2225
ENCODING 8741
SWIDTH 720 0
DWIDTH 12 0
BBX 4 19 4 -4
BITMAP
90
90
90
90
90
90
90
90
90
90
90
90
90
90
90
90
90
90
90
ENDCHAR
STARTCHAR 2227
ENCODING 8743
SWIDTH 1020 0
DWIDTH 17 0
BBX 8 9 4 0
BITMAP
08
18
1C
34
26
22
43
41
C1
ENDCHAR
STARTCHAR 2228
ENCODING 8744
SWIDTH 1020 0
DWIDTH 17 0
BBX 9 9 4 0
BITMAP
8180
4100
4300
6200
2200
3400
1400
1C00
0800
ENDCHAR
STARTCHAR 2229
ENCODING 8745
SWIDTH 720 0
DWIDTH 12 0
BBX 8 10 2 0
BITMAP
3C
42
83
81
81
81
81
81
81
81
ENDCHAR
STARTCHAR 222A
ENCODING 8746
SWIDTH 720 0
DWIDTH 12 0
BBX 8 10 2 0
BITMAP
81
81
81
81
81
81
81
83
42
3C
ENDCHAR
STARTCHAR 222B
ENCODING 8747
SWIDTH 300 0
DWIDTH 5 0
BBX 5 17 0 -2
BITMAP
18
20
20
20
20
20
20
20
20
20
20
20
20
20
20
E0
C0
ENDCHAR
STARTCHAR 222E
ENCODING 8750
SWIDTH 1020 0
DWIDTH 17 0
BBX 7 21 5 -5
BITMAP
1C
2C
20
20
20
30
30
78
B4
B2
B2
B2
94
78
10
10
10
10
50
E0
40
ENDCHAR
STARTCHAR 2234
ENCODING 8756
SWIDTH 1020 0
DWIDTH 17 0
BBX 10 10 3 0
BITMAP
0C00
0C00
0000
0000
0000
0000
0000
0000
C0C0
C0C0
ENDCHAR
STARTCHAR 2235
ENCODING 8757
SWIDTH 1020 0
DWIDTH 17 0
BBX 10 10 3 0
BITMAP
C0C0
C0C0
0000
0000
0000
0000
0000
0000
0C00
0C00
ENDCHAR
STARTCHAR 2237
ENCODING 8759
SWIDTH 1020 0
DWIDTH 17 0
BBX 10 10 3 0
BITMAP
C0C0
C0C0
0000
0000
0000
0000
0000
0000
C0C0
C0C0
ENDCHAR
STARTCHAR 2245
ENCODING 8773
SWIDTH 1020 0
DWIDTH 17 0
BBX 8 6 4 2
BITMAP
01
7F
00
FF
00
FF
ENDCHAR
STARTCHAR 2248
ENCODING 8776
SWIDTH 540 0
DWIDTH 9 0
BBX 8 4 1 1
BITMAP
F2
8E
61
9E
ENDCHAR
STARTCHAR 2260
ENCODING 8800
SWIDTH 540 0
DWIDTH 9 0
BBX 8 8 1 0
BITMAP
04
08
FF
10
10
FF
60
40
ENDCHAR
STARTCHAR 2261
ENCODING 8801
SWIDTH 600 0
DWIDTH 10 0
BBX 8 6 1 1
BITMAP
FF
00
00
FF
00
FF
ENDCHAR
STARTCHAR 2262
ENCODING 8802
SWIDTH 1020 0
DWIDTH 17 0
BBX 8 9 4 0
BITMAP
02
FF
04
08
FF
10
30
FF
40
ENDCHAR
STARTCHAR 2264
ENCODING 8804
SWIDTH 540 0
DWIDTH 9 0
BBX 9 11 0 0
BITMAP
0080
0780
1C00
7000
E000
3800
0700
0180
0000
0000
FF80
ENDCHAR
STARTCHAR 2265
ENCODING 8805
SWIDTH 540 0
DWIDTH 9 0
BBX 9 11 0 0
BITMAP
8000
F000
1C00
0700
0380
0E00
7800
C000
0000
0000
FF80
ENDCHAR
STARTCHAR 226A
ENCODING 8810
SWIDTH 1020 0
DWIDTH 17 0
BBX 11 11 3 -1
BITMAP
0020
00E0
0380
1C60
7380
CE00
7380
1C60
0380
00E0
0020
ENDCHAR
STARTCHAR 226B
ENCODING 8811
SWIDTH 1020 0
DWIDTH 17 0
BBX 11 9 3 0
BITMAP
E000
3800
CE00
7180
0C60
7180
CE00
3800
E000
ENDCHAR
STARTCHAR 2282
ENCODING 8834
SWIDTH 1020 0
DWIDTH 17 0
BBX 9 8 4 0
BITMAP
3F80
4000
8000
8000
8000
8000
4000
3F80
ENDCHAR
STARTCHAR 2283
ENCODING 8835
SWIDTH 1020 0
DWIDTH 17 0
BBX 9 8 4 0
BITMAP
FE00
0100
0180
0080
0080
0180
0100
FE00
ENDCHAR
STARTCHAR 2284
ENCODING 8836
SWIDTH 1020 0
DWIDTH 17 0
BBX 9 10 4 -1
BITMAP
0100
3F80
4200
8400
8400
8800
8800
5000
3F80
2000
ENDCHAR
STARTCHAR 2285
ENCODING 8837
SWIDTH 1020 0
DWIDTH 17 0
BBX 9 10 4 -1
BITMAP
8000
FE00
2100
2180
1080
1080
0980
0500
FE00
0200
ENDCHAR
STARTCHAR 2286
ENCODING 8838
SWIDTH 1020 0
DWIDTH 17 0
BBX 9 10 4 0
BITMAP
3F80
4000
8000
8000
8000
8000
4000
3F80
0000
FF80
ENDCHAR
STARTCHAR 2287
ENCODING 8839
SWIDTH 1020 0
DWIDTH 17 0
BBX 9 10 4 0
BITMAP
FE00
0100
0180
0080
0080
0180
0100
FE00
0000
FF80
ENDCHAR
STARTCHAR 2295
ENCODING 8853
SWIDTH 1020 0
DWIDTH 17 0
BBX 12 12 2 0
BITMAP
1FC0
2260
4220
4210
8210
FFF0
8210
4210
4210
2220
3240
0F80
ENDCHAR
STARTCHAR 2296
ENCODING 8854
SWIDTH 1020 0
DWIDTH 17 0
BBX 12 12 2 0
BITMAP
0F80
30C0
2020
4030
4010
8010
FFF0
8010
4010
6020
3040
0F80
ENDCHAR
STARTCHAR 2297
ENCODING 8855
SWIDTH 1020 0
DWIDTH 17 0
BBX 12 12 2 0
BITMAP
0F80
30C0
7060
5890
4D10
8610
8710
4990
5090
6060
3040
0F80
ENDCHAR
STARTCHAR 2298
ENCODING 8856
SWIDTH 1020 0
DWIDTH 17 0
BBX 12 12 2 0
BITMAP
0F80
30C0
6060
40D0
4190
8310
8610
8C10
5810
7020
30C0
0F80
ENDCHAR
STARTCHAR 2299
ENCODING 8857
SWIDTH 1020 0
DWIDTH 17 0
BBX 12 12 2 0
BITMAP
0F80
30C0
6020
4010
C010
8610
8610
8010
4010
6020
30C0
0F80
ENDCHAR
STARTCHAR 22A2
ENCODING 8866
SWIDTH 1020 0
DWIDTH 17 0
BBX 10 9 3 0
BITMAP
8000
8000
8000
8000
FFC0
8000
8000
8000
8000
ENDCHAR
STARTCHAR 22A3
ENCODING 8867
SWIDTH 1020 0
DWIDTH 17 0
BBX 10 9 3 0
BITMAP
0040
0040
0040
0040
FFC0
0040
0040
0040
0040
ENDCHAR
STARTCHAR 22A4
ENCODING 8868
SWIDTH 1020 0
DWIDTH 17 0
BBX 9 10 4 0
BITMAP
FF80
0800
0800
0800
0800
0800
0800
0800
0800
0800
ENDCHAR
STARTCHAR 22A5
ENCODING 8869
SWIDTH 1020 0
DWIDTH 17 0
BBX 10 10 3 0
BITMAP
0400
0400
0400
0400
0400
0400
0400
0400
0400
FFC0
ENDCHAR
STARTCHAR 22BB
ENCODING 8891
SWIDTH 1020 0
DWIDTH 17 0
BBX 9 12 4 -2
BITMAP
8080
8100
4100
4300
6200
2200
2400
1400
1800
1800
0000
FF80
ENDCHAR
STARTCHAR 2302
ENCODING 8962
SWIDTH 600 0
DWIDTH 10 0
BBX 8 13 1 0
BITMAP
10
18
24
62
42
81
81
81
81
81
81
81
FF
ENDCHAR
STARTCHAR 2310
ENCODING 8976
SWIDTH 600 0
DWIDTH 10 0
BBX 8 5 1 1
BITMAP
FF
80
80
80
80
ENDCHAR
STARTCHAR 2320
ENCODING 8992
SWIDTH 600 0
DWIDTH 10 0
BBX 3 19 4 -4
BITMAP
60
80
80
80
C0
C0
C0
C0
C0
C0
C0
C0
C0
C0
C0
C0
C0
C0
C0
ENDCHAR
STARTCHAR 2321
ENCODING 8993
SWIDTH 600 0
DWIDTH 10 0
BBX 3 19 3 -3
BITMAP
60
60
60
60
60
60
60
60
60
60
60
60
60
60
20
20
20
40
C0
ENDCHAR
STARTCHAR 2329
ENCODING 9001
SWIDTH 360 0
DWIDTH 6 0
BBX 4 12 1 -2
BITMAP
10
20
20
40
40
C0
80
40
40
20
20
20
ENDCHAR
STARTCHAR 232A
ENCODING 9002
SWIDTH 360 0
DWIDTH 6 0
BBX 3 12 1 -2
BITMAP
80
80
40
40
20
20
20
20
40
40
80
80
ENDCHAR
STARTCHAR 2500
ENCODING 9472
SWIDTH 1020 0
DWIDTH 17 0
BBX 17 1 0 4
BITMAP
FFFF80
ENDCHAR
STARTCHAR 2502
ENCODING 9474
SWIDTH 1020 0
DWIDTH 17 0
BBX 1 16 8 -4
BITMAP
80
80
80
80
80
80
80
80
80
80
80
80
80
80
80
80
ENDCHAR
STARTCHAR 250C
ENCODING 9484
SWIDTH 1020 0
DWIDTH 17 0
BBX 9 9 8 -4
BITMAP
FF80
8000
8000
8000
8000
8000
8000
8000
8000
ENDCHAR
STARTCHAR 2510
ENCODING 9488
SWIDTH 1020 0
DWIDTH 17 0
BBX 9 9 0 -4
BITMAP
FF80
0080
0080
0080
0080
0080
0080
0080
0080
ENDCHAR
STARTCHAR 2514
ENCODING 9492
SWIDTH 1020 0
DWIDTH 17 0
BBX 9 8 8 4
BITMAP
8000
8000
8000
8000
8000
8000
8000
FF80
ENDCHAR
STARTCHAR 2518
ENCODING 9496
SWIDTH 1020 0
DWIDTH 17 0
BBX 9 8 0 4
BITMAP
0080
0080
0080
0080
0080
0080
0080
FF80
ENDCHAR
STARTCHAR 251C
ENCODING 9500
SWIDTH 1020 0
DWIDTH 17 0
BBX 9 16 8 -4
BITMAP
8000
8000
8000
8000
8000
8000
8000
FF80
8000
8000
8000
8000
8000
8000
8000
8000
ENDCHAR
STARTCHAR 2524
ENCODING 9508
SWIDTH 1020 0
DWIDTH 17 0
BBX 9 16 0 -4
BITMAP
0080
0080
0080
0080
0080
0080
0080
FF80
0080
0080
0080
0080
0080
0080
0080
0080
ENDCHAR
STARTCHAR 252C
ENCODING 9516
SWIDTH 1020 0
DWIDTH 17 0
BBX 17 9 0 -4
BITMAP
FFFF80
008000
008000
008000
008000
008000
008000
008000
008000
ENDCHAR
STARTCHAR 2534
ENCODING 9524
SWIDTH 1020 0
DWIDTH 17 0
BBX 17 8 0 4
BITMAP
008000
008000
008000
008000
008000
008000
008000
FFFF80
ENDCHAR
STARTCHAR 253C
ENCODING 9532
SWIDTH 1020 0
DWIDTH 17 0
BBX 17 16 0 -4
BITMAP
008000
008000
008000
008000
008000
008000
008000
FFFF80
008000
008000
008000
008000
008000
008000
008000
008000
ENDCHAR
STARTCHAR 2550
ENCODING 9552
SWIDTH 1020 0
DWIDTH 17 0
BBX 17 3 0 3
BITMAP
FFFF80
000000
FFFF80
ENDCHAR
STARTCHAR 2551
ENCODING 9553
SWIDTH 1020 0
DWIDTH 17 0
BBX 3 16 7 -4
BITMAP
A0
A0
A0
A0
A0
A0
A0
A0
A0
A0
A0
A0
A0
A0
A0
A0
ENDCHAR
STARTCHAR 2552
ENCODING 9554
SWIDTH 1020 0
DWIDTH 17 0
BBX 9 10 8 -4
BITMAP
FF80
8000
FF80
8000
8000
8000
8000
8000
8000
8000
ENDCHAR
STARTCHAR 2553
ENCODING 9555
SWIDTH 1020 0
DWIDTH 17 0
BBX 10 9 7 -4
BITMAP
FFC0
A000
A000
A000
A000
A000
A000
A000
A000
ENDCHAR
STARTCHAR 2554
ENCODING 9556
SWIDTH 1020 0
DWIDTH 17 0
BBX 10 10 7 -4
BITMAP
FFC0
8000
BFC0
A000
A000
A000
A000
A000
A000
A000
ENDCHAR
STARTCHAR 2555
ENCODING 9557
SWIDTH 1020 0
DWIDTH 17 0
BBX 9 10 0 -4
BITMAP
FF80
0080
FF80
0080
0080
0080
0080
0080
0080
0080
ENDCHAR
STARTCHAR 2556
ENCODING 9558
SWIDTH 1020 0
DWIDTH 17 0
BBX 10 9 0 -4
BITMAP
FFC0
0140
0140
0140
0140
0140
0140
0140
0140
ENDCHAR
STARTCHAR 2557
ENCODING 9559
SWIDTH 1020 0
DWIDTH 17 0
BBX 10 10 0 -4
BITMAP
FFC0
0040
FF40
0140
0140
0140
0140
0140
0140
0140
ENDCHAR
STARTCHAR 2558
ENCODING 9560
SWIDTH 1020 0
DWIDTH 17 0
BBX 9 9 8 3
BITMAP
8000
8000
8000
8000
8000
8000
FF80
8000
FF80
ENDCHAR
STARTCHAR 2559
ENCODING 9561
SWIDTH 1020 0
DWIDTH 17 0
BBX 10 8 7 4
BITMAP
A000
A000
A000
A000
A000
A000
A000
FFC0
ENDCHAR
STARTCHAR 255A
ENCODING 9562
SWIDTH 1020 0
DWIDTH 17 0
BBX 10 9 7 3
BITMAP
A000
A000
A000
A000
A000
A000
BFC0
8000
FFC0
ENDCHAR
STARTCHAR 255B
ENCODING 9563
SWIDTH 1020 0
DWIDTH 17 0
BBX 9 9 0 3
BITMAP
0080
0080
0080
0080
0080
0080
FF80
0080
FF80
ENDCHAR
STARTCHAR 255C
ENCODING 9564
SWIDTH 1020 0
DWIDTH 17 0
BBX 10 8 0 4
BITMAP
0140
0140
0140
0140
0140
0140
0140
FFC0
ENDCHAR
STARTCHAR 255D
ENCODING 9565
SWIDTH 1020 0
DWIDTH 17 0
BBX 10 9 0 3
BITMAP
0140
0140
0140
0140
0140
0140
FF40
0040
FFC0
ENDCHAR
STARTCHAR 255E
ENCODING 9566
SWIDTH 1020 0
DWIDTH 17 0
BBX 9 16 8 -4
BITMAP
8000
8000
8000
8000
8000
8000
FF80
8000
FF80
8000
8000
8000
8000
8000
8000
8000
ENDCHAR
STARTCHAR 255F
ENCODING 9567
SWIDTH 1020 0
DWIDTH 17 0
BBX 10 16 7 -4
BITMAP
A000
A000
A000
A000
A000
A000
A000
BFC0
A000
A000
A000
A000
A000
A000
A000
A000
ENDCHAR
STARTCHAR 2560
ENCODING 9568
SWIDTH 1020 0
DWIDTH 17 0
BBX 10 16 7 -4
BITMAP
A000
A000
A000
A000
A000
A000
BFC0
8000
BFC0
A000
A000
A000
A000
A000
A000
A000
ENDCHAR
STARTCHAR 2561
ENCODING 9569
SWIDTH 1020 0
DWIDTH 17 0
BBX 9 16 0 -4
BITMAP
0080
0080
0080
0080
0080
0080
FF80
0080
FF80
0080
0080
0080
0080
0080
0080
0080
ENDCHAR
STARTCHAR 2562
ENCODING 9570
SWIDTH 1020 0
DWIDTH 17 0
BBX 10 16 0 -4
BITMAP
0140
0140
0140
0140
0140
0140
0140
FF40
0140
0140
0140
0140
0140
0140
0140
0140
ENDCHAR
STARTCHAR 2563
ENCODING 9571
SWIDTH 1020 0
DWIDTH 17 0
BBX 10 16 0 -4
BITMAP
0140
0140
0140
0140
0140
0140
FF40
0040
FF40
0140
0140
0140
0140
0140
0140
0140
ENDCHAR
STARTCHAR 2564
ENCODING 9572
SWIDTH 1020 0
DWIDTH 17 0
BBX 17 10 0 -4
BITMAP
FFFF80
000000
FFFF80
008000
008000
008000
008000
008000
008000
008000
ENDCHAR
STARTCHAR 2565
ENCODING 9573
SWIDTH 1020 0
DWIDTH 17 0
BBX 17 9 0 -4
BITMAP
FFFF80
014000
014000
014000
014000
014000
014000
014000
014000
ENDCHAR
STARTCHAR 2566
ENCODING 9574
SWIDTH 1020 0
DWIDTH 17 0
BBX 17 10 0 -4
BITMAP
FFFF80
000000
FF7F80
014000
014000
014000
014000
014000
014000
014000
ENDCHAR
STARTCHAR 2567
ENCODING 9575
SWIDTH 1020 0
DWIDTH 17 0
BBX 17 9 0 3
BITMAP
008000
008000
008000
008000
008000
008000
FFFF80
000000
FFFF80
ENDCHAR
STARTCHAR 2568
ENCODING 9576
SWIDTH 1020 0
DWIDTH 17 0
BBX 17 8 0 4
BITMAP
014000
014000
014000
014000
014000
014000
014000
FFFF80
ENDCHAR
STARTCHAR 2569
ENCODING 9577
SWIDTH 1020 0
DWIDTH 17 0
BBX 17 9 0 3
BITMAP
014000
014000
014000
014000
014000
014000
FF7F80
000000
FFFF80
ENDCHAR
STARTCHAR 256A
ENCODING 9578
SWIDTH 1020 0
DWIDTH 17 0
BBX 17 16 0 -4
BITMAP
008000
008000
008000
008000
008000
008000
FFFF80
008000
FFFF80
008000
008000
008000
008000
008000
008000
008000
ENDCHAR
STARTCHAR 256B
ENCODING 9579
SWIDTH 1020 0
DWIDTH 17 0
BBX 17 16 0 -4
BITMAP
014000
014000
014000
014000
014000
014000
014000
FFFF80
014000
014000
014000
014000
014000
014000
014000
014000
ENDCHAR
STARTCHAR 256C
ENCODING 9580
SWIDTH 1020 0
DWIDTH 17 0
BBX 17 16 0 -4
BITMAP
014000
014000
014000
014000
014000
014000
FF7F80
000000
FF7F80
014000
014000
014000
014000
014000
014000
014000
ENDCHAR
STARTCHAR 256D
ENCODING 9581
SWIDTH 1020 0
DWIDTH 17 0
BBX 9 9 8 -4
BITMAP
0F80
3800
6000
4000
8000
8000
8000
8000
8000
ENDCHAR
STARTCHAR 256E
ENCODING 9582
SWIDTH 1020 0
DWIDTH 17 0
BBX 9 9 0 -4
BITMAP
F000
0C00
0200
0100
0100
0080
0080
0080
0080
ENDCHAR
STARTCHAR 256F
ENCODING 9583
SWIDTH 1020 0
DWIDTH 17 0
BBX 9 8 0 4
BITMAP
0080
0080
0080
0180
0100
0200
0C00
F800
ENDCHAR
STARTCHAR 2570
ENCODING 9584
SWIDTH 1020 0
DWIDTH 17 0
BBX 9 8 8 4
BITMAP
8000
8000
8000
8000
C000
6000
3000
0F80
ENDCHAR
STARTCHAR 2580
ENCODING 9600
SWIDTH 1020 0
DWIDTH 17 0
BBX 17 8 0 4
BITMAP
FFFF80
FFFF80
FFFF80
FFFF80
FFFF80
FFFF80
FFFF80
FFFF80
ENDCHAR
STARTCHAR 2584
ENCODING 9604
SWIDTH 1020 0
DWIDTH 17 0
BBX 17 8 0 -4
BITMAP
FFFF80
FFFF80
FFFF80
FFFF80
FFFF80
FFFF80
FFFF80
FFFF80
ENDCHAR
STARTCHAR 2588
ENCODING 9608
SWIDTH 1020 0
DWIDTH 17 0
BBX 17 16 0 -4
BITMAP
FFFF80
FFFF80
FFFF80
FFFF80
FFFF80
FFFF80
FFFF80
FFFF80
FFFF80
FFFF80
FFFF80
FFFF80
FFFF80
FFFF80
FFFF80
FFFF80
ENDCHAR
STARTCHAR 258C
ENCODING 9612
SWIDTH 1020 0
DWIDTH 17 0
BBX 8 16 0 -4
BITMAP
FF
FF
FF
FF
FF
FF
FF
FF
FF
FF
FF
FF
FF
FF
FF
FF
ENDCHAR
STARTCHAR 2590
ENCODING 9616
SWIDTH 1020 0
DWIDTH 17 0
BBX 9 16 8 -4
BITMAP
FF80
FF80
FF80
FF80
FF80
FF80
FF80
FF80
FF80
FF80
FF80
FF80
FF80
FF80
FF80
FF80
ENDCHAR
STARTCHAR 2591
ENCODING 9617
SWIDTH 1020 0
DWIDTH 17 0
BBX 13 14 1 -1
BITMAP
C718
C718
C718
0000
0000
0000
C718
C718
C718
0000
0000
C718
C718
C718
ENDCHAR
STARTCHAR 2592
ENCODING 9618
SWIDTH 1020 0
DWIDTH 17 0
BBX 17 16 0 -4
BITMAP
E31C00
E31C00
1CE380
1CE380
1CE380
E31C00
E31C00
E31C00
1CE380
1CE380
1CE380
E31C00
E31C00
E31C00
1CE380
1CE380
ENDCHAR
STARTCHAR 2593
ENCODING 9619
SWIDTH 1020 0
DWIDTH 17 0
BBX 17 17 0 -4
BITMAP
FFFF80
FFFF80
FFFF80
E31C00
E31C00
E31C00
FFFF80
FFFF80
FFFF80
E31C00
E31C00
FFFF80
FFFF80
FFFF80
E31C00
E31C00
E31C00
ENDCHAR
STARTCHAR 25A0
ENCODING 9632
SWIDTH 600 0
DWIDTH 10 0
BBX 12 13 -1 0
BITMAP
FFF0
FFF0
FFF0
FFF0
FFF0
FFF0
FFF0
FFF0
FFF0
FFF0
FFF0
FFF0
FFF0
ENDCHAR
STARTCHAR 25A1
ENCODING 9633
SWIDTH 600 0
DWIDTH 10 0
BBX 8 9 1 0
BITMAP
FF
81
81
81
81
81
81
81
FF
ENDCHAR
STARTCHAR 25AA
ENCODING 9642
SWIDTH 360 0
DWIDTH 6 0
BBX 4 4 1 2
BITMAP
F0
F0
F0
F0
ENDCHAR
STARTCHAR 25AB
ENCODING 9643
SWIDTH 360 0
DWIDTH 6 0
BBX 4 5 1 2
BITMAP
F0
90
90
90
F0
ENDCHAR
STARTCHAR 25AC
ENCODING 9644
SWIDTH 1020 0
DWIDTH 17 0
BBX 12 6 2 0
BITMAP
FFF0
FFF0
FFF0
FFF0
FFF0
FFF0
ENDCHAR
STARTCHAR 25B2
ENCODING 9650
SWIDTH 1020 0
DWIDTH 17 0
BBX 10 9 3 1
BITMAP
0400
0C00
0E00
1E00
1F00
3F00
3F80
7FC0
FFC0
ENDCHAR
STARTCHAR 25B5
ENCODING 9653
SWIDTH 720 0
DWIDTH 12 0
BBX 8 7 2 2
BITMAP
18
18
24
24
42
42
FF
ENDCHAR
STARTCHAR 25B9
ENCODING 9657
SWIDTH 720 0
DWIDTH 12 0
BBX 8 7 2 2
BITMAP
C0
B0
8C
83
8C
B0
C0
ENDCHAR
STARTCHAR 25BA
ENCODING 9658
SWIDTH 1020 0
DWIDTH 17 0
BBX 9 6 4 2
BITMAP
8000
F000
FE00
FF80
FC00
E000
ENDCHAR
STARTCHAR 25BC
ENCODING 9660
SWIDTH 1020 0
DWIDTH 17 0
BBX 9 9 4 1
BITMAP
FF80
FF00
7F00
7E00
3E00
3C00
1C00
1800
0800
ENDCHAR
STARTCHAR 25BF
ENCODING 9663
SWIDTH 720 0
DWIDTH 12 0
BBX 8 7 2 0
BITMAP
FF
42
42
24
24
18
18
ENDCHAR
STARTCHAR 25C3
ENCODING 9667
SWIDTH 720 0
DWIDTH 12 0
BBX 8 7 2 2
BITMAP
03
0D
31
C1
31
0D
03
ENDCHAR
STARTCHAR 25C4
ENCODING 9668
SWIDTH 1020 0
DWIDTH 17 0
BBX 9 7 4 2
BITMAP
0180
0F80
3F80
FF80
3F80
0780
0080
ENDCHAR
STARTCHAR 25C6
ENCODING 9670
SWIDTH 1020 0
DWIDTH 17 0
BBX 9 9 4 1
BITMAP
0800
1C00
3E00
7F00
FF80
7F00
3E00
1C00
0800
ENDCHAR
STARTCHAR 25C7
ENCODING 9671
SWIDTH 1020 0
DWIDTH 17 0
BBX 10 11 3 0
BITMAP
0C00
1200
2100
2080
4040
8040
4080
2100
1100
0A00
0400
ENDCHAR
STARTCHAR 25CA
ENCODING 9674
SWIDTH 480 0
DWIDTH 8 0
BBX 7 12 0 0
BITMAP
18
28
24
44
42
82
82
42
64
24
18
18
ENDCHAR
STARTCHAR 25CB
ENCODING 9675
SWIDTH 600 0
DWIDTH 10 0
BBX 10 10 0 1
BITMAP
1E00
2100
4080
8080
8040
8040
8080
4080
2100
1E00
ENDCHAR
STARTCHAR 25CF
ENCODING 9679
SWIDTH 600 0
DWIDTH 10 0
BBX 8 9 1 0
BITMAP
18
7E
FF
FF
FF
FF
FF
7E
3C
ENDCHAR
STARTCHAR 25D8
ENCODING 9688
SWIDTH 600 0
DWIDTH 10 0
BBX 10 10 0 0
BITMAP
FFC0
FFC0
FFC0
F3C0
E1C0
E1C0
F3C0
FFC0
FFC0
FFC0
ENDCHAR
STARTCHAR 25D9
ENCODING 9689
SWIDTH 600 0
DWIDTH 10 0
BBX 12 13 -1 0
BITMAP
FFF0
FFF0
E670
DFB0
DFB0
BFD0
BFD0
FFF0
DFB0
EF70
F0F0
FFF0
FFF0
ENDCHAR
STARTCHAR 25E6
ENCODING 9702
SWIDTH 480 0
DWIDTH 8 0
BBX 6 7 1 1
BITMAP
38
CC
84
84
84
CC
78
ENDCHAR
STARTCHAR 263A
ENCODING 9786
SWIDTH 1020 0
DWIDTH 17 0
BBX 13 13 2 0
BITMAP
0F80
1040
2020
4010
4890
8888
8008
A048
5050
4F90
2020
1040
0F80
ENDCHAR
STARTCHAR 263B
ENCODING 9787
SWIDTH 1080 0
DWIDTH 18 0
BBX 12 13 3 0
BITMAP
1F00
3FC0
7FE0
FEE0
E670
E6F0
FFF0
FFB0
CF70
E0E0
79E0
3FC0
1F00
ENDCHAR
STARTCHAR 263C
ENCODING 9788
SWIDTH 900 0
DWIDTH 15 0
BBX 13 13 1 0
BITMAP
0200
0200
27A0
18C0
1060
3020
F038
3020
1060
1CC0
27A0
0200
0200
ENDCHAR
STARTCHAR 2640
ENCODING 9792
SWIDTH 780 0
DWIDTH 13 0
BBX 6 12 3 1
BITMAP
38
44
84
84
84
78
10
10
FC
10
10
10
ENDCHAR
STARTCHAR 2642
ENCODING 9794
SWIDTH 780 0
DWIDTH 13 0
BBX 9 10 2 3
BITMAP
0780
0180
0280
0480
7880
8800
8400
8400
8800
7000
ENDCHAR
STARTCHAR 2660
ENCODING 9824
SWIDTH 540 0
DWIDTH 9 0
BBX 10 12 0 1
BITMAP
0800
0C00
1E00
3F00
7F80
FFC0
FFC0
FFC0
7B80
0800
0C00
3F00
ENDCHAR
STARTCHAR 2663
ENCODING 9827
SWIDTH 660 0
DWIDTH 11 0
BBX 13 13 -1 0
BITMAP
0700
0F80
0F80
0F80
3FE0
7FF0
FFF0
FFF8
7FF0
7AF0
0200
0700
1FC0
ENDCHAR
STARTCHAR 2665
ENCODING 9829
SWIDTH 600 0
DWIDTH 10 0
BBX 10 12 0 0
BITMAP
7380
F7C0
FFC0
FFC0
FFC0
7F80
7F80
3F00
1E00
0C00
0C00
0800
ENDCHAR
STARTCHAR 2666
ENCODING 9830
SWIDTH 540 0
DWIDTH 9 0
BBX 9 13 0 0
BITMAP
0800
0800
1C00
3C00
3E00
7F00
FF80
FF80
7F00
3E00
1C00
1C00
0800
ENDCHAR
STARTCHAR 266A
ENCODING 9834
SWIDTH 480 0
DWIDTH 8 0
BBX 6 12 1 1
BITMAP
10
10
18
1C
14
14
14
14
14
F0
E0
C0
ENDCHAR
STARTCHAR 266B
ENCODING 9835
SWIDTH 780 0
DWIDTH 13 0
BBX 10 11 1 0
BITMAP
1800
1FC0
10C0
1040
1040
1040
1040
1040
7040
F3C0
4380
ENDCHAR
STARTCHAR 301A
ENCODING 12314
SWIDTH 720 0
DWIDTH 12 0
BBX 4 16 4 -3
BITMAP
F0
A0
A0
A0
A0
A0
A0
A0
A0
A0
A0
A0
A0
A0
A0
F0
ENDCHAR
STARTCHAR 301B
ENCODING 12315
SWIDTH 720 0
DWIDTH 12 0
BBX 4 16 4 -3
BITMAP
F0
50
50
50
50
50
50
50
50
50
50
50
50
50
50
F0
ENDCHAR
STARTCHAR EFBF
ENCODING 61375
SWIDTH 720 0
DWIDTH 12 0
BBX 14 14 -2 1
BITMAP
0004
000C
0018
0010
0020
6060
B0C0
1080
1180
1300
1E00
0C00
0C00
0800
ENDCHAR
STARTCHAR EFC0
ENCODING 61376
SWIDTH 720 0
DWIDTH 12 0
BBX 8 18 0 -3
BITMAP
09
09
09
09
09
09
09
09
09
09
09
09
09
09
09
09
09
FF
ENDCHAR
STARTCHAR EFC1
ENCODING 61377
SWIDTH 720 0
DWIDTH 12 0
BBX 8 18 0 -3
BITMAP
FF
09
09
09
09
09
09
09
09
09
09
09
09
09
09
09
09
09
ENDCHAR
STARTCHAR EFC2
ENCODING 61378
SWIDTH 720 0
DWIDTH 12 0
BBX 12 16 0 -4
BITMAP
FFF0
4020
4020
4020
4020
4020
4020
4020
4020
4020
4020
4020
4020
4020
4020
4020
ENDCHAR
STARTCHAR EFC3
ENCODING 61379
SWIDTH 720 0
DWIDTH 12 0
BBX 12 16 0 -4
BITMAP
4020
4020
4020
4020
4020
4020
4020
4020
4020
4020
4020
4020
4020
4020
4020
FFF0
ENDCHAR
STARTCHAR EFC4
ENCODING 61380
SWIDTH 720 0
DWIDTH 12 0
BBX 8 18 4 -3
BITMAP
90
90
90
90
90
90
90
90
90
90
90
90
90
90
90
90
90
FF
ENDCHAR
STARTCHAR EFC5
ENCODING 61381
SWIDTH 720 0
DWIDTH 12 0
BBX 8 18 4 -3
BITMAP
FF
90
90
90
90
90
90
90
90
90
90
90
90
90
90
90
90
90
ENDCHAR
STARTCHAR EFC6
ENCODING 61382
SWIDTH 720 0
DWIDTH 12 0
BBX 10 16 1 -4
BITMAP
3F00
6180
C0C0
8040
8040
8040
8040
8040
8040
8040
8040
8040
8040
8040
8040
8040
ENDCHAR
STARTCHAR EFC7
ENCODING 61383
SWIDTH 720 0
DWIDTH 12 0
BBX 10 16 1 -4
BITMAP
8040
8040
8040
8040
8040
8040
8040
8040
8040
8040
8040
8040
8040
C0C0
6180
3F00
ENDCHAR
STARTCHAR EFC8
ENCODING 61384
SWIDTH 720 0
DWIDTH 12 0
BBX 10 16 1 -4
BITMAP
8040
8040
8040
8040
8040
8040
8040
8040
8040
8040
8040
8040
8040
8040
8040
8040
ENDCHAR
STARTCHAR EFC9
ENCODING 61385
SWIDTH 720 0
DWIDTH 12 0
BBX 4 18 4 -3
BITMAP
90
90
90
90
90
90
90
90
90
90
90
90
90
90
90
90
90
90
ENDCHAR
STARTCHAR EFCA
ENCODING 61386
SWIDTH 720 0
DWIDTH 12 0
BBX 8 9 2 0
BITMAP
18
18
24
24
46
42
FF
00
FF
ENDCHAR
STARTCHAR EFCB
ENCODING 61387
SWIDTH 720 0
DWIDTH 12 0
BBX 12 4 0 3
BITMAP
FFF0
0000
0000
FFF0
ENDCHAR
STARTCHAR EFCC
ENCODING 61388
SWIDTH 720 0
DWIDTH 12 0
BBX 7 17 5 -2
BITMAP
02
06
0C
08
10
30
60
40
C0
60
20
10
18
0C
04
06
02
ENDCHAR
STARTCHAR EFCD
ENCODING 61389
SWIDTH 720 0
DWIDTH 12 0
BBX 13 18 0 -3
BITMAP
8000
8000
C000
6000
2000
1000
1800
0C00
0400
0200
0300
0180
0080
00C0
0060
0020
0010
0018
ENDCHAR
STARTCHAR EFCE
ENCODING 61390
SWIDTH 720 0
DWIDTH 12 0
BBX 11 6 0 -3
BITMAP
0020
0020
0060
00E0
01C0
FFC0
ENDCHAR
STARTCHAR EFCF
ENCODING 61391
SWIDTH 720 0
DWIDTH 12 0
BBX 7 17 0 -2
BITMAP
80
C0
60
20
10
18
0C
04
06
0C
08
10
30
60
40
C0
80
ENDCHAR
STARTCHAR EFD0
ENCODING 61392
SWIDTH 720 0
DWIDTH 12 0
BBX 11 6 0 9
BITMAP
FFC0
07C0
01C0
00C0
0040
0060
ENDCHAR
STARTCHAR EFD1
ENCODING 61393
SWIDTH 720 0
DWIDTH 12 0
BBX 12 17 0 -2
BITMAP
0010
0030
0060
0040
00C0
0180
0300
0200
0600
0C00
0800
1000
3000
6000
4000
C000
8000
ENDCHAR
STARTCHAR EFD2
ENCODING 61394
SWIDTH 720 0
DWIDTH 12 0
BBX 12 17 0 -2
BITMAP
0010
0030
0060
0040
00C0
0180
0100
0200
0600
0C00
0800
1000
3000
6000
4000
C000
FFF0
ENDCHAR
STARTCHAR EFD3
ENCODING 61395
SWIDTH 720 0
DWIDTH 12 0
BBX 12 18 0 -3
BITMAP
FFF0
8000
4000
6000
2000
1000
1800
0C00
0400
0200
0300
0100
0080
00C0
0060
0020
0030
0010
ENDCHAR
STARTCHAR EFD4
ENCODING 61396
SWIDTH 720 0
DWIDTH 12 0
BBX 8 16 2 -4
BITMAP
18
18
18
18
3C
5A
99
99
99
99
5A
3C
18
18
18
18
ENDCHAR
STARTCHAR EFD5
ENCODING 61397
SWIDTH 600 0
DWIDTH 10 0
BBX 8 12 1 -4
BITMAP
0F
30
20
60
40
7C
40
C0
C0
80
80
80
ENDCHAR
STARTCHAR EFD6
ENCODING 61398
SWIDTH 1020 0
DWIDTH 17 0
BBX 12 6 2 5
BITMAP
F730
2550
2550
2550
24D0
2490
ENDCHAR
STARTCHAR EFD7
ENCODING 61399
SWIDTH 1020 0
DWIDTH 17 0
BBX 13 14 2 -1
BITMAP
0F80
3040
4020
8710
8890
9808
9008
9808
8890
8710
4010
2020
1040
0F80
ENDCHAR
STARTCHAR EFD8
ENCODING 61400
SWIDTH 1020 0
DWIDTH 17 0
BBX 13 14 2 -1
BITMAP
0F80
3040
4020
8F10
8890
8888
8F08
8908
8910
8890
4010
2020
10C0
0F00
ENDCHAR
STARTCHAR EFD9
ENCODING 61401
SWIDTH 1020 0
DWIDTH 17 0
BBX 16 7 0 4
BITMAP
7EC7
92EA
10AA
10BA
10B2
1092
3DD7
ENDCHAR
STARTCHAR EFDA
ENCODING 61402
SWIDTH 1020 0
DWIDTH 17 0
BBX 13 14 2 -1
BITMAP
0F80
3040
4020
8790
8890
8888
9808
8808
8890
8510
4210
2020
1040
0F80
ENDCHAR
STARTCHAR EFDB
ENCODING 61403
SWIDTH 1020 0
DWIDTH 17 0
BBX 13 14 2 -1
BITMAP
0F80
3040
4020
8D90
8C90
8C88
8F08
8D08
8DD0
8ED0
4010
2020
1040
0F80
ENDCHAR
STARTCHAR EFDC
ENCODING 61404
SWIDTH 720 0
DWIDTH 12 0
BBX 5 18 2 -3
BITMAP
18
18
18
18
18
18
18
18
18
18
18
18
18
98
58
38
38
18
ENDCHAR
STARTCHAR EFDD
ENCODING 61405
SWIDTH 720 0
DWIDTH 12 0
BBX 2 19 5 -4
BITMAP
C0
C0
C0
C0
C0
C0
C0
C0
C0
C0
C0
C0
C0
C0
C0
C0
C0
C0
C0
ENDCHAR
STARTCHAR EFDE
ENCODING 61406
SWIDTH 720 0
DWIDTH 12 0
BBX 4 16 3 -4
BITMAP
30
30
30
30
30
30
30
30
30
30
30
30
30
30
20
C0
ENDCHAR
STARTCHAR EFDF
ENCODING 61407
SWIDTH 720 0
DWIDTH 12 0
BBX 5 16 5 -4
BITMAP
C0
C0
C0
C0
C0
40
60
10
18
60
40
C0
C0
C0
C0
C0
ENDCHAR
STARTCHAR EFE0
ENCODING 61408
SWIDTH 720 0
DWIDTH 12 0
BBX 4 16 3 -3
BITMAP
E0
20
30
30
30
30
30
30
30
30
30
30
30
30
30
30
ENDCHAR
STARTCHAR EFE1
ENCODING 61409
SWIDTH 720 0
DWIDTH 12 0
BBX 4 16 5 -4
BITMAP
C0
C0
C0
C0
C0
C0
C0
C0
C0
C0
C0
C0
C0
C0
40
30
ENDCHAR
STARTCHAR EFE2
ENCODING 61410
SWIDTH 720 0
DWIDTH 12 0
BBX 5 16 2 -4
BITMAP
18
18
18
18
18
18
10
60
E0
10
18
18
18
18
18
18
ENDCHAR
STARTCHAR EFE3
ENCODING 61411
SWIDTH 720 0
DWIDTH 12 0
BBX 4 16 5 -4
BITMAP
30
60
40
C0
C0
C0
C0
C0
C0
C0
C0
C0
C0
C0
C0
C0
ENDCHAR
STARTCHAR EFE4
ENCODING 61412
SWIDTH 720 0
DWIDTH 12 0
BBX 7 18 0 -3
BITMAP
06
06
06
06
06
06
06
06
06
06
06
06
06
06
06
06
06
FE
ENDCHAR
STARTCHAR EFE5
ENCODING 61413
SWIDTH 720 0
DWIDTH 12 0
BBX 7 18 0 -3
BITMAP
FE
06
06
06
06
06
06
06
06
06
06
06
06
06
06
06
06
06
ENDCHAR
STARTCHAR EFE6
ENCODING 61414
SWIDTH 720 0
DWIDTH 12 0
BBX 7 18 5 -3
BITMAP
C0
C0
C0
C0
C0
C0
C0
C0
C0
C0
C0
C0
C0
C0
C0
C0
C0
FE
ENDCHAR
STARTCHAR EFE7
ENCODING 61415
SWIDTH 720 0
DWIDTH 12 0
BBX 7 18 5 -3
BITMAP
FE
C0
C0
C0
C0
C0
C0
C0
C0
C0
C0
C0
C0
C0
C0
C0
C0
C0
ENDCHAR
STARTCHAR EFE8
ENCODING 61416
SWIDTH 720 0
DWIDTH 12 0
BBX 12 1 0 4
BITMAP
FFF0
ENDCHAR
STARTCHAR EFE9
ENCODING 61417
SWIDTH 720 0
DWIDTH 12 0
BBX 12 2 0 14
BITMAP
00C0
FFF0
ENDCHAR
STARTCHAR EFEA
ENCODING 61418
SWIDTH 720 0
DWIDTH 12 0
BBX 12 1 0 14
BITMAP
FFF0
ENDCHAR
STARTCHAR EFEB
ENCODING 61419
SWIDTH 720 0
DWIDTH 12 0
BBX 12 1 0 -3
BITMAP
FFF0
ENDCHAR
STARTCHAR EFEC
ENCODING 61420
SWIDTH 540 0
DWIDTH 9 0
BBX 7 8 1 0
BITMAP
3E
62
60
78
C0
82
C6
7C
ENDCHAR
STARTCHAR EFFA
ENCODING 61434
SWIDTH 1020 0
DWIDTH 17 0
BBX 12 12 2 0
BITMAP
0F00
1FC0
3FE0
7FF0
7FF0
FFF0
FFF0
7FF0
7FF0
7FE0
3FC0
0F80
ENDCHAR
STARTCHAR EFFB
ENCODING 61435
SWIDTH 1020 0
DWIDTH 17 0
BBX 12 12 2 0
BITMAP
FFF0
FFF0
FFF0
FFF0
FFF0
FFF0
FFF0
FFF0
FFF0
FFF0
FFF0
FFF0
ENDCHAR
STARTCHAR EFFC
ENCODING 61436
SWIDTH 1020 0
DWIDTH 17 0
BBX 12 12 2 0
BITMAP
FFF0
8010
8010
8010
8010
8010
8010
8010
8010
8010
8010
FFF0
ENDCHAR
STARTCHAR EFFD
ENCODING 61437
SWIDTH 1020 0
DWIDTH 17 0
BBX 12 12 2 0
BITMAP
0F80
3040
4020
4010
8010
8010
8010
8010
4010
4020
2040
1F80
ENDCHAR
STARTCHAR EFFE
ENCODING 61438
SWIDTH 780 0
DWIDTH 13 0
BBX 11 12 1 0
BITMAP
0780
1CC0
2C60
4C60
CC60
CC40
8F80
8600
8600
C600
4400
3800
ENDCHAR
STARTCHAR EFFF
ENCODING 61439
SWIDTH 480 0
DWIDTH 8 0
BBX 8 8 0 5
BITMAP
3C
42
B5
BD
BD
AD
42
3C
ENDCHAR
STARTCHAR FB00
ENCODING 64256
SWIDTH 540 0
DWIDTH 9 0
BBX 9 13 0 0
BITMAP
3180
2300
6200
6200
F780
6200
6200
6200
6200
6200
6200
6200
6200
ENDCHAR
STARTCHAR FB01
ENCODING 64257
SWIDTH 480 0
DWIDTH 8 0
BBX 7 13 0 0
BITMAP
32
62
60
60
F2
62
62
62
62
62
62
62
62
ENDCHAR
STARTCHAR FB02
ENCODING 64258
SWIDTH 480 0
DWIDTH 8 0
BBX 7 13 0 0
BITMAP
32
22
62
62
F2
62
62
62
62
62
62
62
62
ENDCHAR
STARTCHAR FB03
ENCODING 64259
SWIDTH 780 0
DWIDTH 13 0
BBX 12 13 0 0
BITMAP
31B0
2330
6200
6200
F7B0
6230
6230
6230
6230
6230
6230
6230
6230
ENDCHAR
STARTCHAR FB04
ENCODING 64260
SWIDTH 780 0
DWIDTH 13 0
BBX 12 13 0 0
BITMAP
31B0
2330
6230
6230
F7B0
6230
6230
6230
6230
6230
6230
6230
6230
ENDCHAR
ENDFONT
